<?xml version="1.0" encoding="UTF-8"?>
<svg xmlns="http://www.w3.org/2000/svg" viewBox="0 0 100 100" role="img" aria-label="angels ballpark">
  <title>angels</title>
  <rect width="100" height="100" fill="#1a2e1a" />
    <path d="M 3.43 36.09 L 3.28 33.26 L 3.57 30.46 L 4.75 27.91 L 6.60 25.76 L 8.53 23.69 L 10.48 21.62 L 12.43 19.58 L 14.38 17.52 L 16.32 15.45 L 18.26 13.38 L 20.42 11.62 L 23.16 10.89 L 25.90 10.17 L 28.63 9.41 L 31.37 8.67 L 34.10 7.91 L 36.84 7.18 L 39.57 6.44 L 42.31 5.70 L 45.04 4.95 L 47.78 4.21 L 50.51 3.47 L 53.22 3.00 L 55.71 4.34 L 58.21 5.69 L 60.71 7.02 L 63.21 8.37 L 65.70 9.71 L 68.20 11.05 L 70.69 12.40 L 73.20 13.73 L 75.70 15.06 L 78.19 16.41 L 80.69 17.75 L 83.18 19.10 L 85.67 20.46 L 88.17 21.79 L 90.58 23.27 L 92.71 25.15 L 94.59 27.22 L 95.79 29.78 L 96.50 32.52 L 96.72 35.34 L 96.51 38.16 L 95.79 40.83 L 94.20 43.18 L 92.61 45.52 L 91.02 47.87 L 89.43 50.22 L 87.85 52.56 L 86.26 54.91 L 84.67 57.26 L 83.08 59.61 L 81.49 61.95 L 79.90 64.30 L 78.31 66.65 L 76.72 69.00 L 75.13 71.34 L 73.54 73.69 L 71.95 76.04 L 70.37 78.39 L 68.78 80.73 L 67.19 83.08 L 65.60 85.43 L 64.01 87.77 L 63.12 89.06 L 62.05 90.36 L 60.11 92.36 L 57.43 94.50 L 54.18 96.23 L 50.50 97.00 L 46.97 96.33 L 43.79 94.54 L 41.16 92.28 L 39.27 90.24 L 38.35 89.07 L 37.11 87.42 L 35.41 85.16 L 33.70 82.89 L 32.00 80.63 L 30.29 78.36 L 28.59 76.10 L 26.89 73.83 L 25.18 71.57 L 23.48 69.30 L 21.77 67.04 L 20.07 64.77 L 18.36 62.51 L 16.66 60.24 L 14.95 57.98 L 13.25 55.72 L 11.54 53.45 L 9.84 51.19 L 8.13 48.92 L 6.43 46.66 L 4.72 44.39 L 3.92 41.73 L 3.59 38.92 L 3.43 36.09 Z" fill="#243524" stroke="#3d5c3d" stroke-width="0.5" data-segment="outfield_outer" />
    <path d="M 50.25 92.03 L 47.04 91.31 L 44.16 89.60 L 41.80 87.51 L 40.17 85.71 L 39.47 84.81 L 38.12 83.01 L 36.55 80.93 L 34.97 78.85 L 33.40 76.77 L 31.83 74.69 L 30.26 72.61 L 28.68 70.52 L 27.11 68.44 L 25.54 66.36 L 23.97 64.28 L 22.40 62.20 L 20.82 60.12 L 19.25 58.04 L 17.68 55.96 L 16.11 53.88 L 14.54 51.80 L 12.96 49.72 L 11.39 47.63 L 9.82 45.55 L 8.72 44.06 L 8.21 42.89 L 7.42 40.62 L 6.77 37.64 L 6.66 34.32 L 7.49 31.05 L 9.21 28.68 L 10.93 26.73 L 12.66 24.77 L 14.39 22.82 L 16.11 20.86 L 17.84 18.91 L 19.57 16.96 L 21.59 15.46 L 24.09 14.71 L 26.58 13.96 L 29.08 13.21 L 31.58 12.47 L 34.08 11.72 L 36.58 10.97 L 39.08 10.22 L 41.57 9.47 L 44.07 8.72 L 46.57 7.98 L 49.07 7.23 L 51.57 6.48 L 53.15 6.06 L 53.78 6.43 L 55.05 7.19 L 56.87 8.26 L 59.15 9.61 L 61.81 11.19 L 64.77 12.94 L 67.93 14.81 L 71.21 16.75 L 74.52 18.72 L 77.78 20.65 L 80.91 22.50 L 83.81 24.22 L 86.40 25.76 L 88.60 27.06 L 90.32 28.08 L 91.47 28.77 L 92.00 29.09 L 92.92 30.09 L 94.01 32.00 L 94.75 34.58 L 94.61 37.57 L 93.09 40.75 L 91.34 43.12 L 89.84 45.25 L 88.33 47.38 L 86.83 49.51 L 85.33 51.64 L 83.82 53.77 L 82.32 55.90 L 80.81 58.04 L 79.31 60.17 L 77.81 62.30 L 76.30 64.43 L 74.80 66.56 L 73.30 68.69 L 71.79 70.82 L 70.29 72.95 L 68.78 75.08 L 67.28 77.21 L 65.78 79.34 L 64.27 81.47 L 62.77 83.60 L 61.90 84.83 L 60.93 86.01 L 59.14 87.85 L 56.66 89.82 L 53.66 91.39 L 50.25 92.03" fill="none" stroke="#3d5c3d" stroke-width="0.25" opacity="0.4" data-segment="outfield_inner" />
    <path d="M 53.85 51.99 L 50.92 51.39 L 48.25 51.22 L 45.82 51.43 L 43.62 51.96 L 41.64 52.77 L 39.88 53.81 L 38.32 55.03 L 36.95 56.37 L 35.77 57.80 L 34.76 59.25 L 33.92 60.68 L 33.23 62.04 L 32.69 63.28 L 32.27 64.35 L 31.99 65.19 L 31.81 65.77 L 31.75 66.02 L 32.71 67.00 L 33.92 68.21 L 35.14 69.42 L 36.35 70.64 L 37.57 71.85 L 38.78 71.85 L 39.99 73.06 L 41.21 74.28 L 42.42 75.49 L 43.64 76.70 L 44.85 77.92 L 46.06 79.13 L 47.28 80.35 L 47.53 81.83 L 48.02 83.44 L 49.40 84.41 L 51.08 84.34 L 52.37 83.25 L 52.72 81.60 L 52.80 80.14 L 54.02 78.92 L 55.23 77.71 L 56.45 76.49 L 57.66 75.28 L 58.87 74.07 L 60.09 72.85 L 61.30 71.64 L 62.51 71.37 L 63.73 70.15 L 64.94 68.93 L 66.15 67.72 L 67.36 66.50 L 67.90 65.52 L 67.82 65.24 L 67.62 64.61 L 67.29 63.66 L 66.79 62.48 L 66.08 61.12 L 65.14 59.64 L 63.94 58.10 L 62.44 56.57 L 60.62 55.11 L 58.44 53.78 L 55.88 52.64 L 53.85 51.99 Z" fill="#2a3f2a" stroke="#4a6b4a" stroke-width="0.4" data-segment="infield_outer" />
    <path d="M 60.63 71.15 L 59.41 72.36 L 58.20 73.57 L 56.99 74.79 L 55.77 76.00 L 54.56 77.22 L 53.34 78.43 L 52.13 79.64 L 50.59 80.06 L 48.87 80.06 L 47.52 79.17 L 46.31 77.96 L 45.09 76.74 L 43.88 75.53 L 42.67 74.32 L 41.45 73.10 L 40.24 71.89 L 39.03 70.67 L 40.23 69.46 L 40.98 68.27 L 41.09 66.54 L 42.30 65.32 L 43.51 64.11 L 44.73 62.89 L 45.94 61.68 L 47.16 60.47 L 48.37 59.25 L 50.04 59.14 L 51.65 59.39 L 52.87 60.60 L 54.09 61.81 L 55.30 63.02 L 56.52 64.23 L 57.74 65.44 L 58.95 66.65 L 58.75 68.16 L 59.79 69.56 L 60.63 71.15" fill="none" stroke="#4a6b4a" stroke-width="0.25" opacity="0.5" data-segment="infield_inner" />
    <path d="M 50.07 83.11 L 48.17 81.21 L 46.27 79.31 L 44.38 77.41 L 42.48 75.51 L 40.58 73.61 L 38.68 71.71 L 36.78 69.81 L 34.88 67.91 L 32.98 66.01 L 31.09 64.11 L 29.19 62.21 L 27.29 60.31 L 25.39 58.41 L 23.49 56.52 L 21.59 54.62 L 19.69 52.72 L 17.79 50.82 L 15.90 48.92 L 14.00 47.02 L 12.10 45.12 L 10.20 43.22 L 8.30 41.32 L 6.40 39.42 L 4.50 37.52 L 3.52 35.55 L 5.42 37.44 L 7.32 39.34 L 9.22 41.24 L 11.12 43.14 L 13.02 45.04 L 14.92 46.94 L 16.82 48.84 L 18.71 50.74 L 20.61 52.64 L 22.51 54.54 L 24.41 56.44 L 26.31 58.34 L 28.21 60.24 L 30.11 62.13 L 32.01 64.03 L 33.90 65.93 L 35.80 67.83 L 37.70 69.73 L 39.60 71.63 L 41.50 73.53 L 43.40 75.43 L 45.30 77.33 L 47.19 79.23 L 49.09 81.13 L 50.99 81.19 L 52.89 79.29 L 54.79 77.39 L 56.70 75.50 L 58.60 73.60 L 60.50 71.70 L 62.40 69.80 L 64.30 67.91 L 66.20 66.01 L 68.10 64.11 L 70.00 62.21 L 71.90 60.32 L 73.80 58.42 L 75.70 56.52 L 77.60 54.62 L 79.50 52.73 L 81.40 50.83 L 83.31 48.93 L 85.21 47.03 L 87.11 45.14 L 89.01 43.24 L 90.91 41.34 L 92.81 39.44 L 94.71 37.55 L 96.61 35.65 L 95.69 37.57 L 93.79 39.47 L 91.89 41.36 L 89.99 43.26 L 88.09 45.16 L 86.19 47.06 L 84.28 48.95 L 82.38 50.85 L 80.48 52.75 L 78.58 54.65 L 76.68 56.54 L 74.78 58.44 L 72.88 60.34 L 70.98 62.24 L 69.08 64.13 L 67.18 66.03 L 65.28 67.93 L 63.38 69.83 L 61.48 71.72 L 59.58 73.62 L 57.67 75.52 L 55.77 77.42 L 53.87 79.31 L 51.97 81.21 L 50.07 83.11" fill="none" stroke="#4a6b4a" stroke-width="0.3" opacity="0.6" data-segment="foul_lines" />
    <path d="M 50.79 81.86 L 50.75 81.89 L 50.72 81.93 L 50.68 81.96 L 50.65 82.00 L 50.61 82.03 L 50.58 82.07 L 50.54 82.10 L 50.51 82.14 L 50.47 82.17 L 50.44 82.21 L 50.40 82.24 L 50.37 82.28 L 50.33 82.31 L 50.30 82.35 L 50.26 82.38 L 50.23 82.42 L 50.19 82.45 L 50.16 82.49 L 50.12 82.52 L 50.09 82.56 L 50.05 82.57 L 50.02 82.53 L 49.98 82.50 L 49.95 82.46 L 49.91 82.43 L 49.88 82.39 L 49.84 82.36 L 49.81 82.32 L 49.77 82.28 L 49.74 82.25 L 49.70 82.21 L 49.67 82.18 L 49.63 82.14 L 49.60 82.11 L 49.56 82.07 L 49.53 82.04 L 49.49 82.00 L 49.46 81.97 L 49.42 81.93 L 49.39 81.90 L 49.35 81.86 L 49.35 81.81 L 49.35 81.76 L 49.35 81.71 L 49.35 81.66 L 49.35 81.61 L 49.35 81.57 L 49.35 81.52 L 49.35 81.47 L 49.35 81.42 L 49.35 81.37 L 49.35 81.32 L 49.35 81.27 L 49.35 81.22 L 49.35 81.17 L 49.37 81.14 L 49.42 81.14 L 49.47 81.14 L 49.52 81.14 L 49.57 81.14 L 49.62 81.14 L 49.67 81.14 L 49.72 81.14 L 49.77 81.14 L 49.82 81.14 L 49.87 81.14 L 49.92 81.14 L 49.97 81.14 L 50.02 81.14 L 50.07 81.14 L 50.12 81.14 L 50.17 81.14 L 50.22 81.14 L 50.27 81.14 L 50.32 81.14 L 50.37 81.14 L 50.41 81.14 L 50.46 81.14 L 50.51 81.14 L 50.56 81.14 L 50.61 81.14 L 50.66 81.14 L 50.71 81.14 L 50.76 81.14 L 50.79 81.16 L 50.79 81.21 L 50.79 81.26 L 50.79 81.31 L 50.79 81.36 L 50.79 81.41 L 50.79 81.46 L 50.79 81.51 L 50.79 81.56 L 50.79 81.61 L 50.79 81.66 L 50.79 81.71 L 50.79 81.76 L 50.79 81.81 L 50.79 81.86 Z" fill="#e5e5e5" stroke="#ffffff" stroke-width="0.3" data-segment="home_plate" />
  <text x="50" y="98" text-anchor="middle" font-size="3" fill="#737373" font-family="monospace">LF 330' · CF 396' · RF 330'</text>
</svg>
