<?xml version="1.0" encoding="UTF-8"?>
<svg xmlns="http://www.w3.org/2000/svg" viewBox="0 0 100 100" role="img" aria-label="astros ballpark">
  <title>astros</title>
  <rect width="100" height="100" fill="#1a2e1a" />
    <path d="M 94.69 43.21 L 92.94 41.09 L 91.19 38.97 L 89.44 36.85 L 87.70 34.72 L 85.95 32.60 L 84.18 30.49 L 82.42 28.38 L 80.66 26.26 L 78.91 24.14 L 77.15 22.03 L 74.84 20.86 L 72.94 18.91 L 71.20 16.78 L 69.45 14.65 L 67.71 12.53 L 65.84 10.51 L 64.20 8.35 L 62.43 6.30 L 60.15 4.78 L 57.64 3.66 L 54.97 3.06 L 52.30 3.00 L 50.81 5.28 L 48.13 4.66 L 45.56 5.12 L 43.31 6.71 L 41.31 8.58 L 39.19 10.33 L 37.03 12.03 L 34.88 13.75 L 32.73 15.46 L 30.58 17.18 L 28.42 18.88 L 26.26 20.59 L 24.12 22.31 L 22.00 24.03 L 22.45 26.75 L 22.26 29.23 L 20.21 31.07 L 18.17 32.90 L 16.15 34.78 L 14.19 36.70 L 12.22 38.62 L 10.24 40.54 L 8.27 42.45 L 6.30 44.37 L 5.31 46.12 L 7.25 48.07 L 9.19 50.02 L 11.14 51.96 L 13.08 53.91 L 15.02 55.86 L 16.96 57.80 L 18.61 59.86 L 18.40 62.61 L 18.20 65.35 L 19.68 67.55 L 21.43 69.68 L 23.18 71.80 L 24.93 73.92 L 26.68 76.04 L 28.43 78.17 L 30.18 80.29 L 31.93 82.41 L 33.68 84.53 L 35.43 86.65 L 37.18 88.78 L 38.93 90.90 L 40.23 92.48 L 41.36 93.56 L 43.70 95.26 L 47.01 96.71 L 49.94 97.00 L 52.33 95.77 L 55.91 93.94 L 58.56 92.58 L 59.00 92.27 L 59.67 91.41 L 60.87 89.87 L 62.50 87.77 L 64.47 85.24 L 66.69 82.40 L 69.06 79.37 L 71.49 76.29 L 73.88 73.26 L 76.15 70.41 L 78.19 67.87 L 79.92 65.77 L 81.23 64.21 L 82.25 63.12 L 84.39 59.78 L 85.23 56.54 L 85.33 54.17 L 85.53 53.13 L 87.49 51.20 L 89.45 49.27 L 91.41 47.34 L 93.36 45.41 L 94.69 43.21 Z" fill="#243524" stroke="#3d5c3d" stroke-width="0.5" data-segment="outfield_outer" />
    <path d="M 49.45 94.93 L 46.14 94.08 L 43.56 92.20 L 41.83 90.23 L 41.10 89.16 L 39.74 87.46 L 38.14 85.48 L 36.53 83.50 L 34.93 81.51 L 33.33 79.53 L 31.73 77.55 L 30.13 75.56 L 28.53 73.58 L 26.93 71.60 L 25.33 69.61 L 23.72 67.63 L 22.12 65.65 L 21.32 63.41 L 21.51 60.87 L 21.33 58.47 L 19.52 56.67 L 17.72 54.87 L 15.91 53.07 L 14.11 51.27 L 12.30 49.47 L 10.50 47.67 L 10.66 45.83 L 12.41 43.98 L 14.15 42.12 L 15.90 40.26 L 17.64 38.40 L 19.57 36.74 L 21.55 35.14 L 23.54 33.54 L 25.52 31.94 L 26.60 30.11 L 25.61 27.76 L 26.19 25.80 L 28.15 24.17 L 30.11 22.54 L 32.07 20.91 L 34.04 19.28 L 36.00 17.65 L 37.96 16.03 L 39.92 14.40 L 41.88 12.76 L 43.82 11.12 L 45.82 9.55 L 48.08 8.52 L 50.62 8.82 L 52.47 7.46 L 54.13 5.65 L 56.69 6.28 L 59.16 7.35 L 61.06 8.75 L 62.25 10.94 L 63.72 13.00 L 65.36 14.95 L 67.01 16.90 L 68.65 18.85 L 70.29 20.80 L 71.93 22.75 L 73.61 24.61 L 75.75 25.12 L 77.40 27.07 L 79.04 29.01 L 80.69 30.96 L 82.33 32.91 L 83.98 34.86 L 85.62 36.80 L 87.27 38.75 L 88.92 40.70 L 90.56 42.64 L 89.60 44.48 L 87.79 46.28 L 85.99 48.09 L 84.19 49.89 L 83.00 51.19 L 82.85 52.59 L 82.39 55.14 L 81.46 58.21 L 79.91 61.19 L 78.53 62.80 L 77.49 64.02 L 76.05 65.80 L 74.27 68.04 L 72.25 70.60 L 70.09 73.38 L 67.86 76.26 L 65.66 79.11 L 63.58 81.82 L 61.70 84.28 L 60.12 86.35 L 58.91 87.93 L 58.17 88.90 L 57.96 89.19 L 57.16 90.30 L 55.36 92.25 L 52.74 94.11 L 49.45 94.93" fill="none" stroke="#3d5c3d" stroke-width="0.25" opacity="0.4" data-segment="outfield_inner" />
    <path d="M 67.79 71.90 L 67.71 71.71 L 67.47 71.17 L 67.07 70.33 L 66.50 69.25 L 65.77 67.98 L 64.86 66.59 L 63.79 65.13 L 62.54 63.65 L 61.11 62.21 L 59.50 60.86 L 57.70 59.67 L 55.73 58.68 L 53.56 57.95 L 51.21 57.54 L 48.67 57.50 L 46.21 57.84 L 43.96 58.49 L 41.89 59.41 L 40.02 60.54 L 38.33 61.82 L 36.84 63.21 L 35.52 64.65 L 34.38 66.08 L 33.42 67.45 L 32.64 68.72 L 32.02 69.81 L 31.58 70.68 L 31.30 71.28 L 31.18 71.55 L 32.11 72.47 L 33.31 73.65 L 34.51 74.82 L 35.71 76.00 L 36.91 77.17 L 38.12 78.35 L 39.32 79.52 L 40.52 80.70 L 41.72 81.87 L 42.92 83.05 L 44.13 84.23 L 45.33 85.40 L 45.97 86.61 L 45.62 88.23 L 45.96 89.85 L 46.96 91.19 L 48.44 91.96 L 50.10 92.04 L 51.64 91.40 L 52.76 90.16 L 53.25 88.57 L 53.01 86.92 L 53.54 85.64 L 54.75 84.47 L 55.96 83.30 L 57.17 82.14 L 58.38 80.97 L 59.59 79.80 L 60.80 78.64 L 62.01 77.47 L 63.22 76.30 L 64.43 75.14 L 65.64 73.97 L 66.85 72.80 L 67.79 71.90 Z" fill="#2a3f2a" stroke="#4a6b4a" stroke-width="0.4" data-segment="infield_outer" />
    <path d="M 51.91 66.09 L 53.11 67.26 L 54.31 68.44 L 55.52 69.61 L 56.72 70.78 L 57.92 71.96 L 58.81 73.21 L 58.77 74.88 L 59.48 76.38 L 58.39 77.56 L 57.18 78.74 L 55.98 79.91 L 54.78 81.09 L 53.57 82.26 L 52.37 83.43 L 51.16 84.61 L 49.62 84.53 L 47.97 84.80 L 46.75 83.71 L 45.55 82.53 L 44.34 81.36 L 43.14 80.18 L 41.94 79.01 L 40.73 77.84 L 39.53 76.66 L 40.00 75.26 L 40.15 73.60 L 40.61 72.22 L 41.82 71.04 L 43.02 69.87 L 44.23 68.70 L 45.43 67.52 L 46.63 66.35 L 48.27 65.75 L 49.95 65.78 L 51.91 66.09" fill="none" stroke="#4a6b4a" stroke-width="0.25" opacity="0.5" data-segment="infield_inner" />
    <path d="M 94.69 43.11 L 93.79 44.00 L 92.90 44.90 L 92.00 45.80 L 91.10 46.69 L 90.21 47.59 L 89.31 48.48 L 88.41 49.38 L 87.52 50.28 L 86.62 51.17 L 85.72 52.07 L 84.82 52.96 L 83.93 53.86 L 83.03 54.75 L 82.13 55.65 L 81.24 56.55 L 80.34 57.44 L 79.44 58.34 L 78.54 59.23 L 77.65 60.13 L 76.75 61.02 L 75.85 61.92 L 74.96 62.82 L 74.06 63.71 L 73.16 64.61 L 72.26 65.50 L 71.37 66.40 L 70.47 67.30 L 69.57 68.19 L 68.68 69.09 L 67.78 69.98 L 66.88 70.88 L 65.99 71.77 L 65.09 72.67 L 64.19 73.57 L 63.29 74.46 L 62.40 75.36 L 61.50 76.25 L 60.60 77.15 L 59.71 78.04 L 58.81 78.94 L 57.91 79.84 L 57.01 80.73 L 56.12 81.63 L 55.22 82.52 L 54.32 83.42 L 53.43 84.32 L 52.53 85.21 L 51.63 86.11 L 50.73 87.00 L 49.84 87.90 L 48.94 87.77 L 48.04 86.87 L 47.15 85.97 L 46.25 85.08 L 45.36 84.18 L 44.46 83.28 L 43.56 82.39 L 42.67 81.49 L 41.77 80.59 L 40.87 79.70 L 39.98 78.80 L 39.08 77.90 L 38.19 77.01 L 37.29 76.11 L 36.39 75.21 L 35.50 74.32 L 34.60 73.42 L 33.70 72.52 L 32.81 71.63 L 31.91 70.73 L 31.02 69.83 L 30.12 68.94 L 29.22 68.04 L 28.33 67.14 L 27.43 66.25 L 26.53 65.35 L 25.64 64.45 L 24.74 63.56 L 23.85 62.66 L 22.95 61.76 L 22.05 60.87 L 21.16 59.97 L 20.26 59.07 L 19.36 58.18 L 18.47 57.28 L 17.57 56.38 L 16.68 55.49 L 15.78 54.59 L 14.88 53.69 L 13.99 52.80 L 13.09 51.90 L 12.19 51.01 L 11.30 50.11 L 10.40 49.21 L 9.51 48.32 L 8.61 47.42 L 7.71 46.52 L 6.82 45.63 L 5.92 44.73" fill="none" stroke="#4a6b4a" stroke-width="0.3" opacity="0.6" data-segment="foul_lines" />
    <path d="M 50.17 87.54 L 50.13 87.57 L 50.10 87.61 L 50.06 87.64 L 50.03 87.68 L 49.99 87.71 L 49.96 87.74 L 49.92 87.78 L 49.89 87.81 L 49.85 87.85 L 49.82 87.88 L 49.78 87.92 L 49.75 87.95 L 49.71 87.99 L 49.68 88.02 L 49.64 88.06 L 49.61 88.09 L 49.57 88.13 L 49.54 88.16 L 49.50 88.20 L 49.47 88.23 L 49.43 88.24 L 49.40 88.21 L 49.36 88.17 L 49.33 88.14 L 49.29 88.10 L 49.26 88.06 L 49.23 88.03 L 49.19 87.99 L 49.16 87.96 L 49.12 87.92 L 49.09 87.89 L 49.05 87.85 L 49.02 87.82 L 48.98 87.78 L 48.95 87.75 L 48.91 87.71 L 48.88 87.68 L 48.84 87.64 L 48.81 87.61 L 48.78 87.57 L 48.74 87.54 L 48.74 87.49 L 48.74 87.44 L 48.74 87.39 L 48.74 87.34 L 48.74 87.29 L 48.74 87.25 L 48.74 87.20 L 48.74 87.15 L 48.74 87.10 L 48.74 87.05 L 48.74 87.00 L 48.74 86.95 L 48.74 86.90 L 48.74 86.85 L 48.76 86.82 L 48.81 86.82 L 48.86 86.82 L 48.91 86.82 L 48.96 86.82 L 49.01 86.82 L 49.06 86.82 L 49.11 86.82 L 49.15 86.82 L 49.20 86.82 L 49.25 86.82 L 49.30 86.82 L 49.35 86.82 L 49.40 86.82 L 49.45 86.82 L 49.50 86.82 L 49.55 86.82 L 49.60 86.82 L 49.65 86.82 L 49.70 86.82 L 49.75 86.82 L 49.79 86.82 L 49.84 86.82 L 49.89 86.82 L 49.94 86.82 L 49.99 86.82 L 50.04 86.82 L 50.09 86.82 L 50.14 86.82 L 50.17 86.85 L 50.17 86.90 L 50.17 86.95 L 50.17 86.99 L 50.17 87.04 L 50.17 87.09 L 50.17 87.14 L 50.17 87.19 L 50.17 87.24 L 50.17 87.29 L 50.17 87.34 L 50.17 87.39 L 50.17 87.44 L 50.17 87.49 L 50.17 87.54 Z" fill="#e5e5e5" stroke="#ffffff" stroke-width="0.3" data-segment="home_plate" />
  <text x="50" y="98" text-anchor="middle" font-size="3" fill="#737373" font-family="monospace">LF 315' · CF 409' · RF 326'</text>
</svg>
