<?xml version="1.0" encoding="UTF-8"?>
<svg xmlns="http://www.w3.org/2000/svg" viewBox="0 0 100 100" role="img" aria-label="athletics ballpark">
  <title>athletics</title>
  <rect width="100" height="100" fill="#1a2e1a" />
    <path d="M 55.31 96.23 L 57.45 94.32 L 59.60 92.40 L 61.74 90.49 L 63.89 88.58 L 64.28 88.35 L 64.94 88.12 L 66.00 87.72 L 67.39 87.10 L 69.07 86.26 L 70.96 85.15 L 73.02 83.77 L 75.17 82.08 L 77.37 80.06 L 79.55 77.70 L 81.66 74.95 L 83.64 71.81 L 85.42 68.25 L 86.94 64.23 L 88.16 59.75 L 89.00 54.77 L 89.97 50.57 L 91.66 48.24 L 93.35 45.91 L 95.03 43.59 L 96.72 41.26 L 97.00 38.75 L 95.94 36.08 L 94.77 33.45 L 93.60 30.82 L 92.44 28.19 L 91.26 25.57 L 90.08 22.94 L 88.03 21.17 L 85.38 20.06 L 82.72 18.95 L 80.08 17.82 L 77.47 16.62 L 75.10 14.99 L 72.79 13.29 L 70.45 11.61 L 68.11 9.93 L 65.77 8.26 L 63.24 6.91 L 60.64 5.69 L 58.03 4.47 L 55.31 3.63 L 52.44 3.63 L 49.56 3.64 L 46.68 3.66 L 43.81 3.75 L 41.19 4.86 L 38.60 6.11 L 36.05 7.44 L 33.57 8.88 L 31.18 10.49 L 28.79 12.09 L 26.40 13.69 L 24.00 15.27 L 21.49 16.65 L 18.83 17.75 L 16.18 18.87 L 13.54 20.02 L 10.98 21.30 L 9.71 23.84 L 8.52 26.46 L 7.34 29.09 L 6.17 31.71 L 4.99 34.34 L 3.85 36.98 L 3.00 39.59 L 4.77 41.86 L 6.53 44.13 L 8.30 46.40 L 10.06 48.67 L 11.83 50.94 L 12.72 55.39 L 13.60 60.32 L 14.85 64.76 L 16.40 68.73 L 18.20 72.26 L 20.19 75.36 L 22.31 78.07 L 24.49 80.40 L 26.69 82.39 L 28.84 84.05 L 30.88 85.40 L 32.76 86.48 L 34.41 87.31 L 35.77 87.90 L 36.80 88.29 L 37.41 88.50 L 37.97 88.89 L 40.12 90.80 L 42.26 92.72 L 44.41 94.63 L 46.62 96.37 L 49.50 96.32 L 52.37 96.28 L 55.25 96.23 Z" fill="#243524" stroke="#3d5c3d" stroke-width="0.5" data-segment="outfield_outer" />
    <path d="M 54.84 92.03 L 56.78 90.30 L 58.73 88.56 L 60.68 86.83 L 62.62 85.09 L 63.00 84.87 L 63.59 84.67 L 64.54 84.30 L 65.80 83.75 L 67.32 82.98 L 69.03 81.98 L 70.89 80.74 L 72.84 79.21 L 74.84 77.39 L 76.82 75.25 L 78.73 72.78 L 80.53 69.94 L 82.15 66.72 L 83.55 63.09 L 84.66 59.04 L 85.44 54.55 L 86.22 50.58 L 87.60 48.37 L 88.98 46.15 L 90.36 43.94 L 91.74 41.72 L 92.53 39.44 L 91.61 37.00 L 90.53 34.63 L 89.47 32.25 L 88.44 29.85 L 87.37 27.47 L 86.29 25.10 L 84.26 23.67 L 81.87 22.63 L 79.47 21.61 L 77.08 20.56 L 74.73 19.43 L 72.60 17.92 L 70.47 16.42 L 68.35 14.90 L 66.24 13.37 L 64.10 11.88 L 61.78 10.68 L 59.41 9.60 L 57.05 8.48 L 54.56 7.86 L 51.95 7.86 L 49.34 7.86 L 46.73 7.88 L 44.13 7.98 L 41.77 9.08 L 39.42 10.22 L 37.10 11.42 L 34.87 12.76 L 32.72 14.23 L 30.53 15.66 L 28.36 17.11 L 26.21 18.57 L 23.91 19.79 L 21.50 20.80 L 19.11 21.84 L 16.72 22.88 L 14.41 24.07 L 13.31 26.43 L 12.23 28.81 L 11.16 31.19 L 10.12 33.58 L 9.04 35.95 L 7.97 38.33 L 7.39 40.67 L 8.99 42.73 L 10.60 44.79 L 12.20 46.85 L 13.80 48.91 L 15.40 50.97 L 16.15 55.18 L 16.97 59.62 L 18.12 63.62 L 19.54 67.20 L 21.18 70.38 L 22.99 73.17 L 24.92 75.61 L 26.91 77.71 L 28.90 79.50 L 30.84 80.99 L 32.69 82.21 L 34.39 83.18 L 35.87 83.92 L 37.10 84.46 L 38.02 84.80 L 38.57 84.98 L 39.12 85.39 L 41.06 87.12 L 43.01 88.86 L 44.96 90.60 L 46.98 92.14 L 49.59 92.11 L 52.19 92.07 L 54.80 92.04" fill="none" stroke="#3d5c3d" stroke-width="0.25" opacity="0.4" data-segment="outfield_inner" />
    <path d="M 50.09 51.98 L 47.51 52.20 L 45.14 52.77 L 42.99 53.64 L 41.04 54.75 L 39.30 56.04 L 37.76 57.45 L 36.42 58.92 L 35.27 60.39 L 34.30 61.80 L 33.51 63.11 L 32.91 64.23 L 32.47 65.13 L 32.21 65.73 L 32.10 65.98 L 33.13 67.04 L 34.30 68.29 L 35.51 69.49 L 36.72 70.70 L 37.93 71.90 L 39.15 73.11 L 40.36 74.32 L 41.57 75.52 L 42.78 76.73 L 43.99 77.93 L 45.20 79.14 L 46.41 80.34 L 46.98 81.60 L 46.43 83.21 L 46.61 84.89 L 47.49 86.34 L 48.91 87.28 L 50.58 87.52 L 52.21 87.03 L 53.46 85.89 L 54.12 84.32 L 54.04 82.63 L 53.25 81.13 L 54.31 79.92 L 55.52 78.71 L 56.73 77.50 L 57.94 76.29 L 59.15 75.08 L 60.36 73.87 L 61.56 72.67 L 62.77 71.46 L 63.98 70.25 L 65.19 69.04 L 66.38 67.82 L 67.47 66.50 L 67.83 65.93 L 67.64 65.49 L 67.29 64.71 L 66.77 63.68 L 66.07 62.43 L 65.19 61.04 L 64.13 59.56 L 62.88 58.07 L 61.44 56.61 L 59.81 55.25 L 57.97 54.05 L 55.93 53.07 L 53.68 52.37 L 51.22 52.02 L 50.09 51.98 Z" fill="#2a3f2a" stroke="#4a6b4a" stroke-width="0.4" data-segment="infield_outer" />
    <path d="M 51.34 79.87 L 49.65 79.79 L 48.19 79.59 L 46.99 78.38 L 45.78 77.18 L 44.57 75.97 L 43.36 74.76 L 42.15 73.55 L 40.94 72.34 L 40.21 71.10 L 40.81 69.52 L 40.93 67.90 L 42.15 66.70 L 43.37 65.51 L 44.59 64.31 L 45.81 63.11 L 47.03 61.92 L 48.25 60.72 L 49.73 60.49 L 51.42 60.28 L 52.67 61.36 L 53.91 62.54 L 55.14 63.72 L 56.38 64.90 L 57.61 66.08 L 58.85 67.26 L 60.08 68.44 L 60.19 70.09 L 60.30 71.58 L 59.09 72.79 L 57.88 74.00 L 56.68 75.21 L 55.47 76.42 L 54.26 77.63 L 53.05 78.84 L 51.34 79.87" fill="none" stroke="#4a6b4a" stroke-width="0.25" opacity="0.5" data-segment="infield_inner" />
    <path d="M 50.12 82.73 L 48.25 80.86 L 46.38 78.99 L 44.52 77.13 L 42.65 75.26 L 40.78 73.39 L 38.92 71.52 L 37.05 69.66 L 35.18 67.79 L 33.32 65.92 L 31.45 64.05 L 29.58 62.19 L 27.72 60.32 L 25.85 58.45 L 23.98 56.58 L 22.12 54.72 L 20.25 52.85 L 18.38 50.98 L 16.52 49.11 L 14.65 47.25 L 12.78 45.38 L 10.92 43.51 L 9.05 41.64 L 7.18 39.78 L 5.32 37.91 L 4.29 35.88 L 6.15 37.74 L 8.02 39.61 L 9.89 41.48 L 11.75 43.34 L 13.62 45.21 L 15.49 47.08 L 17.35 48.95 L 19.22 50.81 L 21.09 52.68 L 22.95 54.55 L 24.82 56.42 L 26.69 58.28 L 28.55 60.15 L 30.42 62.02 L 32.29 63.89 L 34.15 65.75 L 36.02 67.62 L 37.89 69.49 L 39.75 71.36 L 41.62 73.22 L 43.49 75.09 L 45.35 76.96 L 47.22 78.83 L 49.09 80.69 L 50.95 80.89 L 52.82 79.02 L 54.69 77.16 L 56.56 75.29 L 58.43 73.42 L 60.30 71.56 L 62.17 69.69 L 64.03 67.83 L 65.90 65.96 L 67.77 64.10 L 69.64 62.23 L 71.51 60.36 L 73.38 58.50 L 75.25 56.63 L 77.11 54.77 L 78.98 52.90 L 80.85 51.04 L 82.72 49.17 L 84.59 47.30 L 86.46 45.44 L 88.33 43.57 L 90.19 41.71 L 92.06 39.84 L 93.93 37.98 L 95.80 36.11 L 94.96 37.95 L 93.09 39.82 L 91.22 41.68 L 89.35 43.55 L 87.49 45.41 L 85.62 47.28 L 83.75 49.15 L 81.88 51.01 L 80.01 52.88 L 78.14 54.74 L 76.27 56.61 L 74.41 58.47 L 72.54 60.34 L 70.67 62.21 L 68.80 64.07 L 66.93 65.94 L 65.06 67.80 L 63.20 69.67 L 61.33 71.53 L 59.46 73.40 L 57.59 75.27 L 55.72 77.13 L 53.85 79.00 L 51.99 80.86 L 50.12 82.73" fill="none" stroke="#4a6b4a" stroke-width="0.3" opacity="0.6" data-segment="foul_lines" />
    <path d="M 50.84 81.47 L 50.80 81.51 L 50.77 81.54 L 50.73 81.58 L 50.70 81.61 L 50.66 81.65 L 50.63 81.68 L 50.59 81.72 L 50.55 81.75 L 50.52 81.79 L 50.48 81.82 L 50.45 81.86 L 50.41 81.89 L 50.38 81.93 L 50.34 81.96 L 50.31 82.00 L 50.27 82.03 L 50.24 82.07 L 50.20 82.10 L 50.17 82.14 L 50.13 82.18 L 50.09 82.19 L 50.06 82.15 L 50.02 82.11 L 49.99 82.08 L 49.95 82.04 L 49.92 82.01 L 49.88 81.97 L 49.85 81.94 L 49.81 81.90 L 49.78 81.87 L 49.74 81.83 L 49.71 81.79 L 49.67 81.76 L 49.64 81.72 L 49.60 81.69 L 49.57 81.65 L 49.53 81.62 L 49.50 81.58 L 49.46 81.55 L 49.43 81.51 L 49.39 81.48 L 49.39 81.43 L 49.39 81.38 L 49.39 81.33 L 49.39 81.28 L 49.39 81.23 L 49.39 81.18 L 49.39 81.13 L 49.39 81.08 L 49.39 81.03 L 49.39 80.98 L 49.39 80.93 L 49.39 80.88 L 49.39 80.83 L 49.39 80.78 L 49.41 80.75 L 49.46 80.75 L 49.51 80.75 L 49.56 80.75 L 49.61 80.75 L 49.66 80.75 L 49.71 80.75 L 49.76 80.75 L 49.81 80.75 L 49.86 80.75 L 49.91 80.75 L 49.96 80.75 L 50.01 80.75 L 50.06 80.75 L 50.11 80.75 L 50.16 80.75 L 50.21 80.75 L 50.26 80.75 L 50.31 80.75 L 50.36 80.75 L 50.41 80.75 L 50.46 80.75 L 50.51 80.75 L 50.56 80.75 L 50.61 80.75 L 50.66 80.75 L 50.71 80.75 L 50.76 80.75 L 50.81 80.75 L 50.84 80.77 L 50.84 80.82 L 50.84 80.87 L 50.84 80.92 L 50.84 80.97 L 50.84 81.02 L 50.84 81.07 L 50.84 81.12 L 50.84 81.17 L 50.84 81.22 L 50.84 81.27 L 50.84 81.32 L 50.84 81.37 L 50.84 81.42 L 50.84 81.47 Z" fill="#e5e5e5" stroke="#ffffff" stroke-width="0.3" data-segment="home_plate" />
  <text x="50" y="98" text-anchor="middle" font-size="3" fill="#737373" font-family="monospace">LF 330' · CF 403' · RF 325'</text>
</svg>
