<?xml version="1.0" encoding="UTF-8"?>
<svg xmlns="http://www.w3.org/2000/svg" viewBox="0 0 100 100" role="img" aria-label="blue_jays ballpark">
  <title>blue_jays</title>
  <rect width="100" height="100" fill="#1a2e1a" />
    <path d="M 3.00 38.19 L 4.74 35.70 L 6.44 33.19 L 8.18 30.71 L 9.93 28.22 L 11.66 25.73 L 13.39 23.24 L 15.12 20.75 L 16.84 18.24 L 18.75 15.91 L 21.21 14.12 L 23.69 12.38 L 26.16 10.61 L 28.64 8.86 L 31.12 7.12 L 33.81 5.80 L 36.80 5.25 L 39.80 4.81 L 42.82 4.49 L 45.84 4.28 L 48.88 4.19 L 51.91 4.21 L 54.94 4.34 L 57.97 4.58 L 60.98 4.94 L 63.98 5.41 L 66.93 6.06 L 69.49 7.69 L 71.97 9.43 L 74.45 11.18 L 76.93 12.93 L 79.42 14.66 L 81.77 16.57 L 83.53 19.04 L 85.27 21.53 L 87.00 24.02 L 88.73 26.51 L 90.46 29.00 L 92.19 31.50 L 93.93 33.99 L 95.67 36.47 L 97.00 39.03 L 95.32 41.17 L 93.82 44.09 L 93.17 46.67 L 92.59 49.21 L 91.96 51.96 L 91.28 54.88 L 90.53 57.91 L 89.71 61.02 L 88.80 64.17 L 87.80 67.30 L 86.71 70.39 L 85.50 73.39 L 84.17 76.25 L 82.72 78.93 L 81.14 81.39 L 81.78 83.61 L 81.25 85.83 L 79.20 88.07 L 77.15 90.31 L 75.11 92.55 L 73.06 94.79 L 70.86 95.29 L 68.46 93.43 L 67.51 93.31 L 65.46 93.75 L 62.36 94.35 L 58.57 94.99 L 54.50 95.52 L 50.52 95.81 L 46.33 95.70 L 42.28 95.24 L 38.80 94.64 L 36.33 94.12 L 35.31 93.87 L 33.02 95.44 L 30.59 95.02 L 28.20 93.14 L 25.81 91.27 L 23.42 89.40 L 21.03 87.53 L 18.64 85.66 L 19.02 83.12 L 18.17 80.62 L 16.55 78.02 L 15.04 75.20 L 13.64 72.22 L 12.34 69.12 L 11.14 65.95 L 10.05 62.76 L 9.05 59.57 L 8.15 56.45 L 7.34 53.44 L 6.61 50.58 L 5.98 47.92 L 5.42 45.50 L 4.95 43.36 L 3.64 39.98 L 3.00 38.19 Z" fill="#243524" stroke="#3d5c3d" stroke-width="0.5" data-segment="outfield_outer" />
    <path d="M 90.55 44.31 L 91.95 40.65 L 93.02 38.86 L 92.13 37.35 L 90.73 35.37 L 89.27 33.36 L 87.75 31.33 L 86.15 29.30 L 84.49 27.28 L 82.76 25.28 L 80.94 23.33 L 79.05 21.43 L 77.08 19.60 L 75.02 17.86 L 72.88 16.22 L 70.64 14.70 L 68.31 13.31 L 65.89 12.06 L 63.37 10.98 L 60.75 10.07 L 58.02 9.35 L 55.19 8.85 L 52.25 8.56 L 49.22 8.50 L 46.25 8.65 L 43.38 8.99 L 40.60 9.49 L 37.91 10.17 L 35.31 11.01 L 32.80 11.99 L 30.38 13.13 L 28.06 14.40 L 25.83 15.79 L 23.68 17.31 L 21.63 18.94 L 19.67 20.68 L 17.80 22.52 L 16.02 24.44 L 14.34 26.45 L 12.74 28.53 L 11.24 30.68 L 9.83 32.89 L 8.50 35.15 L 7.27 37.46 L 7.34 38.98 L 9.02 41.88 L 9.45 43.89 L 9.86 45.95 L 10.31 48.24 L 10.80 50.73 L 11.34 53.38 L 11.94 56.15 L 12.60 59.00 L 13.34 61.89 L 14.16 64.78 L 15.06 67.65 L 16.06 70.44 L 17.17 73.12 L 18.38 75.66 L 19.71 78.02 L 21.16 80.15 L 23.50 83.11 L 25.68 85.64 L 27.68 87.69 L 29.57 89.31 L 31.42 90.56 L 33.28 91.49 L 35.23 92.15 L 37.32 92.59 L 39.62 92.86 L 42.19 93.03 L 45.09 93.13 L 48.40 93.22 L 51.34 93.19 L 54.54 93.10 L 57.36 92.98 L 59.86 92.80 L 62.10 92.49 L 64.15 92.00 L 66.07 91.27 L 67.92 90.27 L 69.77 88.93 L 71.68 87.21 L 73.72 85.05 L 75.95 82.39 L 78.08 79.65 L 79.48 77.54 L 80.79 75.22 L 82.00 72.74 L 83.14 70.12 L 84.18 67.41 L 85.16 64.63 L 86.05 61.83 L 86.88 59.03 L 87.64 56.27 L 88.33 53.59 L 88.97 51.02 L 89.55 48.59 L 90.08 46.35 L 90.55 44.31" fill="none" stroke="#3d5c3d" stroke-width="0.25" opacity="0.4" data-segment="outfield_inner" />
    <path d="M 68.92 66.39 L 68.75 65.92 L 68.58 65.45 L 68.39 64.98 L 68.19 64.52 L 67.98 64.07 L 67.76 63.62 L 67.53 63.17 L 67.29 62.73 L 67.03 62.30 L 66.76 61.88 L 66.49 61.46 L 66.20 61.05 L 65.90 60.64 L 65.60 60.25 L 65.28 59.86 L 64.95 59.48 L 64.62 59.11 L 64.27 58.74 L 63.91 58.39 L 63.55 58.04 L 63.18 57.71 L 62.80 57.38 L 62.41 57.06 L 62.01 56.76 L 61.61 56.46 L 61.19 56.18 L 60.78 55.90 L 60.35 55.63 L 59.92 55.38 L 59.48 55.14 L 59.03 54.91 L 58.58 54.68 L 58.13 54.48 L 57.67 54.28 L 57.20 54.09 L 56.73 53.92 L 56.26 53.76 L 55.78 53.61 L 55.29 53.47 L 54.81 53.34 L 54.32 53.23 L 53.83 53.13 L 53.34 53.04 L 52.84 52.96 L 52.34 52.90 L 51.84 52.85 L 51.34 52.81 L 50.84 52.79 L 50.34 52.77 L 49.84 52.77 L 49.34 52.79 L 48.84 52.81 L 48.34 52.85 L 47.84 52.90 L 47.34 52.96 L 46.84 53.04 L 46.35 53.13 L 45.86 53.23 L 45.37 53.34 L 44.88 53.47 L 44.40 53.61 L 43.92 53.76 L 43.45 53.92 L 42.98 54.09 L 42.51 54.28 L 42.05 54.48 L 41.60 54.68 L 41.15 54.91 L 40.70 55.14 L 40.26 55.38 L 39.83 55.63 L 39.40 55.90 L 38.99 56.18 L 38.57 56.46 L 38.17 56.76 L 37.77 57.06 L 37.38 57.38 L 37.00 57.71 L 36.63 58.04 L 36.27 58.39 L 35.91 58.74 L 35.56 59.11 L 35.23 59.48 L 34.90 59.86 L 34.58 60.25 L 34.28 60.64 Z" fill="#2a3f2a" stroke="#4a6b4a" stroke-width="0.4" data-segment="infield_outer" />
    <path d="M 33.98 61.05 L 33.69 61.46 L 33.41 61.88 L 33.15 62.30 L 32.89 62.73 L 32.65 63.17 L 32.42 63.62 L 32.20 64.07 L 31.99 64.52 L 31.79 64.98 L 31.60 65.45 L 31.43 65.92 L 33.98 61.05" fill="none" stroke="#4a6b4a" stroke-width="0.25" opacity="0.5" data-segment="infield_inner" />
    <path d="M 50.10 85.73 L 48.19 83.82 L 46.29 81.92 L 44.38 80.01 L 42.47 78.10 L 40.57 76.19 L 38.66 74.28 L 36.75 72.38 L 34.85 70.47 L 32.94 68.56 L 31.03 66.65 L 29.13 64.75 L 27.22 62.84 L 25.31 60.93 L 23.40 59.02 L 21.50 57.11 L 19.59 55.21 L 17.68 53.30 L 15.78 51.39 L 13.87 49.48 L 11.96 47.58 L 10.06 45.67 L 8.15 43.76 L 6.24 41.85 L 4.33 39.94 L 3.11 37.98 L 5.00 39.58 L 6.91 41.49 L 8.81 43.39 L 10.72 45.30 L 12.63 47.21 L 14.53 49.12 L 16.44 51.02 L 18.35 52.93 L 20.25 54.84 L 22.16 56.75 L 24.07 58.66 L 25.97 60.56 L 27.88 62.47 L 29.79 64.38 L 31.70 66.29 L 33.60 68.20 L 35.51 70.10 L 37.42 72.01 L 39.32 73.92 L 41.23 75.83 L 43.14 77.73 L 45.04 79.64 L 46.95 81.55 L 48.86 83.46 L 50.77 84.04 L 52.67 82.14 L 54.58 80.23 L 56.49 78.32 L 58.40 76.42 L 60.31 74.51 L 62.22 72.61 L 64.13 70.70 L 66.04 68.79 L 67.94 66.89 L 69.85 64.98 L 71.76 63.08 L 73.67 61.17 L 75.58 59.26 L 77.49 57.36 L 79.40 55.45 L 81.31 53.55 L 83.22 51.64 L 85.12 49.73 L 87.03 47.83 L 88.94 45.92 L 90.85 44.02 L 92.76 42.11 L 94.67 40.20 L 96.55 38.27 L 95.87 39.95 L 94.00 41.89 L 92.10 43.80 L 90.19 45.71 L 88.28 47.61 L 86.37 49.52 L 84.46 51.42 L 82.55 53.33 L 80.64 55.24 L 78.73 57.14 L 76.83 59.05 L 74.92 60.95 L 73.01 62.86 L 71.10 64.77 L 69.19 66.67 L 67.28 68.58 L 65.37 70.48 L 63.46 72.39 L 61.56 74.30 L 59.65 76.20 L 57.74 78.11 L 55.83 80.01 L 53.92 81.92 L 52.01 83.83 L 50.10 85.73" fill="none" stroke="#4a6b4a" stroke-width="0.3" opacity="0.6" data-segment="foul_lines" />
    <path d="M 50.84 84.45 L 50.80 84.48 L 50.77 84.52 L 50.73 84.55 L 50.69 84.59 L 50.66 84.63 L 50.62 84.66 L 50.59 84.70 L 50.55 84.73 L 50.51 84.77 L 50.48 84.81 L 50.44 84.84 L 50.40 84.88 L 50.37 84.91 L 50.33 84.95 L 50.30 84.99 L 50.26 85.02 L 50.22 85.06 L 50.19 85.09 L 50.15 85.13 L 50.12 85.16 L 50.08 85.18 L 50.04 85.14 L 50.01 85.10 L 49.97 85.07 L 49.94 85.03 L 49.90 84.99 L 49.86 84.96 L 49.83 84.92 L 49.79 84.88 L 49.76 84.85 L 49.72 84.81 L 49.69 84.78 L 49.65 84.74 L 49.61 84.70 L 49.58 84.67 L 49.54 84.63 L 49.51 84.59 L 49.47 84.56 L 49.44 84.52 L 49.40 84.49 L 49.36 84.45 L 49.36 84.40 L 49.36 84.35 L 49.36 84.30 L 49.36 84.25 L 49.36 84.20 L 49.36 84.15 L 49.36 84.09 L 49.36 84.04 L 49.36 83.99 L 49.36 83.94 L 49.36 83.89 L 49.36 83.84 L 49.36 83.79 L 49.36 83.74 L 49.38 83.71 L 49.43 83.71 L 49.49 83.71 L 49.54 83.71 L 49.59 83.71 L 49.64 83.71 L 49.69 83.71 L 49.74 83.71 L 49.79 83.71 L 49.84 83.71 L 49.89 83.71 L 49.94 83.71 L 50.00 83.71 L 50.05 83.71 L 50.10 83.71 L 50.15 83.71 L 50.20 83.71 L 50.25 83.71 L 50.30 83.71 L 50.35 83.71 L 50.40 83.71 L 50.45 83.71 L 50.51 83.71 L 50.56 83.71 L 50.61 83.71 L 50.66 83.71 L 50.71 83.71 L 50.76 83.71 L 50.81 83.71 L 50.84 83.73 L 50.84 83.78 L 50.84 83.83 L 50.84 83.89 L 50.84 83.94 L 50.84 83.99 L 50.84 84.04 L 50.84 84.09 L 50.84 84.14 L 50.84 84.19 L 50.84 84.24 L 50.84 84.29 L 50.84 84.34 L 50.84 84.40 L 50.84 84.45 Z" fill="#e5e5e5" stroke="#ffffff" stroke-width="0.3" data-segment="home_plate" />
  <text x="50" y="98" text-anchor="middle" font-size="3" fill="#737373" font-family="monospace">LF 328' · CF 404' · RF 328'</text>
</svg>
