<?xml version="1.0" encoding="UTF-8"?>
<svg xmlns="http://www.w3.org/2000/svg" viewBox="0 0 100 100" role="img" aria-label="braves ballpark">
  <title>braves</title>
  <rect width="100" height="100" fill="#1a2e1a" />
    <path d="M 97.00 39.05 L 95.01 41.03 L 93.02 43.00 L 91.02 44.98 L 90.70 47.44 L 90.71 50.24 L 90.00 52.95 L 88.63 55.35 L 87.87 56.28 L 86.65 57.76 L 85.03 59.71 L 83.09 62.05 L 80.90 64.70 L 78.51 67.58 L 76.01 70.60 L 73.44 73.68 L 70.89 76.75 L 68.42 79.73 L 66.10 82.52 L 63.99 85.06 L 62.16 87.26 L 60.68 89.04 L 59.62 90.32 L 59.04 91.01 L 58.85 91.24 L 57.93 92.20 L 56.17 93.61 L 53.72 94.91 L 50.70 95.49 L 47.27 94.78 L 43.56 92.19 L 41.42 89.81 L 39.58 87.69 L 37.75 85.57 L 35.91 83.45 L 34.07 81.33 L 32.23 79.21 L 30.39 77.09 L 28.55 74.97 L 26.71 72.85 L 24.87 70.73 L 23.03 68.62 L 21.19 66.50 L 19.35 64.38 L 17.51 62.26 L 15.67 60.14 L 13.84 58.02 L 12.00 55.90 L 10.80 54.44 L 9.86 52.33 L 9.37 48.99 L 10.16 45.73 L 8.23 43.69 L 6.29 41.66 L 4.36 39.63 L 3.00 37.42 L 4.22 34.90 L 5.46 32.38 L 6.67 29.85 L 7.88 27.32 L 9.10 24.79 L 10.31 22.26 L 12.06 20.13 L 14.34 18.49 L 16.63 16.87 L 18.93 15.27 L 21.22 13.65 L 23.74 12.43 L 26.35 11.41 L 28.96 10.39 L 31.57 9.36 L 34.15 8.24 L 36.75 7.21 L 39.36 6.17 L 41.96 5.12 L 44.68 4.54 L 47.49 4.51 L 50.29 4.51 L 53.10 4.51 L 55.90 4.51 L 58.71 4.58 L 61.28 5.59 L 63.78 6.88 L 66.27 8.16 L 68.76 9.47 L 71.25 10.76 L 73.75 12.03 L 76.24 13.31 L 78.74 14.60 L 80.82 16.41 L 82.50 18.66 L 84.18 20.91 L 85.85 23.16 L 87.54 25.40 L 89.24 27.64 L 90.92 29.88 L 92.60 32.13 L 94.28 34.38 L 95.95 36.63 L 97.00 39.05 Z" fill="#243524" stroke="#3d5c3d" stroke-width="0.5" data-segment="outfield_outer" />
    <path d="M 13.26 45.18 L 11.60 43.20 L 9.95 41.21 L 8.30 39.23 L 6.65 37.25 L 7.85 34.99 L 9.09 32.72 L 10.33 30.46 L 11.57 28.19 L 12.81 25.93 L 14.04 23.66 L 15.93 21.96 L 17.99 20.40 L 20.05 18.84 L 22.10 17.28 L 23.60 16.15 L 24.37 15.85 L 25.96 15.21 L 28.22 14.31 L 30.97 13.23 L 34.05 12.04 L 37.29 10.80 L 40.53 9.60 L 43.56 8.61 L 46.14 8.64 L 48.73 8.67 L 51.31 8.70 L 53.89 8.73 L 56.47 8.77 L 58.95 9.18 L 61.24 10.39 L 63.52 11.60 L 65.80 12.80 L 68.08 14.01 L 70.36 15.22 L 72.64 16.43 L 74.93 17.63 L 77.21 18.84 L 79.38 20.18 L 80.87 22.28 L 82.37 24.39 L 83.86 26.49 L 85.36 28.59 L 86.85 30.70 L 88.35 32.80 L 89.84 34.91 L 91.34 37.01 L 92.83 39.12 L 92.03 41.01 L 90.18 42.81 L 88.33 44.61 L 87.67 45.80 L 88.35 47.96 L 88.23 51.14 L 87.12 53.11 L 86.67 53.65 L 85.76 54.71 L 84.46 56.23 L 82.82 58.15 L 80.90 60.41 L 78.75 62.93 L 76.43 65.66 L 73.99 68.52 L 71.49 71.45 L 68.98 74.39 L 66.53 77.27 L 64.18 80.02 L 61.99 82.59 L 60.02 84.90 L 58.33 86.89 L 56.96 88.49 L 55.98 89.64 L 55.43 90.28 L 55.23 90.51 L 54.10 91.50 L 51.89 92.46 L 48.82 92.18 L 45.46 89.79 L 43.77 87.84 L 42.08 85.89 L 40.39 83.94 L 38.70 81.99 L 37.01 80.04 L 35.32 78.09 L 33.63 76.14 L 31.94 74.19 L 30.24 72.24 L 28.55 70.29 L 26.86 68.34 L 25.17 66.39 L 23.48 64.44 L 21.79 62.48 L 20.10 60.53 L 18.41 58.58 L 16.72 56.63 L 15.02 54.68 L 13.45 52.65 L 12.60 50.22 L 12.54 47.65 L 13.26 45.18" fill="none" stroke="#3d5c3d" stroke-width="0.25" opacity="0.4" data-segment="outfield_inner" />
    <path d="M 69.96 68.53 L 69.88 68.33 L 69.63 67.76 L 69.20 66.88 L 68.61 65.75 L 67.84 64.42 L 66.89 62.97 L 65.76 61.44 L 64.45 59.89 L 62.95 58.39 L 61.26 56.98 L 59.38 55.74 L 57.30 54.72 L 55.03 53.98 L 52.56 53.57 L 49.90 53.55 L 47.35 53.92 L 45.00 54.62 L 42.86 55.60 L 40.91 56.79 L 39.17 58.15 L 37.62 59.60 L 36.26 61.11 L 35.08 62.60 L 34.10 64.03 L 33.30 65.33 L 32.67 66.46 L 32.22 67.34 L 31.95 67.93 L 31.85 68.17 L 32.97 69.26 L 34.24 70.47 L 35.50 71.69 L 36.77 72.91 L 38.04 74.12 L 39.31 75.34 L 40.58 76.56 L 41.84 77.77 L 43.11 78.99 L 44.38 80.21 L 45.65 81.42 L 46.91 82.64 L 47.24 83.95 L 46.87 85.64 L 47.28 87.33 L 48.38 88.69 L 49.95 89.44 L 51.69 89.46 L 53.27 88.73 L 54.39 87.40 L 54.83 85.71 L 54.50 84.00 L 55.25 82.70 L 56.52 81.48 L 57.78 80.26 L 59.05 79.04 L 60.32 77.82 L 61.58 76.60 L 62.85 75.39 L 64.11 74.17 L 65.38 72.95 L 66.64 71.73 L 67.91 70.51 L 69.17 69.29 L 69.96 68.53 Z" fill="#2a3f2a" stroke="#4a6b4a" stroke-width="0.4" data-segment="infield_outer" />
    <path d="M 50.20 81.75 L 48.70 81.47 L 47.45 80.24 L 46.19 79.02 L 44.93 77.79 L 43.67 76.56 L 42.41 75.34 L 41.16 74.11 L 40.68 72.82 L 41.22 71.16 L 41.08 69.47 L 42.34 68.24 L 43.60 67.01 L 44.85 65.79 L 46.11 64.56 L 47.37 63.33 L 48.63 62.18 L 50.25 62.83 L 52.00 62.73 L 53.49 62.55 L 54.75 63.78 L 56.01 65.00 L 57.27 66.23 L 58.53 67.46 L 59.78 68.68 L 60.59 70.03 L 60.60 71.77 L 61.33 73.31 L 60.07 74.54 L 58.81 75.77 L 57.55 76.99 L 56.30 78.22 L 55.04 79.45 L 53.78 80.67 L 52.52 81.90 L 50.20 81.75" fill="none" stroke="#4a6b4a" stroke-width="0.25" opacity="0.5" data-segment="infield_inner" />
    <path d="M 50.87 86.10 L 48.96 84.18 L 47.05 82.27 L 45.13 80.36 L 43.22 78.44 L 41.31 76.53 L 39.39 74.61 L 37.48 72.70 L 35.57 70.79 L 33.65 68.87 L 31.74 66.96 L 29.83 65.04 L 27.91 63.13 L 26.00 61.22 L 24.09 59.30 L 22.17 57.39 L 20.26 55.47 L 18.35 53.56 L 16.43 51.65 L 14.52 49.73 L 12.61 47.82 L 10.69 45.90 L 8.78 43.99 L 6.87 42.08 L 4.95 40.16 L 3.04 38.25 L 4.10 38.27 L 6.01 40.18 L 7.92 42.10 L 9.84 44.01 L 11.75 45.93 L 13.66 47.84 L 15.58 49.75 L 17.49 51.67 L 19.40 53.58 L 21.32 55.50 L 23.23 57.41 L 25.14 59.32 L 27.06 61.24 L 28.97 63.15 L 30.88 65.07 L 32.80 66.98 L 34.71 68.89 L 36.62 70.81 L 38.54 72.72 L 40.45 74.64 L 42.36 76.55 L 44.28 78.47 L 46.19 80.38 L 48.10 82.29 L 50.02 84.21 L 51.93 84.01 L 53.84 82.10 L 55.76 80.19 L 57.67 78.27 L 59.59 76.36 L 61.50 74.45 L 63.42 72.54 L 65.34 70.62 L 67.25 68.71 L 69.17 66.80 L 71.08 64.89 L 73.00 62.98 L 74.91 61.06 L 76.83 59.15 L 78.74 57.24 L 80.66 55.33 L 82.57 53.41 L 84.49 51.50 L 86.40 49.59 L 88.32 47.68 L 90.23 45.77 L 92.15 43.85 L 94.06 41.94 L 95.98 40.03 L 96.84 40.20 L 94.92 42.12 L 93.01 44.03 L 91.09 45.94 L 89.18 47.85 L 87.26 49.77 L 85.34 51.68 L 83.43 53.59 L 81.51 55.50 L 79.60 57.41 L 77.68 59.33 L 75.77 61.24 L 73.85 63.15 L 71.94 65.06 L 70.02 66.98 L 68.11 68.89 L 66.19 70.80 L 64.28 72.71 L 62.36 74.63 L 60.45 76.54 L 58.53 78.45 L 56.62 80.36 L 54.70 82.27 L 52.79 84.19 L 50.87 86.10" fill="none" stroke="#4a6b4a" stroke-width="0.3" opacity="0.6" data-segment="foul_lines" />
    <path d="M 51.61 84.81 L 51.58 84.84 L 51.54 84.88 L 51.50 84.92 L 51.47 84.95 L 51.43 84.99 L 51.40 85.02 L 51.36 85.06 L 51.32 85.10 L 51.29 85.13 L 51.25 85.17 L 51.21 85.20 L 51.18 85.24 L 51.14 85.28 L 51.10 85.31 L 51.07 85.35 L 51.03 85.39 L 51.00 85.42 L 50.96 85.46 L 50.92 85.49 L 50.89 85.53 L 50.85 85.54 L 50.81 85.50 L 50.78 85.47 L 50.74 85.43 L 50.71 85.39 L 50.67 85.36 L 50.63 85.32 L 50.60 85.28 L 50.56 85.25 L 50.53 85.21 L 50.49 85.18 L 50.45 85.14 L 50.42 85.10 L 50.38 85.07 L 50.35 85.03 L 50.31 84.99 L 50.27 84.96 L 50.24 84.92 L 50.20 84.88 L 50.17 84.85 L 50.13 84.81 L 50.13 84.76 L 50.13 84.71 L 50.13 84.66 L 50.13 84.61 L 50.13 84.56 L 50.13 84.50 L 50.13 84.45 L 50.13 84.40 L 50.13 84.35 L 50.13 84.30 L 50.13 84.25 L 50.13 84.20 L 50.13 84.15 L 50.13 84.09 L 50.15 84.07 L 50.20 84.07 L 50.25 84.07 L 50.30 84.07 L 50.36 84.07 L 50.41 84.07 L 50.46 84.07 L 50.51 84.07 L 50.56 84.07 L 50.61 84.07 L 50.66 84.07 L 50.71 84.07 L 50.77 84.07 L 50.82 84.07 L 50.87 84.07 L 50.92 84.07 L 50.97 84.07 L 51.02 84.07 L 51.07 84.07 L 51.12 84.07 L 51.18 84.07 L 51.23 84.07 L 51.28 84.07 L 51.33 84.07 L 51.38 84.07 L 51.43 84.07 L 51.48 84.07 L 51.53 84.07 L 51.59 84.07 L 51.61 84.09 L 51.61 84.14 L 51.61 84.19 L 51.61 84.24 L 51.61 84.29 L 51.61 84.35 L 51.61 84.40 L 51.61 84.45 L 51.61 84.50 L 51.61 84.55 L 51.61 84.60 L 51.61 84.65 L 51.61 84.70 L 51.61 84.76 L 51.61 84.81 Z" fill="#e5e5e5" stroke="#ffffff" stroke-width="0.3" data-segment="home_plate" />
  <text x="50" y="98" text-anchor="middle" font-size="3" fill="#737373" font-family="monospace">LF 335' · CF 400' · RF 325'</text>
</svg>
