<?xml version="1.0" encoding="UTF-8"?>
<svg xmlns="http://www.w3.org/2000/svg" viewBox="0 0 100 100" role="img" aria-label="brewers ballpark">
  <title>brewers</title>
  <rect width="100" height="100" fill="#1a2e1a" />
    <path d="M 3.00 38.02 L 4.93 39.94 L 6.86 41.86 L 8.80 43.78 L 10.73 45.70 L 12.66 47.62 L 13.96 49.91 L 14.64 52.55 L 15.93 54.92 L 17.40 57.22 L 18.86 59.51 L 20.33 61.81 L 21.79 64.11 L 23.26 66.40 L 24.73 68.69 L 26.40 70.85 L 28.07 73.00 L 29.73 75.16 L 31.40 77.32 L 33.07 79.47 L 34.73 81.63 L 36.41 83.81 L 38.32 86.35 L 40.21 88.59 L 42.14 90.46 L 44.19 91.91 L 46.43 92.88 L 48.95 93.31 L 51.66 93.16 L 54.24 92.31 L 56.51 90.82 L 58.17 89.04 L 59.55 87.40 L 61.45 85.11 L 63.67 82.38 L 66.03 79.46 L 68.36 76.57 L 70.46 73.96 L 72.15 71.85 L 73.24 70.48 L 73.74 69.74 L 74.99 67.31 L 76.24 64.89 L 77.48 62.47 L 78.73 60.05 L 79.98 57.62 L 80.40 55.12 L 82.30 53.17 L 84.20 51.22 L 86.10 49.26 L 88.00 47.31 L 89.90 45.36 L 91.80 43.41 L 93.70 41.45 L 95.60 39.50 L 97.00 37.52 L 95.09 35.59 L 93.06 33.78 L 91.03 31.96 L 88.99 30.15 L 86.96 28.34 L 84.93 26.52 L 82.89 24.71 L 82.47 22.17 L 80.75 20.23 L 78.70 18.45 L 76.64 16.66 L 74.16 15.55 L 71.65 14.47 L 69.15 13.40 L 66.65 12.32 L 64.15 11.24 L 61.84 9.86 L 60.23 7.67 L 57.93 6.69 L 55.21 6.69 L 52.49 6.69 L 49.76 6.69 L 47.04 6.69 L 44.31 6.69 L 41.59 6.69 L 39.30 8.03 L 37.02 10.69 L 35.77 11.99 L 33.29 13.11 L 30.80 14.23 L 28.32 15.35 L 25.83 16.46 L 23.35 17.58 L 20.86 18.70 L 18.38 19.82 L 15.90 20.94 L 13.95 22.83 L 12.03 24.77 L 10.11 26.70 L 8.19 28.63 L 6.27 30.56 L 5.28 33.10 L 4.30 35.64 L 3.00 38.02 Z" fill="#243524" stroke="#3d5c3d" stroke-width="0.5" data-segment="outfield_outer" />
    <path d="M 93.24 39.96 L 92.17 38.73 L 89.93 36.46 L 88.52 35.03 L 86.33 32.32 L 84.99 30.66 L 83.92 29.08 L 81.97 27.15 L 79.54 24.92 L 77.68 23.27 L 76.79 22.63 L 74.77 21.51 L 71.86 19.93 L 68.69 18.24 L 65.90 16.76 L 64.12 15.81 L 63.54 15.47 L 61.38 13.45 L 58.98 13.00 L 56.22 12.69 L 53.27 12.51 L 50.27 12.46 L 47.40 12.53 L 44.80 12.70 L 42.64 12.98 L 41.07 13.34 L 39.52 14.65 L 37.75 16.40 L 35.65 17.61 L 33.29 18.40 L 30.93 19.19 L 28.57 19.98 L 26.22 20.77 L 23.91 21.67 L 21.71 22.84 L 19.52 24.01 L 17.32 25.18 L 15.13 26.35 L 13.37 28.05 L 11.80 29.98 L 10.24 31.91 L 8.67 33.84 L 7.10 35.77 L 6.38 37.89 L 7.28 40.12 L 9.11 41.80 L 10.95 43.47 L 12.79 45.15 L 14.62 46.83 L 15.89 48.84 L 16.46 51.26 L 17.41 53.52 L 18.75 55.61 L 20.08 57.71 L 21.42 59.81 L 22.76 61.90 L 24.10 64.00 L 25.43 66.09 L 26.87 68.12 L 28.38 70.09 L 29.90 72.06 L 31.42 74.03 L 32.94 76.00 L 34.45 77.97 L 35.97 79.94 L 37.56 82.04 L 39.29 84.31 L 41.01 86.30 L 42.79 87.96 L 44.67 89.24 L 46.73 90.09 L 49.04 90.47 L 51.51 90.33 L 53.88 89.59 L 55.98 88.27 L 57.60 86.57 L 58.79 85.18 L 60.44 83.17 L 62.42 80.75 L 64.56 78.11 L 66.71 75.44 L 68.71 72.95 L 70.40 70.84 L 71.63 69.30 L 72.24 68.54 L 73.07 66.97 L 74.22 64.77 L 75.36 62.56 L 76.51 60.35 L 77.66 58.15 L 78.81 55.94 L 79.17 54.02 L 80.93 52.26 L 82.69 50.50 L 84.44 48.75 L 86.20 46.99 L 87.96 45.23 L 89.72 43.47 L 91.48 41.72 L 93.24 39.96" fill="none" stroke="#3d5c3d" stroke-width="0.25" opacity="0.4" data-segment="outfield_inner" />
    <path d="M 68.32 66.78 L 68.24 66.58 L 68.00 66.04 L 67.60 65.19 L 67.03 64.11 L 66.29 62.85 L 65.38 61.46 L 64.30 60.00 L 63.05 58.53 L 61.61 57.10 L 59.99 55.77 L 58.19 54.60 L 56.20 53.64 L 54.03 52.96 L 51.66 52.59 L 49.12 52.61 L 46.71 52.99 L 44.49 53.68 L 42.47 54.64 L 40.64 55.79 L 39.00 57.09 L 37.54 58.49 L 36.27 59.92 L 35.18 61.34 L 34.26 62.68 L 33.52 63.90 L 32.95 64.94 L 32.55 65.75 L 32.31 66.27 L 32.29 66.49 L 33.50 67.65 L 34.71 68.81 L 35.91 69.97 L 37.12 71.12 L 38.33 72.28 L 39.53 73.44 L 40.74 74.60 L 41.95 75.76 L 43.15 76.92 L 44.36 78.07 L 45.57 79.23 L 46.77 80.39 L 46.66 81.75 L 46.49 83.36 L 47.05 84.92 L 48.22 86.09 L 49.79 86.65 L 51.44 86.48 L 52.85 85.62 L 53.76 84.23 L 53.99 82.59 L 53.53 81.02 L 54.74 79.86 L 55.94 78.70 L 57.15 77.54 L 58.35 76.38 L 59.56 75.22 L 60.76 74.06 L 61.97 72.90 L 63.17 71.74 L 64.38 70.58 L 65.58 69.42 L 66.79 68.26 L 67.99 67.10 L 68.32 66.78 Z" fill="#2a3f2a" stroke="#4a6b4a" stroke-width="0.4" data-segment="infield_outer" />
    <path d="M 49.05 79.43 L 47.78 78.61 L 46.58 77.44 L 45.38 76.28 L 44.19 75.11 L 42.99 73.94 L 41.79 72.77 L 40.60 71.60 L 40.36 70.39 L 41.39 69.10 L 41.15 67.47 L 42.35 66.30 L 43.54 65.13 L 44.74 63.96 L 45.94 62.79 L 47.13 61.63 L 48.38 60.94 L 49.97 61.41 L 51.61 61.17 L 52.96 61.36 L 54.16 62.53 L 55.36 63.69 L 56.56 64.85 L 57.77 66.02 L 58.97 67.18 L 59.02 68.67 L 59.73 70.02 L 60.20 71.25 L 59.01 72.42 L 57.81 73.58 L 56.61 74.75 L 55.41 75.92 L 54.22 77.09 L 53.02 78.26 L 51.82 79.43 L 49.05 79.43" fill="none" stroke="#4a6b4a" stroke-width="0.25" opacity="0.5" data-segment="infield_inner" />
    <path d="M 50.25 83.41 L 48.37 81.53 L 46.49 79.65 L 44.61 77.77 L 42.73 75.89 L 40.85 74.01 L 38.98 72.13 L 37.10 70.24 L 35.22 68.36 L 33.34 66.48 L 31.46 64.60 L 29.58 62.72 L 27.70 60.84 L 25.82 58.96 L 23.94 57.08 L 22.06 55.20 L 20.18 53.32 L 18.30 51.44 L 16.42 49.56 L 14.54 47.68 L 12.66 45.80 L 10.78 43.92 L 8.90 42.04 L 7.02 40.16 L 5.15 38.28 L 4.17 36.33 L 6.05 38.21 L 7.93 40.09 L 9.81 41.97 L 11.69 43.85 L 13.57 45.73 L 15.45 47.61 L 17.33 49.49 L 19.21 51.38 L 21.09 53.26 L 22.97 55.14 L 24.85 57.02 L 26.73 58.90 L 28.61 60.78 L 30.49 62.66 L 32.37 64.54 L 34.25 66.42 L 36.13 68.30 L 38.01 70.18 L 39.89 72.06 L 41.76 73.94 L 43.64 75.82 L 45.52 77.70 L 47.40 79.58 L 49.28 81.46 L 51.16 81.52 L 53.04 79.64 L 54.93 77.76 L 56.81 75.88 L 58.69 74.01 L 60.57 72.13 L 62.45 70.25 L 64.33 68.37 L 66.21 66.49 L 68.10 64.61 L 69.98 62.73 L 71.86 60.86 L 73.74 58.98 L 75.62 57.10 L 77.50 55.22 L 79.38 53.34 L 81.26 51.46 L 83.15 49.58 L 85.03 47.71 L 86.91 45.83 L 88.79 43.95 L 90.67 42.07 L 92.55 40.19 L 94.43 38.31 L 96.31 36.44 L 95.40 38.32 L 93.52 40.20 L 91.64 42.08 L 89.76 43.96 L 87.88 45.84 L 86.00 47.72 L 84.12 49.59 L 82.23 51.47 L 80.35 53.35 L 78.47 55.23 L 76.59 57.11 L 74.71 58.99 L 72.83 60.87 L 70.95 62.74 L 69.06 64.62 L 67.18 66.50 L 65.30 68.38 L 63.42 70.26 L 61.54 72.14 L 59.66 74.01 L 57.78 75.89 L 55.90 77.77 L 54.01 79.65 L 52.13 81.53 L 50.25 83.41" fill="none" stroke="#4a6b4a" stroke-width="0.3" opacity="0.6" data-segment="foul_lines" />
    <path d="M 50.95 82.18 L 50.92 82.22 L 50.88 82.25 L 50.85 82.29 L 50.82 82.32 L 50.78 82.36 L 50.75 82.39 L 50.71 82.42 L 50.68 82.46 L 50.64 82.49 L 50.61 82.53 L 50.57 82.56 L 50.54 82.59 L 50.51 82.63 L 50.47 82.66 L 50.44 82.70 L 50.40 82.73 L 50.37 82.77 L 50.33 82.80 L 50.30 82.83 L 50.26 82.87 L 50.23 82.88 L 50.20 82.84 L 50.16 82.81 L 50.13 82.77 L 50.09 82.74 L 50.06 82.71 L 50.03 82.67 L 49.99 82.64 L 49.96 82.60 L 49.92 82.57 L 49.89 82.53 L 49.86 82.50 L 49.82 82.46 L 49.79 82.43 L 49.75 82.39 L 49.72 82.36 L 49.69 82.33 L 49.65 82.29 L 49.62 82.26 L 49.58 82.22 L 49.55 82.19 L 49.55 82.14 L 49.55 82.09 L 49.55 82.04 L 49.55 81.99 L 49.55 81.95 L 49.55 81.90 L 49.55 81.85 L 49.55 81.80 L 49.55 81.75 L 49.55 81.70 L 49.55 81.65 L 49.55 81.61 L 49.55 81.56 L 49.55 81.51 L 49.57 81.48 L 49.62 81.48 L 49.67 81.48 L 49.71 81.48 L 49.76 81.48 L 49.81 81.48 L 49.86 81.48 L 49.91 81.48 L 49.96 81.48 L 50.00 81.48 L 50.05 81.48 L 50.10 81.48 L 50.15 81.48 L 50.20 81.48 L 50.25 81.48 L 50.30 81.48 L 50.34 81.48 L 50.39 81.48 L 50.44 81.48 L 50.49 81.48 L 50.54 81.48 L 50.59 81.48 L 50.64 81.48 L 50.68 81.48 L 50.73 81.48 L 50.78 81.48 L 50.83 81.48 L 50.88 81.48 L 50.93 81.48 L 50.95 81.51 L 50.95 81.55 L 50.95 81.60 L 50.95 81.65 L 50.95 81.70 L 50.95 81.75 L 50.95 81.80 L 50.95 81.84 L 50.95 81.89 L 50.95 81.94 L 50.95 81.99 L 50.95 82.04 L 50.95 82.09 L 50.95 82.14 L 50.95 82.18 Z" fill="#e5e5e5" stroke="#ffffff" stroke-width="0.3" data-segment="home_plate" />
  <text x="50" y="98" text-anchor="middle" font-size="3" fill="#737373" font-family="monospace">LF 344' · CF 400' · RF 345'</text>
</svg>
