<?xml version="1.0" encoding="UTF-8"?>
<svg xmlns="http://www.w3.org/2000/svg" viewBox="0 0 100 100" role="img" aria-label="cardinals ballpark">
  <title>cardinals</title>
  <rect width="100" height="100" fill="#1a2e1a" />
    <path d="M 3.40 37.36 L 3.00 34.65 L 4.39 32.42 L 6.35 30.48 L 8.31 28.53 L 10.26 26.58 L 12.22 24.62 L 14.16 22.66 L 16.11 20.70 L 18.06 18.74 L 20.02 16.80 L 21.99 14.86 L 23.95 12.91 L 26.12 11.30 L 28.75 10.43 L 31.38 9.59 L 34.01 8.75 L 36.64 7.90 L 39.27 7.06 L 41.90 6.21 L 44.59 5.67 L 47.35 5.67 L 50.12 5.67 L 52.88 5.67 L 55.64 5.67 L 58.32 6.22 L 60.94 7.10 L 63.55 8.01 L 66.17 8.89 L 68.79 9.78 L 71.40 10.67 L 74.02 11.56 L 76.30 13.02 L 78.26 14.98 L 80.22 16.92 L 82.16 18.88 L 84.11 20.84 L 86.05 22.81 L 88.01 24.76 L 89.96 26.71 L 91.91 28.68 L 93.88 30.61 L 95.72 32.65 L 96.41 35.29 L 97.00 37.98 L 95.42 40.00 L 93.47 41.96 L 91.51 43.91 L 89.56 45.86 L 87.60 47.82 L 86.30 50.23 L 85.06 52.70 L 83.82 55.18 L 82.59 57.65 L 81.35 60.12 L 80.11 62.59 L 78.87 65.06 L 77.64 67.53 L 76.40 70.00 L 75.65 71.38 L 74.65 72.56 L 72.92 74.61 L 70.70 77.22 L 68.27 80.08 L 65.88 82.87 L 63.81 85.28 L 62.30 87.01 L 60.99 88.64 L 59.32 90.46 L 57.24 92.20 L 54.65 93.59 L 51.48 94.33 L 48.47 94.27 L 46.04 93.61 L 43.85 92.43 L 41.82 90.80 L 39.89 88.76 L 37.98 86.38 L 36.03 83.93 L 34.11 81.94 L 32.18 79.96 L 30.25 77.98 L 28.33 76.00 L 26.40 74.02 L 24.48 72.04 L 22.55 70.06 L 21.28 67.65 L 20.25 65.09 L 19.23 62.52 L 18.21 59.95 L 17.19 57.38 L 16.17 54.82 L 15.14 52.25 L 14.12 49.68 L 12.36 47.60 L 10.42 45.63 L 8.48 43.66 L 6.54 41.70 L 4.60 39.73 L 3.40 37.36 Z" fill="#243524" stroke="#3d5c3d" stroke-width="0.5" data-segment="outfield_outer" />
    <path d="M 92.87 38.44 L 93.35 36.78 L 92.69 33.70 L 90.75 31.84 L 88.90 30.08 L 87.04 28.33 L 85.19 26.57 L 83.33 24.81 L 81.48 23.06 L 79.62 21.30 L 77.77 19.55 L 75.91 17.79 L 74.06 16.04 L 71.67 15.13 L 69.28 14.24 L 66.89 13.34 L 64.50 12.44 L 62.11 11.55 L 59.71 10.65 L 57.32 9.76 L 54.80 9.55 L 52.24 9.49 L 49.69 9.43 L 47.14 9.37 L 44.58 9.31 L 42.11 9.77 L 39.70 10.61 L 37.29 11.45 L 34.87 12.29 L 32.46 13.12 L 30.05 13.96 L 27.64 14.80 L 25.68 16.38 L 23.83 18.14 L 21.98 19.90 L 20.13 21.66 L 18.28 23.42 L 16.43 25.19 L 14.58 26.95 L 12.73 28.71 L 10.88 30.47 L 9.03 32.23 L 7.18 33.99 L 6.49 36.33 L 8.25 38.37 L 9.92 40.16 L 11.72 41.98 L 13.51 43.80 L 15.31 45.61 L 16.80 47.62 L 17.68 50.02 L 18.57 52.41 L 19.45 54.81 L 20.34 57.21 L 21.22 59.60 L 22.11 62.00 L 22.99 64.39 L 23.88 66.79 L 25.07 69.00 L 26.82 70.86 L 28.56 72.73 L 30.31 74.59 L 32.05 76.46 L 33.80 78.32 L 35.54 80.19 L 37.29 82.05 L 39.08 84.44 L 40.85 86.58 L 42.64 88.39 L 44.53 89.84 L 46.59 90.86 L 48.87 91.41 L 51.39 91.44 L 53.88 90.88 L 56.14 89.70 L 58.02 87.99 L 59.32 86.50 L 61.04 84.55 L 63.15 82.15 L 65.45 79.54 L 67.74 76.94 L 69.81 74.58 L 71.47 72.69 L 72.52 71.51 L 73.06 70.63 L 74.18 68.34 L 75.31 66.05 L 76.43 63.75 L 77.55 61.46 L 78.68 59.17 L 79.80 56.88 L 80.93 54.58 L 82.05 52.29 L 83.18 50.00 L 84.30 47.70 L 85.42 45.41 L 87.23 43.62 L 89.11 41.90 L 90.99 40.17 L 92.87 38.44" fill="none" stroke="#3d5c3d" stroke-width="0.25" opacity="0.4" data-segment="outfield_inner" />
    <path d="M 60.72 74.97 L 61.92 74.25 L 63.12 73.01 L 64.32 71.78 L 65.52 70.54 L 66.72 69.31 L 67.92 68.08 L 68.52 67.00 L 68.04 66.08 L 67.42 64.99 L 66.67 63.79 L 65.79 62.50 L 64.77 61.16 L 63.63 59.80 L 62.37 58.48 L 60.97 57.21 L 59.45 56.05 L 57.81 55.02 L 56.05 54.16 L 54.16 53.51 L 52.16 53.11 L 50.03 52.99 L 47.91 53.17 L 45.91 53.62 L 44.02 54.30 L 42.25 55.18 L 40.60 56.22 L 39.08 57.39 L 37.68 58.65 L 36.40 59.96 L 35.26 61.29 L 34.24 62.61 L 33.35 63.87 L 32.59 65.05 L 31.97 66.10 L 31.48 67.00 L 32.13 68.05 L 33.35 69.26 L 34.57 70.47 L 35.80 71.69 L 37.02 72.90 L 38.24 74.11 L 39.48 74.93 L 40.71 76.01 L 41.94 77.22 L 43.17 78.42 L 44.40 79.62 L 45.63 80.83 L 46.87 82.03 L 46.16 83.63 L 46.26 85.26 L 47.08 86.76 L 48.46 87.76 L 50.14 88.07 L 51.79 87.63 L 53.09 86.52 L 53.79 84.96 L 53.74 83.26 L 53.82 81.82 L 55.04 80.61 L 56.26 79.40 L 57.48 78.18 L 58.71 76.97 L 59.93 75.76 L 60.72 74.97 Z" fill="#2a3f2a" stroke="#4a6b4a" stroke-width="0.4" data-segment="infield_outer" />
    <path d="M 50.95 80.53 L 49.24 80.48 L 47.81 80.09 L 46.59 78.88 L 45.37 77.67 L 44.14 76.46 L 42.92 75.25 L 41.69 74.04 L 40.47 72.83 L 39.55 71.79 L 40.78 70.29 L 41.08 68.57 L 41.76 67.26 L 43.00 66.05 L 44.23 64.85 L 45.46 63.65 L 46.69 62.45 L 47.98 61.38 L 49.70 61.41 L 51.42 61.43 L 52.88 62.08 L 54.11 63.28 L 55.34 64.48 L 56.57 65.69 L 57.80 66.89 L 59.04 68.09 L 58.80 69.39 L 59.70 70.98 L 60.09 72.26 L 58.87 73.46 L 57.64 74.67 L 56.42 75.88 L 55.19 77.09 L 53.97 78.30 L 52.74 79.51 L 50.95 80.53" fill="none" stroke="#4a6b4a" stroke-width="0.25" opacity="0.5" data-segment="infield_inner" />
    <path d="M 50.01 84.71 L 48.11 82.81 L 46.21 80.91 L 44.31 79.01 L 42.41 77.11 L 40.51 75.21 L 38.61 73.31 L 36.71 71.41 L 34.81 69.50 L 32.91 67.60 L 31.01 65.70 L 29.11 63.80 L 27.21 61.90 L 25.31 60.00 L 23.41 58.10 L 21.51 56.20 L 19.61 54.30 L 17.71 52.40 L 15.81 50.50 L 13.91 48.59 L 12.01 46.69 L 10.11 44.79 L 8.21 42.89 L 6.31 40.99 L 4.41 39.09 L 3.50 37.17 L 5.40 39.07 L 7.30 40.97 L 9.20 42.87 L 11.10 44.77 L 13.00 46.67 L 14.90 48.57 L 16.80 50.48 L 18.70 52.38 L 20.60 54.28 L 22.50 56.18 L 24.40 58.08 L 26.30 59.98 L 28.20 61.88 L 30.10 63.78 L 32.00 65.68 L 33.90 67.58 L 35.80 69.48 L 37.70 71.39 L 39.60 73.29 L 41.50 75.19 L 43.40 77.09 L 45.30 78.99 L 47.20 80.89 L 49.10 82.79 L 51.00 82.72 L 52.90 80.82 L 54.80 78.92 L 56.71 77.02 L 58.61 75.13 L 60.51 73.23 L 62.41 71.33 L 64.31 69.43 L 66.22 67.53 L 68.12 65.63 L 70.02 63.73 L 71.92 61.83 L 73.82 59.93 L 75.72 58.03 L 77.63 56.13 L 79.53 54.23 L 81.43 52.34 L 83.33 50.44 L 85.23 48.54 L 87.14 46.64 L 89.04 44.74 L 90.94 42.84 L 92.84 40.94 L 94.74 39.04 L 96.65 37.14 L 95.66 39.13 L 93.76 41.03 L 91.86 42.93 L 89.96 44.83 L 88.05 46.73 L 86.15 48.63 L 84.25 50.53 L 82.35 52.43 L 80.45 54.33 L 78.54 56.23 L 76.64 58.13 L 74.74 60.02 L 72.84 61.92 L 70.94 63.82 L 69.03 65.72 L 67.13 67.62 L 65.23 69.52 L 63.33 71.42 L 61.43 73.32 L 59.52 75.22 L 57.62 77.12 L 55.72 79.01 L 53.82 80.91 L 51.92 82.81 L 50.01 84.71" fill="none" stroke="#4a6b4a" stroke-width="0.3" opacity="0.6" data-segment="foul_lines" />
    <path d="M 50.74 83.45 L 50.70 83.49 L 50.67 83.53 L 50.63 83.56 L 50.59 83.60 L 50.56 83.63 L 50.52 83.67 L 50.49 83.70 L 50.45 83.74 L 50.42 83.77 L 50.38 83.81 L 50.35 83.84 L 50.31 83.88 L 50.28 83.91 L 50.24 83.95 L 50.21 83.98 L 50.17 84.02 L 50.13 84.05 L 50.10 84.09 L 50.06 84.12 L 50.03 84.16 L 49.99 84.17 L 49.96 84.13 L 49.92 84.10 L 49.89 84.06 L 49.85 84.03 L 49.82 83.99 L 49.78 83.96 L 49.75 83.92 L 49.71 83.88 L 49.68 83.85 L 49.64 83.81 L 49.61 83.78 L 49.57 83.74 L 49.54 83.71 L 49.50 83.67 L 49.47 83.64 L 49.43 83.60 L 49.40 83.56 L 49.36 83.53 L 49.33 83.49 L 49.29 83.46 L 49.29 83.41 L 49.29 83.36 L 49.29 83.31 L 49.29 83.26 L 49.29 83.21 L 49.29 83.16 L 49.29 83.11 L 49.29 83.06 L 49.29 83.01 L 49.29 82.96 L 49.29 82.91 L 49.29 82.86 L 49.29 82.81 L 49.29 82.76 L 49.31 82.73 L 49.36 82.73 L 49.41 82.73 L 49.46 82.73 L 49.51 82.73 L 49.56 82.73 L 49.61 82.73 L 49.66 82.73 L 49.71 82.73 L 49.76 82.73 L 49.81 82.73 L 49.86 82.73 L 49.91 82.73 L 49.96 82.73 L 50.01 82.73 L 50.06 82.73 L 50.11 82.73 L 50.16 82.73 L 50.21 82.73 L 50.26 82.73 L 50.31 82.73 L 50.36 82.73 L 50.41 82.73 L 50.46 82.73 L 50.51 82.73 L 50.56 82.73 L 50.61 82.73 L 50.66 82.73 L 50.71 82.73 L 50.74 82.76 L 50.74 82.81 L 50.74 82.86 L 50.74 82.91 L 50.74 82.96 L 50.74 83.01 L 50.74 83.06 L 50.74 83.11 L 50.74 83.16 L 50.74 83.21 L 50.74 83.26 L 50.74 83.31 L 50.74 83.36 L 50.74 83.40 L 50.74 83.45 Z" fill="#e5e5e5" stroke="#ffffff" stroke-width="0.3" data-segment="home_plate" />
  <text x="50" y="98" text-anchor="middle" font-size="3" fill="#737373" font-family="monospace">LF 336' · CF 400' · RF 335'</text>
</svg>
