<?xml version="1.0" encoding="UTF-8"?>
<svg xmlns="http://www.w3.org/2000/svg" viewBox="0 0 100 100" role="img" aria-label="cubs ballpark">
  <title>cubs</title>
  <rect width="100" height="100" fill="#1a2e1a" />
    <path d="M 96.26 35.52 L 94.55 33.42 L 92.84 31.33 L 91.13 29.25 L 89.40 27.17 L 87.39 25.55 L 84.75 26.00 L 82.53 24.66 L 80.65 22.72 L 78.74 20.81 L 76.84 18.90 L 74.94 16.97 L 73.03 15.07 L 71.12 13.16 L 69.02 11.46 L 66.77 9.99 L 64.38 8.74 L 61.87 7.75 L 59.27 7.01 L 56.61 6.64 L 53.91 6.47 L 51.22 6.70 L 48.57 7.14 L 45.96 7.85 L 43.55 9.06 L 41.23 10.43 L 38.92 11.84 L 36.62 13.24 L 34.31 14.65 L 32.01 16.06 L 29.70 17.46 L 27.40 18.87 L 25.10 20.28 L 22.80 21.69 L 20.49 23.10 L 18.08 24.24 L 15.48 24.57 L 13.36 26.24 L 11.28 27.96 L 9.22 29.70 L 7.16 31.44 L 5.09 33.18 L 3.00 34.89 L 3.39 36.84 L 5.31 38.74 L 7.22 40.65 L 9.13 42.56 L 10.99 44.51 L 12.44 46.78 L 13.89 49.06 L 15.33 51.34 L 16.78 53.62 L 18.23 55.90 L 19.72 58.15 L 21.25 60.38 L 22.77 62.60 L 24.29 64.83 L 25.82 67.06 L 27.34 69.29 L 28.86 71.52 L 30.39 73.75 L 31.91 75.98 L 33.43 78.21 L 34.96 80.43 L 36.48 82.66 L 38.00 84.89 L 39.53 87.12 L 41.05 89.35 L 42.70 91.63 L 45.03 93.26 L 47.42 93.53 L 49.81 92.77 L 52.12 91.27 L 54.56 89.14 L 57.22 86.75 L 59.58 84.62 L 61.61 82.72 L 63.26 81.05 L 64.50 79.57 L 65.21 78.44 L 65.97 77.27 L 67.17 75.52 L 68.74 73.30 L 70.59 70.70 L 72.66 67.82 L 74.88 64.76 L 77.15 61.63 L 79.42 58.52 L 81.60 55.54 L 83.62 52.78 L 85.41 50.35 L 86.89 48.34 L 87.98 46.86 L 88.61 46.01 L 89.37 45.20 L 91.28 43.29 L 93.19 41.38 L 95.09 39.47 L 97.00 37.56 L 96.26 35.52 Z" fill="#243524" stroke="#3d5c3d" stroke-width="0.5" data-segment="outfield_outer" />
    <path d="M 20.29 55.97 L 18.50 55.92 L 17.16 53.77 L 15.82 51.62 L 14.47 49.47 L 13.13 47.33 L 11.79 45.18 L 10.30 43.14 L 8.63 41.24 L 6.96 39.34 L 5.29 37.44 L 6.74 35.76 L 8.66 34.11 L 10.58 32.46 L 12.50 30.81 L 14.43 29.16 L 16.43 27.70 L 18.94 27.32 L 21.17 26.23 L 23.32 24.89 L 25.47 23.55 L 27.62 22.21 L 29.77 20.87 L 31.92 19.53 L 34.07 18.19 L 36.22 16.85 L 38.37 15.51 L 40.52 14.18 L 42.67 12.84 L 44.82 11.50 L 46.34 10.57 L 47.18 10.36 L 48.89 10.04 L 51.29 9.75 L 54.20 9.66 L 57.44 9.91 L 60.84 10.66 L 64.21 12.08 L 66.92 13.75 L 69.22 15.48 L 71.20 17.22 L 72.91 18.93 L 74.40 20.58 L 75.73 22.10 L 78.30 24.97 L 80.27 27.04 L 81.19 27.97 L 83.26 28.16 L 85.78 28.38 L 87.58 30.05 L 89.28 31.93 L 90.97 33.81 L 92.67 35.69 L 93.15 37.55 L 91.39 39.37 L 89.63 41.19 L 87.87 43.02 L 86.37 45.04 L 85.01 47.17 L 83.41 49.13 L 81.69 50.98 L 79.97 52.84 L 78.24 54.70 L 76.82 56.79 L 75.43 58.90 L 74.03 61.02 L 72.64 63.13 L 71.24 65.24 L 69.85 67.36 L 68.45 69.47 L 67.06 71.58 L 65.66 73.70 L 64.26 75.81 L 63.57 76.79 L 62.69 77.73 L 61.18 79.32 L 59.21 81.37 L 56.92 83.70 L 54.48 86.12 L 52.04 88.45 L 49.46 90.50 L 47.16 91.36 L 45.20 90.89 L 43.61 89.10 L 42.15 87.03 L 40.69 84.96 L 39.24 82.89 L 37.78 80.82 L 36.32 78.75 L 34.86 76.68 L 33.41 74.61 L 31.95 72.53 L 30.49 70.46 L 29.03 68.39 L 27.58 66.32 L 26.12 64.25 L 24.66 62.18 L 23.20 60.11 L 21.75 58.04 L 20.29 55.97" fill="none" stroke="#3d5c3d" stroke-width="0.25" opacity="0.4" data-segment="outfield_inner" />
    <path d="M 66.88 65.92 L 66.80 65.73 L 66.57 65.20 L 66.18 64.38 L 65.63 63.33 L 64.91 62.11 L 64.04 60.76 L 62.99 59.34 L 61.77 57.90 L 60.38 56.51 L 58.82 55.20 L 57.08 54.05 L 55.16 53.10 L 53.05 52.40 L 50.76 52.01 L 48.29 51.99 L 45.92 52.33 L 43.74 52.97 L 41.75 53.87 L 39.94 54.97 L 38.31 56.22 L 36.87 57.57 L 35.60 58.97 L 34.51 60.35 L 33.58 61.68 L 32.83 62.90 L 32.25 63.95 L 31.82 64.78 L 31.56 65.34 L 31.46 65.58 L 32.45 66.53 L 33.62 67.66 L 34.80 68.79 L 35.97 69.92 L 37.15 71.05 L 38.33 72.18 L 39.50 73.31 L 40.68 74.43 L 41.86 75.56 L 43.03 76.69 L 44.21 77.82 L 45.38 78.95 L 45.82 80.14 L 45.42 81.71 L 45.75 83.28 L 46.73 84.57 L 48.16 85.32 L 49.78 85.39 L 51.27 84.76 L 52.35 83.56 L 52.81 82.01 L 52.56 80.42 L 53.11 79.18 L 54.29 78.05 L 55.46 76.92 L 56.63 75.78 L 57.81 74.65 L 58.98 73.52 L 60.16 72.39 L 61.33 71.26 L 62.50 70.13 L 63.68 69.00 L 64.85 67.87 L 66.03 66.74 L 66.88 65.92 Z" fill="#2a3f2a" stroke="#4a6b4a" stroke-width="0.4" data-segment="infield_outer" />
    <path d="M 48.68 78.17 L 47.25 78.06 L 46.08 76.92 L 44.91 75.78 L 43.75 74.65 L 42.58 73.51 L 41.41 72.37 L 40.25 71.23 L 39.57 70.06 L 40.15 68.55 L 39.99 66.94 L 41.07 65.78 L 42.23 64.65 L 43.40 63.51 L 44.57 62.37 L 45.74 61.23 L 46.90 60.09 L 48.49 60.00 L 50.12 60.02 L 51.61 60.38 L 52.77 61.52 L 53.94 62.66 L 55.11 63.80 L 56.27 64.94 L 57.44 66.08 L 58.17 67.33 L 58.19 68.95 L 58.84 70.37 L 57.68 71.51 L 56.51 72.65 L 55.34 73.79 L 54.17 74.93 L 53.01 76.06 L 51.84 77.20 L 50.67 78.34 L 48.68 78.17" fill="none" stroke="#4a6b4a" stroke-width="0.25" opacity="0.5" data-segment="infield_inner" />
    <path d="M 49.14 82.24 L 47.25 80.35 L 45.36 78.45 L 43.46 76.56 L 41.57 74.67 L 39.68 72.78 L 37.79 70.88 L 35.89 68.99 L 34.00 67.10 L 32.11 65.20 L 30.22 63.31 L 28.33 61.42 L 26.43 59.52 L 24.54 57.63 L 22.65 55.74 L 20.76 53.85 L 18.86 51.95 L 16.97 50.06 L 15.08 48.17 L 13.19 46.27 L 11.29 44.38 L 9.40 42.49 L 7.51 40.59 L 5.62 38.70 L 3.73 36.81 L 3.02 35.14 L 4.92 37.03 L 6.81 38.93 L 8.70 40.82 L 10.59 42.71 L 12.48 44.61 L 14.38 46.50 L 16.27 48.39 L 18.16 50.29 L 20.05 52.18 L 21.95 54.07 L 23.84 55.96 L 25.73 57.86 L 27.62 59.75 L 29.51 61.64 L 31.41 63.54 L 33.30 65.43 L 35.19 67.32 L 37.08 69.22 L 38.98 71.11 L 40.87 73.00 L 42.76 74.90 L 44.65 76.79 L 46.54 78.68 L 48.44 80.58 L 50.33 80.09 L 52.22 78.20 L 54.12 76.31 L 56.01 74.42 L 57.91 72.53 L 59.80 70.64 L 61.69 68.75 L 63.59 66.86 L 65.48 64.96 L 67.38 63.07 L 69.27 61.18 L 71.17 59.29 L 73.06 57.40 L 74.95 55.51 L 76.85 53.62 L 78.74 51.73 L 80.64 49.83 L 82.53 47.94 L 84.42 46.05 L 86.32 44.16 L 88.21 42.27 L 90.11 40.38 L 92.00 38.49 L 93.89 36.60 L 95.78 34.92 L 94.60 36.85 L 92.71 38.74 L 90.81 40.63 L 88.92 42.53 L 87.02 44.42 L 85.13 46.31 L 83.24 48.20 L 81.34 50.09 L 79.45 51.98 L 77.55 53.87 L 75.66 55.76 L 73.76 57.66 L 71.87 59.55 L 69.98 61.44 L 68.08 63.33 L 66.19 65.22 L 64.29 67.11 L 62.40 69.00 L 60.51 70.89 L 58.61 72.78 L 56.72 74.68 L 54.82 76.57 L 52.93 78.46 L 51.04 80.35 L 49.14 82.24" fill="none" stroke="#4a6b4a" stroke-width="0.3" opacity="0.6" data-segment="foul_lines" />
    <path d="M 49.83 81.04 L 49.80 81.07 L 49.76 81.11 L 49.73 81.14 L 49.69 81.17 L 49.66 81.21 L 49.63 81.24 L 49.59 81.28 L 49.56 81.31 L 49.53 81.34 L 49.49 81.38 L 49.46 81.41 L 49.42 81.44 L 49.39 81.48 L 49.36 81.51 L 49.32 81.54 L 49.29 81.58 L 49.25 81.61 L 49.22 81.64 L 49.19 81.68 L 49.15 81.71 L 49.12 81.72 L 49.09 81.69 L 49.05 81.65 L 49.02 81.62 L 48.99 81.59 L 48.95 81.55 L 48.92 81.52 L 48.89 81.48 L 48.85 81.45 L 48.82 81.42 L 48.79 81.38 L 48.75 81.35 L 48.72 81.31 L 48.69 81.28 L 48.65 81.25 L 48.62 81.21 L 48.58 81.18 L 48.55 81.15 L 48.52 81.11 L 48.48 81.08 L 48.45 81.04 L 48.45 81.00 L 48.45 80.95 L 48.45 80.90 L 48.45 80.85 L 48.45 80.81 L 48.45 80.76 L 48.45 80.71 L 48.45 80.66 L 48.45 80.62 L 48.45 80.57 L 48.45 80.52 L 48.45 80.47 L 48.45 80.43 L 48.45 80.38 L 48.47 80.35 L 48.52 80.35 L 48.57 80.35 L 48.61 80.35 L 48.66 80.35 L 48.71 80.35 L 48.76 80.35 L 48.80 80.35 L 48.85 80.35 L 48.90 80.35 L 48.95 80.35 L 48.99 80.35 L 49.04 80.35 L 49.09 80.35 L 49.14 80.35 L 49.18 80.35 L 49.23 80.35 L 49.28 80.35 L 49.33 80.35 L 49.37 80.35 L 49.42 80.35 L 49.47 80.35 L 49.52 80.35 L 49.57 80.35 L 49.61 80.35 L 49.66 80.35 L 49.71 80.35 L 49.76 80.35 L 49.80 80.35 L 49.83 80.37 L 49.83 80.42 L 49.83 80.47 L 49.83 80.52 L 49.83 80.56 L 49.83 80.61 L 49.83 80.66 L 49.83 80.71 L 49.83 80.75 L 49.83 80.80 L 49.83 80.85 L 49.83 80.90 L 49.83 80.95 L 49.83 80.99 L 49.83 81.04 Z" fill="#e5e5e5" stroke="#ffffff" stroke-width="0.3" data-segment="home_plate" />
  <text x="50" y="98" text-anchor="middle" font-size="3" fill="#737373" font-family="monospace">LF 355' · CF 400' · RF 353'</text>
</svg>
