<?xml version="1.0" encoding="UTF-8"?>
<svg xmlns="http://www.w3.org/2000/svg" viewBox="0 0 100 100" role="img" aria-label="diamondbacks ballpark">
  <title>diamondbacks</title>
  <rect width="100" height="100" fill="#1a2e1a" />
    <path d="M 3.00 41.38 L 5.12 42.96 L 7.08 44.96 L 9.03 46.95 L 10.98 48.95 L 12.94 50.95 L 14.83 52.99 L 16.23 55.40 L 17.62 57.82 L 19.02 60.24 L 20.42 62.65 L 21.82 65.07 L 23.22 67.49 L 24.62 69.90 L 25.79 71.92 L 26.40 72.58 L 27.79 74.06 L 29.79 76.18 L 32.22 78.76 L 34.92 81.59 L 37.71 84.49 L 40.42 87.28 L 42.88 89.75 L 44.92 91.73 L 46.36 93.02 L 47.83 93.84 L 50.57 94.29 L 53.24 93.57 L 54.41 92.76 L 56.04 91.25 L 58.19 89.09 L 60.71 86.47 L 63.42 83.60 L 66.14 80.66 L 68.72 77.86 L 70.97 75.39 L 72.73 73.45 L 73.83 72.23 L 74.41 71.40 L 75.81 68.99 L 77.21 66.57 L 78.61 64.15 L 80.01 61.74 L 81.40 59.32 L 82.80 56.90 L 84.20 54.49 L 85.75 52.18 L 87.71 50.20 L 89.67 48.21 L 91.63 46.22 L 93.59 44.23 L 95.55 42.25 L 96.82 39.82 L 96.95 37.07 L 96.82 34.28 L 96.49 31.52 L 94.17 30.64 L 91.94 29.07 L 89.84 27.22 L 87.74 25.38 L 85.65 23.53 L 83.57 21.67 L 81.48 19.82 L 79.39 17.97 L 77.30 16.12 L 75.22 14.26 L 73.12 12.41 L 71.03 10.56 L 68.94 8.71 L 66.47 7.72 L 63.68 7.72 L 60.89 7.70 L 58.13 7.63 L 56.41 5.71 L 53.62 5.71 L 50.83 5.71 L 48.04 5.71 L 45.25 5.71 L 42.68 6.11 L 40.77 7.69 L 37.98 7.69 L 35.19 7.69 L 32.40 7.82 L 30.19 9.40 L 28.11 11.26 L 26.02 13.12 L 23.93 14.96 L 21.85 16.83 L 19.77 18.69 L 17.69 20.55 L 15.65 22.46 L 13.57 24.32 L 11.48 26.17 L 9.38 28.01 L 7.28 29.85 L 4.69 30.49 L 3.90 33.07 L 3.70 35.86 L 3.50 38.64 L 3.00 41.38 Z" fill="#243524" stroke="#3d5c3d" stroke-width="0.5" data-segment="outfield_outer" />
    <path d="M 64.46 10.34 L 61.90 10.34 L 59.33 10.34 L 56.77 10.34 L 54.21 10.34 L 51.65 10.34 L 49.09 10.34 L 46.53 10.34 L 43.97 10.34 L 41.41 10.34 L 38.85 10.34 L 36.29 10.34 L 34.21 11.62 L 32.28 13.30 L 30.34 14.98 L 28.41 16.66 L 26.48 18.34 L 24.55 20.02 L 22.62 21.70 L 20.69 23.38 L 18.75 25.06 L 16.82 26.74 L 14.89 28.42 L 12.96 30.10 L 11.03 31.78 L 9.10 33.46 L 7.16 35.14 L 5.86 37.11 L 5.86 39.67 L 7.22 41.68 L 9.00 43.53 L 10.77 45.38 L 12.54 47.22 L 14.32 49.07 L 16.09 50.92 L 17.87 52.76 L 19.41 54.62 L 20.45 56.77 L 21.56 59.20 L 22.72 61.78 L 23.92 64.35 L 25.16 66.78 L 26.41 68.93 L 27.67 70.65 L 29.35 72.56 L 31.47 74.93 L 33.75 77.47 L 35.92 79.87 L 37.69 81.82 L 38.78 83.02 L 39.67 83.92 L 41.49 85.72 L 43.32 87.52 L 45.14 89.31 L 46.97 91.07 L 49.33 91.92 L 51.91 91.80 L 54.11 90.53 L 55.69 88.53 L 57.35 86.58 L 59.00 84.62 L 59.48 84.03 L 60.30 82.98 L 61.86 81.09 L 64.28 78.30 L 67.37 74.88 L 69.12 72.85 L 70.61 70.92 L 71.91 69.04 L 73.10 67.13 L 74.23 65.15 L 75.37 63.03 L 76.58 60.71 L 77.94 58.13 L 79.53 55.47 L 81.35 53.66 L 83.16 51.85 L 84.98 50.05 L 86.79 48.24 L 88.61 46.44 L 90.42 44.63 L 92.24 42.82 L 93.83 40.93 L 93.83 38.37 L 92.80 36.26 L 90.91 34.53 L 89.02 32.81 L 87.13 31.08 L 85.24 29.35 L 83.35 27.62 L 81.46 25.89 L 79.57 24.17 L 77.68 22.44 L 75.79 20.71 L 73.90 18.98 L 72.01 17.26 L 70.12 15.53 L 68.23 13.80 L 66.34 12.07 L 64.46 10.34" fill="none" stroke="#3d5c3d" stroke-width="0.25" opacity="0.4" data-segment="outfield_inner" />
    <path d="M 53.90 85.51 L 53.45 83.72 L 54.62 82.40 L 55.96 81.11 L 57.30 79.81 L 58.64 78.52 L 59.99 77.23 L 61.33 75.93 L 62.67 74.64 L 64.01 73.34 L 65.35 72.05 L 66.69 70.75 L 68.03 69.46 L 68.69 68.74 L 68.50 68.29 L 68.12 67.47 L 67.53 66.33 L 66.75 64.96 L 65.76 63.42 L 64.56 61.80 L 63.15 60.16 L 61.53 58.58 L 59.69 57.12 L 57.63 55.88 L 55.34 54.90 L 52.82 54.28 L 50.07 54.08 L 47.29 54.34 L 44.74 55.00 L 42.43 55.99 L 40.35 57.24 L 38.50 58.67 L 36.87 60.22 L 35.46 61.82 L 34.26 63.40 L 33.28 64.87 L 32.50 66.19 L 31.93 67.26 L 31.56 68.03 L 31.39 68.42 L 32.21 69.25 L 33.55 70.54 L 34.90 71.83 L 36.25 73.12 L 37.59 74.41 L 38.94 75.70 L 40.28 77.00 L 41.63 78.29 L 42.97 79.58 L 44.32 80.87 L 45.66 82.16 L 46.75 83.45 L 46.11 85.24 L 46.17 86.92 L 44.64 87.98 L 44.44 89.26 L 45.59 89.93 L 46.83 88.54 L 48.25 88.89 L 50.06 89.30 L 51.85 88.84 L 53.28 88.58 L 54.62 89.89 L 55.87 89.43 L 56.33 88.18 L 54.61 87.47 L 53.80 86.35 L 53.90 85.51 Z" fill="#2a3f2a" stroke="#4a6b4a" stroke-width="0.4" data-segment="infield_outer" />
    <path d="M 40.13 72.35 L 41.04 70.72 L 41.12 69.03 L 42.46 67.73 L 43.80 66.43 L 45.13 65.13 L 46.47 63.83 L 47.82 62.56 L 49.68 62.58 L 51.54 62.60 L 53.08 63.43 L 54.41 64.73 L 55.75 66.03 L 57.08 67.33 L 58.42 68.63 L 58.99 70.15 L 59.52 71.83 L 60.55 73.22 L 59.22 74.52 L 57.88 75.82 L 56.54 77.12 L 55.20 78.42 L 53.87 79.72 L 52.53 81.02 L 50.87 81.54 L 49.01 81.55 L 47.37 81.02 L 46.05 79.70 L 44.73 78.38 L 43.42 77.06 L 42.10 75.74 L 40.78 74.42 L 40.13 72.35" fill="none" stroke="#4a6b4a" stroke-width="0.25" opacity="0.5" data-segment="infield_inner" />
    <path d="M 50.02 86.03 L 48.12 84.13 L 46.21 82.22 L 44.31 80.32 L 42.41 78.42 L 40.50 76.51 L 38.60 74.61 L 36.70 72.71 L 34.80 70.80 L 32.89 68.90 L 30.99 67.00 L 29.09 65.09 L 27.18 63.19 L 25.28 61.29 L 23.38 59.38 L 21.48 57.48 L 19.57 55.58 L 17.67 53.67 L 15.77 51.77 L 13.87 49.86 L 11.96 47.96 L 10.06 46.06 L 8.16 44.15 L 6.25 42.25 L 4.35 40.35 L 3.83 38.81 L 5.73 40.71 L 7.63 42.62 L 9.54 44.52 L 11.44 46.42 L 13.34 48.33 L 15.24 50.23 L 17.15 52.14 L 19.05 54.04 L 20.95 55.94 L 22.86 57.85 L 24.76 59.75 L 26.66 61.65 L 28.56 63.56 L 30.47 65.46 L 32.37 67.36 L 34.27 69.27 L 36.18 71.17 L 38.08 73.07 L 39.98 74.98 L 41.88 76.88 L 43.79 78.79 L 45.69 80.69 L 47.59 82.59 L 49.49 84.50 L 51.40 83.64 L 53.30 81.74 L 55.21 79.84 L 57.11 77.94 L 59.02 76.03 L 60.92 74.13 L 62.83 72.23 L 64.73 70.33 L 66.64 68.43 L 68.54 66.53 L 70.44 64.62 L 72.35 62.72 L 74.25 60.82 L 76.16 58.92 L 78.06 57.02 L 79.97 55.12 L 81.87 53.21 L 83.78 51.31 L 85.68 49.41 L 87.59 47.51 L 89.49 45.61 L 91.40 43.71 L 93.30 41.80 L 95.20 39.90 L 97.00 38.24 L 95.73 40.39 L 93.82 42.29 L 91.92 44.19 L 90.01 46.10 L 88.11 48.00 L 86.21 49.90 L 84.30 51.80 L 82.40 53.70 L 80.49 55.60 L 78.59 57.51 L 76.68 59.41 L 74.78 61.31 L 72.87 63.21 L 70.97 65.11 L 69.06 67.01 L 67.16 68.92 L 65.25 70.82 L 63.35 72.72 L 61.45 74.62 L 59.54 76.52 L 57.64 78.42 L 55.73 80.33 L 53.83 82.23 L 51.92 84.13 L 50.02 86.03" fill="none" stroke="#4a6b4a" stroke-width="0.3" opacity="0.6" data-segment="foul_lines" />
    <path d="M 50.74 84.77 L 50.71 84.80 L 50.67 84.84 L 50.64 84.87 L 50.60 84.91 L 50.57 84.94 L 50.53 84.98 L 50.49 85.01 L 50.46 85.05 L 50.42 85.08 L 50.39 85.12 L 50.35 85.16 L 50.32 85.19 L 50.28 85.23 L 50.24 85.26 L 50.21 85.30 L 50.17 85.33 L 50.14 85.37 L 50.10 85.40 L 50.07 85.44 L 50.03 85.47 L 50.00 85.48 L 49.96 85.45 L 49.93 85.41 L 49.89 85.38 L 49.85 85.34 L 49.82 85.31 L 49.78 85.27 L 49.75 85.23 L 49.71 85.20 L 49.68 85.16 L 49.64 85.13 L 49.61 85.09 L 49.57 85.06 L 49.54 85.02 L 49.50 84.98 L 49.47 84.95 L 49.43 84.91 L 49.40 84.88 L 49.36 84.84 L 49.33 84.81 L 49.29 84.77 L 49.29 84.72 L 49.29 84.67 L 49.29 84.62 L 49.29 84.57 L 49.29 84.52 L 49.29 84.47 L 49.29 84.42 L 49.29 84.37 L 49.29 84.32 L 49.29 84.27 L 49.29 84.22 L 49.29 84.17 L 49.29 84.12 L 49.29 84.07 L 49.31 84.04 L 49.36 84.04 L 49.41 84.04 L 49.46 84.04 L 49.51 84.04 L 49.56 84.04 L 49.61 84.04 L 49.66 84.04 L 49.71 84.04 L 49.76 84.04 L 49.81 84.04 L 49.86 84.04 L 49.91 84.04 L 49.96 84.04 L 50.01 84.04 L 50.06 84.04 L 50.11 84.04 L 50.16 84.04 L 50.21 84.04 L 50.26 84.04 L 50.31 84.04 L 50.36 84.04 L 50.41 84.04 L 50.47 84.04 L 50.52 84.04 L 50.57 84.04 L 50.62 84.04 L 50.67 84.04 L 50.72 84.04 L 50.74 84.06 L 50.74 84.11 L 50.74 84.16 L 50.74 84.21 L 50.74 84.26 L 50.74 84.31 L 50.74 84.36 L 50.74 84.42 L 50.74 84.47 L 50.74 84.52 L 50.74 84.57 L 50.74 84.62 L 50.74 84.67 L 50.74 84.72 L 50.74 84.77 Z" fill="#e5e5e5" stroke="#ffffff" stroke-width="0.3" data-segment="home_plate" />
  <text x="50" y="98" text-anchor="middle" font-size="3" fill="#737373" font-family="monospace">LF 328' · CF 407' · RF 335'</text>
</svg>
