<?xml version="1.0" encoding="UTF-8"?>
<svg xmlns="http://www.w3.org/2000/svg" viewBox="0 0 100 100" role="img" aria-label="dodgers ballpark">
  <title>dodgers</title>
  <rect width="100" height="100" fill="#1a2e1a" />
    <path d="M 97.00 36.93 L 96.71 34.06 L 96.38 31.20 L 95.49 28.46 L 94.18 25.90 L 92.49 23.58 L 90.12 21.95 L 87.71 20.35 L 85.31 18.76 L 82.91 17.16 L 80.50 15.58 L 78.03 14.09 L 75.53 12.64 L 72.99 11.28 L 70.42 9.97 L 67.80 8.77 L 65.13 7.68 L 62.46 6.59 L 59.72 5.67 L 56.97 4.81 L 54.12 4.34 L 51.25 4.14 L 48.36 4.15 L 45.49 4.41 L 42.66 4.94 L 39.91 5.81 L 37.19 6.75 L 34.52 7.84 L 31.84 8.93 L 29.24 10.17 L 26.67 11.48 L 24.14 12.86 L 21.64 14.30 L 19.19 15.81 L 16.78 17.40 L 14.37 19.00 L 11.97 20.59 L 9.57 22.18 L 7.26 23.89 L 5.66 26.28 L 4.42 28.88 L 3.61 31.63 L 3.31 34.50 L 3.00 37.37 L 3.91 39.80 L 5.95 41.84 L 7.98 43.89 L 10.02 45.93 L 12.05 47.98 L 14.09 50.02 L 16.12 52.07 L 18.16 54.11 L 19.41 56.58 L 20.03 59.40 L 20.64 62.22 L 21.25 65.04 L 21.86 67.86 L 22.47 70.68 L 23.08 73.49 L 24.49 75.98 L 26.10 78.37 L 27.70 80.76 L 29.31 83.16 L 30.92 85.55 L 32.63 87.88 L 34.63 89.95 L 36.87 91.76 L 39.33 93.27 L 41.96 94.45 L 44.72 95.28 L 47.56 95.76 L 50.94 95.86 L 55.08 95.38 L 58.59 94.39 L 61.50 93.06 L 63.84 91.58 L 65.63 90.13 L 66.91 88.88 L 68.12 87.54 L 70.02 85.37 L 71.86 83.15 L 73.62 80.87 L 75.32 78.54 L 76.95 76.16 L 78.34 73.67 L 78.83 70.82 L 79.31 67.98 L 79.79 65.13 L 80.28 62.29 L 80.76 59.45 L 81.24 56.60 L 82.26 54.04 L 84.30 51.99 L 86.34 49.95 L 88.37 47.91 L 90.41 45.86 L 92.45 43.82 L 94.48 41.78 L 96.52 39.74 L 97.00 36.93 Z" fill="#243524" stroke="#3d5c3d" stroke-width="0.5" data-segment="outfield_outer" />
    <path d="M 22.29 55.96 L 20.42 54.10 L 18.54 52.24 L 16.67 50.39 L 14.80 48.53 L 12.92 46.67 L 11.05 44.81 L 9.18 42.96 L 8.07 41.72 L 7.58 40.01 L 7.05 37.13 L 7.02 33.74 L 8.00 30.54 L 8.68 29.53 L 9.52 28.43 L 10.59 27.20 L 11.86 25.86 L 13.34 24.42 L 15.02 22.93 L 16.90 21.40 L 18.96 19.86 L 21.20 18.33 L 23.61 16.84 L 26.19 15.42 L 28.93 14.09 L 31.83 12.87 L 34.87 11.80 L 38.05 10.90 L 41.38 10.18 L 44.82 9.69 L 48.40 9.44 L 52.14 9.46 L 55.83 9.78 L 59.37 10.35 L 62.74 11.15 L 65.96 12.15 L 69.00 13.32 L 71.87 14.62 L 74.57 16.01 L 77.08 17.48 L 79.41 18.99 L 81.55 20.50 L 83.49 21.98 L 85.23 23.40 L 86.78 24.74 L 88.11 25.95 L 89.24 27.00 L 90.14 27.87 L 90.84 28.53 L 92.37 30.61 L 93.22 33.16 L 93.44 35.91 L 93.08 38.60 L 92.21 40.96 L 91.01 42.66 L 89.11 44.74 L 86.69 47.18 L 84.10 49.69 L 81.71 51.95 L 79.87 53.66 L 78.94 54.51 L 78.60 56.45 L 78.21 59.06 L 77.81 61.67 L 77.42 64.28 L 77.02 66.89 L 76.62 69.49 L 76.23 72.10 L 74.85 74.27 L 73.18 76.32 L 71.51 78.36 L 69.85 80.40 L 68.18 82.45 L 66.51 84.49 L 65.87 85.29 L 65.04 86.22 L 63.55 87.64 L 61.41 89.27 L 58.65 90.85 L 55.27 92.11 L 51.30 92.80 L 49.35 92.64 L 47.39 91.60 L 44.37 90.00 L 40.91 88.17 L 37.64 86.44 L 35.19 85.14 L 34.17 84.60 L 32.77 82.50 L 31.31 80.30 L 29.84 78.11 L 28.38 75.91 L 26.92 73.72 L 25.73 71.40 L 25.16 68.83 L 24.59 66.25 L 24.01 63.68 L 23.44 61.10 L 22.86 58.53 L 22.29 55.96" fill="none" stroke="#3d5c3d" stroke-width="0.25" opacity="0.4" data-segment="outfield_inner" />
    <path d="M 69.00 66.73 L 68.92 66.53 L 68.67 65.96 L 68.25 65.09 L 67.66 63.96 L 66.90 62.65 L 65.95 61.20 L 64.83 59.69 L 63.53 58.15 L 62.04 56.66 L 60.36 55.27 L 58.50 54.04 L 56.44 53.02 L 54.18 52.28 L 51.73 51.88 L 49.09 51.86 L 46.56 52.23 L 44.23 52.92 L 42.10 53.89 L 40.17 55.08 L 38.44 56.42 L 36.90 57.87 L 35.55 59.36 L 34.39 60.84 L 33.41 62.26 L 32.61 63.55 L 31.99 64.67 L 31.55 65.55 L 31.28 66.13 L 31.17 66.37 L 32.29 67.45 L 33.55 68.65 L 34.81 69.86 L 36.06 71.07 L 37.32 72.28 L 38.58 73.48 L 39.84 74.69 L 41.10 75.90 L 42.35 77.10 L 43.61 78.31 L 44.87 79.52 L 46.13 80.73 L 46.45 82.03 L 46.09 83.70 L 46.49 85.38 L 47.58 86.73 L 49.14 87.48 L 50.87 87.50 L 52.44 86.77 L 53.55 85.45 L 53.99 83.78 L 53.66 82.08 L 54.40 80.79 L 55.66 79.58 L 56.92 78.37 L 58.17 77.16 L 59.43 75.95 L 60.68 74.74 L 61.94 73.53 L 63.20 72.32 L 64.45 71.11 L 65.71 69.90 L 66.96 68.69 L 68.22 67.48 L 69.00 66.73 Z" fill="#2a3f2a" stroke="#4a6b4a" stroke-width="0.4" data-segment="infield_outer" />
    <path d="M 49.39 79.84 L 47.90 79.57 L 46.66 78.35 L 45.41 77.13 L 44.16 75.92 L 42.91 74.70 L 41.66 73.48 L 40.41 72.26 L 39.95 70.98 L 40.48 69.33 L 40.34 67.66 L 41.59 66.44 L 42.84 65.22 L 44.08 64.00 L 45.33 62.79 L 46.58 61.57 L 47.84 60.42 L 49.44 61.06 L 51.17 60.97 L 52.66 60.79 L 53.91 62.01 L 55.16 63.22 L 56.40 64.44 L 57.65 65.66 L 58.90 66.88 L 59.70 68.21 L 59.71 69.94 L 60.43 71.47 L 59.19 72.69 L 57.94 73.91 L 56.69 75.12 L 55.44 76.34 L 54.19 77.56 L 52.94 78.77 L 51.69 79.99 L 49.39 79.84" fill="none" stroke="#4a6b4a" stroke-width="0.25" opacity="0.5" data-segment="infield_inner" />
    <path d="M 50.06 84.16 L 48.15 82.25 L 46.24 80.34 L 44.33 78.43 L 42.42 76.52 L 40.51 74.61 L 38.60 72.70 L 36.69 70.79 L 34.78 68.88 L 32.87 66.97 L 30.96 65.06 L 29.05 63.15 L 27.15 61.24 L 25.24 59.33 L 23.33 57.42 L 21.42 55.51 L 19.51 53.60 L 17.60 51.69 L 15.69 49.78 L 13.78 47.87 L 11.87 45.96 L 9.96 44.05 L 8.05 42.14 L 6.14 40.23 L 4.23 38.32 L 3.17 36.22 L 5.08 38.13 L 6.98 40.04 L 8.89 41.95 L 10.80 43.87 L 12.71 45.78 L 14.62 47.69 L 16.53 49.60 L 18.44 51.51 L 20.35 53.42 L 22.26 55.33 L 24.17 57.24 L 26.08 59.15 L 27.99 61.06 L 29.90 62.97 L 31.81 64.88 L 33.72 66.79 L 35.62 68.70 L 37.53 70.61 L 39.44 72.52 L 41.35 74.43 L 43.26 76.34 L 45.17 78.25 L 47.08 80.16 L 48.99 82.07 L 50.90 82.29 L 52.81 80.39 L 54.72 78.48 L 56.63 76.57 L 58.54 74.66 L 60.46 72.75 L 62.37 70.84 L 64.28 68.94 L 66.19 67.03 L 68.10 65.12 L 70.01 63.21 L 71.92 61.30 L 73.83 59.39 L 75.75 57.49 L 77.66 55.58 L 79.57 53.67 L 81.48 51.76 L 83.39 49.85 L 85.30 47.95 L 87.21 46.04 L 89.12 44.13 L 91.04 42.22 L 92.95 40.31 L 94.86 38.40 L 96.77 36.50 L 95.93 38.36 L 94.02 40.27 L 92.10 42.18 L 90.19 44.09 L 88.28 46.00 L 86.37 47.90 L 84.46 49.81 L 82.55 51.72 L 80.64 53.63 L 78.73 55.54 L 76.81 57.45 L 74.90 59.35 L 72.99 61.26 L 71.08 63.17 L 69.17 65.08 L 67.26 66.99 L 65.35 68.89 L 63.44 70.80 L 61.52 72.71 L 59.61 74.62 L 57.70 76.53 L 55.79 78.44 L 53.88 80.34 L 51.97 82.25 L 50.06 84.16" fill="none" stroke="#4a6b4a" stroke-width="0.3" opacity="0.6" data-segment="foul_lines" />
    <path d="M 50.79 82.88 L 50.76 82.91 L 50.72 82.95 L 50.68 82.99 L 50.65 83.02 L 50.61 83.06 L 50.58 83.09 L 50.54 83.13 L 50.50 83.17 L 50.47 83.20 L 50.43 83.24 L 50.40 83.27 L 50.36 83.31 L 50.32 83.34 L 50.29 83.38 L 50.25 83.42 L 50.22 83.45 L 50.18 83.49 L 50.14 83.52 L 50.11 83.56 L 50.07 83.60 L 50.03 83.61 L 50.00 83.57 L 49.96 83.53 L 49.93 83.50 L 49.89 83.46 L 49.86 83.43 L 49.82 83.39 L 49.78 83.35 L 49.75 83.32 L 49.71 83.28 L 49.68 83.24 L 49.64 83.21 L 49.61 83.17 L 49.57 83.14 L 49.53 83.10 L 49.50 83.06 L 49.46 83.03 L 49.43 82.99 L 49.39 82.95 L 49.36 82.92 L 49.32 82.88 L 49.32 82.83 L 49.32 82.78 L 49.32 82.73 L 49.32 82.68 L 49.32 82.63 L 49.32 82.58 L 49.32 82.53 L 49.32 82.48 L 49.32 82.43 L 49.32 82.37 L 49.32 82.32 L 49.32 82.27 L 49.32 82.22 L 49.32 82.17 L 49.34 82.14 L 49.39 82.14 L 49.44 82.14 L 49.49 82.14 L 49.54 82.14 L 49.59 82.14 L 49.65 82.14 L 49.70 82.14 L 49.75 82.14 L 49.80 82.14 L 49.85 82.14 L 49.90 82.14 L 49.95 82.14 L 50.00 82.14 L 50.05 82.14 L 50.10 82.14 L 50.15 82.14 L 50.21 82.14 L 50.26 82.14 L 50.31 82.14 L 50.36 82.14 L 50.41 82.14 L 50.46 82.14 L 50.51 82.14 L 50.56 82.14 L 50.61 82.14 L 50.66 82.14 L 50.71 82.14 L 50.76 82.14 L 50.79 82.17 L 50.79 82.22 L 50.79 82.27 L 50.79 82.32 L 50.79 82.37 L 50.79 82.42 L 50.79 82.47 L 50.79 82.52 L 50.79 82.57 L 50.79 82.62 L 50.79 82.68 L 50.79 82.73 L 50.79 82.78 L 50.79 82.83 L 50.79 82.88 Z" fill="#e5e5e5" stroke="#ffffff" stroke-width="0.3" data-segment="home_plate" />
  <text x="50" y="98" text-anchor="middle" font-size="3" fill="#737373" font-family="monospace">LF 330' · CF 395' · RF 330'</text>
</svg>
