<?xml version="1.0" encoding="UTF-8"?>
<svg xmlns="http://www.w3.org/2000/svg" viewBox="0 0 100 100" role="img" aria-label="giants ballpark">
  <title>giants</title>
  <rect width="100" height="100" fill="#1a2e1a" />
    <path d="M 96.72 41.40 L 95.70 38.71 L 94.68 36.02 L 93.64 33.34 L 92.63 30.65 L 91.61 27.96 L 90.59 25.28 L 89.58 22.59 L 87.84 20.45 L 85.71 18.78 L 84.65 16.11 L 83.61 13.43 L 82.58 10.75 L 81.55 8.07 L 80.52 5.38 L 77.97 4.91 L 75.10 4.91 L 72.22 4.91 L 69.35 4.91 L 66.47 4.91 L 63.60 4.91 L 60.72 4.91 L 57.85 4.91 L 54.97 4.91 L 52.10 4.91 L 49.23 4.91 L 46.35 4.91 L 43.48 4.91 L 40.60 4.91 L 37.90 5.34 L 35.73 7.23 L 33.54 9.09 L 31.34 10.94 L 29.15 12.81 L 26.95 14.66 L 24.76 16.51 L 22.56 18.37 L 20.35 20.20 L 18.16 22.07 L 15.97 23.93 L 13.77 25.77 L 11.57 27.62 L 9.37 29.48 L 7.18 31.34 L 5.42 33.55 L 4.44 36.25 L 3.00 38.71 L 4.77 40.76 L 6.81 42.78 L 8.86 44.80 L 10.91 46.81 L 12.84 48.92 L 14.30 51.40 L 15.75 53.88 L 17.21 56.35 L 18.66 58.83 L 20.12 61.31 L 21.57 63.79 L 23.03 66.27 L 25.24 66.67 L 27.02 68.87 L 28.78 71.14 L 30.54 73.41 L 32.30 75.69 L 34.06 77.96 L 35.82 80.23 L 37.58 82.50 L 39.34 84.78 L 41.10 87.05 L 42.86 89.32 L 44.62 91.60 L 47.66 93.13 L 51.31 95.09 L 54.57 95.02 L 57.20 93.83 L 58.97 92.43 L 59.62 91.75 L 61.81 90.52 L 63.64 88.30 L 65.46 86.08 L 67.28 83.85 L 69.10 81.63 L 70.92 79.40 L 72.74 77.18 L 74.56 74.96 L 76.39 72.73 L 78.21 70.51 L 80.03 68.29 L 81.95 66.64 L 83.91 65.60 L 85.62 63.29 L 87.00 61.36 L 87.96 59.24 L 89.47 55.79 L 91.09 52.01 L 92.41 48.94 L 92.99 47.58 L 94.94 45.68 L 97.00 43.68 L 96.72 41.40 Z" fill="#243524" stroke="#3d5c3d" stroke-width="0.5" data-segment="outfield_outer" />
    <path d="M 46.82 88.36 L 45.18 86.33 L 43.54 84.31 L 41.90 82.28 L 40.26 80.26 L 38.62 78.24 L 36.98 76.21 L 35.34 74.19 L 33.70 72.16 L 32.06 70.14 L 30.42 68.11 L 28.78 66.09 L 27.13 64.07 L 24.96 63.29 L 23.72 61.00 L 22.47 58.71 L 21.23 56.42 L 19.99 54.12 L 18.75 51.83 L 17.51 49.54 L 16.27 47.25 L 14.88 45.06 L 13.11 43.15 L 11.34 41.24 L 9.58 39.32 L 9.38 37.09 L 10.26 34.64 L 12.01 32.79 L 14.00 31.10 L 15.98 29.42 L 17.97 27.73 L 19.96 26.05 L 21.94 24.36 L 23.93 22.67 L 25.92 20.99 L 27.90 19.30 L 29.89 17.62 L 31.88 15.93 L 33.87 14.25 L 35.85 12.56 L 37.84 10.87 L 39.83 9.19 L 42.35 8.96 L 44.95 8.96 L 47.56 8.96 L 50.16 8.96 L 52.77 8.96 L 55.38 8.96 L 57.98 8.96 L 60.59 8.96 L 63.19 8.96 L 65.80 8.96 L 68.40 8.96 L 71.01 8.96 L 73.62 8.96 L 76.22 8.96 L 78.73 9.10 L 79.67 11.53 L 80.60 13.96 L 81.54 16.39 L 82.48 18.83 L 83.41 21.26 L 84.35 23.69 L 86.10 25.38 L 88.33 26.63 L 89.18 29.10 L 90.04 31.56 L 90.89 34.02 L 91.74 36.48 L 92.60 38.94 L 93.45 41.41 L 92.79 43.57 L 91.06 45.52 L 90.07 46.77 L 89.25 48.61 L 87.90 51.61 L 86.36 55.05 L 84.94 58.18 L 83.97 60.28 L 82.97 61.78 L 81.42 63.86 L 79.27 63.90 L 77.60 65.89 L 75.93 67.89 L 74.25 69.89 L 72.58 71.89 L 70.91 73.88 L 69.24 75.88 L 67.56 77.88 L 65.89 79.88 L 64.22 81.87 L 62.54 83.87 L 60.87 85.87 L 59.20 87.87 L 58.56 88.71 L 57.37 90.10 L 55.45 91.61 L 52.95 92.38 L 50.02 91.58 L 46.82 88.36" fill="none" stroke="#3d5c3d" stroke-width="0.25" opacity="0.4" data-segment="outfield_inner" />
    <path d="M 71.72 68.37 L 71.64 68.16 L 71.39 67.59 L 70.96 66.70 L 70.36 65.57 L 69.59 64.24 L 68.63 62.78 L 67.50 61.25 L 66.18 59.70 L 64.67 58.20 L 62.97 56.80 L 61.07 55.57 L 58.98 54.56 L 56.70 53.84 L 54.21 53.46 L 51.54 53.47 L 49.01 53.88 L 46.68 54.60 L 44.55 55.60 L 42.63 56.82 L 40.90 58.19 L 39.37 59.65 L 38.03 61.16 L 36.88 62.65 L 35.92 64.06 L 35.14 65.35 L 34.54 66.44 L 34.12 67.29 L 33.87 67.83 L 33.85 68.07 L 35.12 69.28 L 36.39 70.50 L 37.66 71.72 L 38.92 72.94 L 40.19 74.15 L 41.46 75.37 L 42.73 76.59 L 44.00 77.80 L 45.27 79.02 L 46.54 80.24 L 47.80 81.46 L 49.07 82.67 L 48.95 84.11 L 48.78 85.79 L 49.36 87.44 L 50.60 88.67 L 52.24 89.25 L 53.97 89.07 L 55.46 88.17 L 56.42 86.71 L 56.66 84.98 L 56.18 83.34 L 57.45 82.12 L 58.71 80.90 L 59.98 79.68 L 61.24 78.46 L 62.51 77.24 L 63.78 76.02 L 65.04 74.80 L 66.31 73.58 L 67.57 72.36 L 68.84 71.14 L 70.11 69.92 L 71.37 68.70 L 71.72 68.37 Z" fill="#2a3f2a" stroke="#4a6b4a" stroke-width="0.4" data-segment="infield_outer" />
    <path d="M 51.46 81.66 L 50.13 80.81 L 48.87 79.58 L 47.61 78.35 L 46.35 77.12 L 45.10 75.89 L 43.84 74.66 L 42.58 73.44 L 42.33 72.16 L 43.41 70.81 L 43.16 69.10 L 44.42 67.87 L 45.68 66.64 L 46.94 65.41 L 48.19 64.18 L 49.45 62.95 L 50.76 62.23 L 52.43 62.73 L 54.16 62.47 L 55.57 62.68 L 56.84 63.90 L 58.10 65.12 L 59.36 66.34 L 60.63 67.57 L 61.89 68.79 L 61.94 70.35 L 62.69 71.78 L 63.19 73.07 L 61.93 74.29 L 60.67 75.52 L 59.41 76.75 L 58.15 77.98 L 56.90 79.20 L 55.64 80.43 L 54.38 81.66 L 51.46 81.66" fill="none" stroke="#4a6b4a" stroke-width="0.25" opacity="0.5" data-segment="infield_inner" />
    <path d="M 52.73 85.85 L 50.85 83.97 L 48.97 82.09 L 47.09 80.21 L 45.21 78.33 L 43.33 76.44 L 41.45 74.56 L 39.57 72.68 L 37.69 70.80 L 35.81 68.92 L 33.93 67.04 L 32.05 65.16 L 30.18 63.28 L 28.30 61.40 L 26.42 59.52 L 24.54 57.64 L 22.66 55.76 L 20.78 53.88 L 18.90 52.00 L 17.02 50.12 L 15.14 48.24 L 13.26 46.36 L 11.38 44.48 L 9.50 42.60 L 7.62 40.72 L 5.74 38.84 L 4.20 36.89 L 5.92 37.98 L 7.80 39.86 L 9.67 41.74 L 11.55 43.62 L 13.43 45.50 L 15.31 47.38 L 17.19 49.26 L 19.07 51.14 L 20.95 53.02 L 22.83 54.90 L 24.71 56.78 L 26.59 58.66 L 28.47 60.54 L 30.35 62.42 L 32.23 64.31 L 34.11 66.19 L 35.99 68.07 L 37.86 69.95 L 39.74 71.83 L 41.62 73.71 L 43.50 75.59 L 45.38 77.47 L 47.26 79.35 L 49.14 81.23 L 51.02 83.11 L 52.90 84.65 L 54.78 82.77 L 56.66 80.89 L 58.54 79.01 L 60.43 77.13 L 62.31 75.26 L 64.19 73.38 L 66.07 71.50 L 67.95 69.62 L 69.83 67.74 L 71.71 65.86 L 73.59 63.98 L 75.48 62.11 L 77.36 60.23 L 79.24 58.35 L 81.12 56.47 L 83.00 54.59 L 84.88 52.71 L 86.76 50.84 L 88.64 48.96 L 90.53 47.08 L 92.41 45.20 L 94.29 43.32 L 96.17 41.44 L 96.00 42.64 L 94.11 44.52 L 92.23 46.40 L 90.35 48.28 L 88.47 50.15 L 86.59 52.03 L 84.71 53.91 L 82.83 55.79 L 80.95 57.67 L 79.07 59.55 L 77.18 61.43 L 75.30 63.30 L 73.42 65.18 L 71.54 67.06 L 69.66 68.94 L 67.78 70.82 L 65.90 72.70 L 64.02 74.57 L 62.13 76.45 L 60.25 78.33 L 58.37 80.21 L 56.49 82.09 L 54.61 83.97 L 52.73 85.85" fill="none" stroke="#4a6b4a" stroke-width="0.3" opacity="0.6" data-segment="foul_lines" />
    <path d="M 53.47 84.56 L 53.43 84.60 L 53.39 84.63 L 53.36 84.67 L 53.32 84.70 L 53.29 84.74 L 53.25 84.78 L 53.21 84.81 L 53.18 84.85 L 53.14 84.88 L 53.10 84.92 L 53.07 84.96 L 53.03 84.99 L 53.00 85.03 L 52.96 85.06 L 52.92 85.10 L 52.89 85.14 L 52.85 85.17 L 52.81 85.21 L 52.78 85.24 L 52.74 85.28 L 52.71 85.29 L 52.67 85.25 L 52.63 85.22 L 52.60 85.18 L 52.56 85.14 L 52.53 85.11 L 52.49 85.07 L 52.46 85.04 L 52.42 85.00 L 52.38 84.96 L 52.35 84.93 L 52.31 84.89 L 52.28 84.85 L 52.24 84.82 L 52.20 84.78 L 52.17 84.75 L 52.13 84.71 L 52.10 84.67 L 52.06 84.64 L 52.03 84.60 L 51.99 84.56 L 51.99 84.51 L 51.99 84.46 L 51.99 84.41 L 51.99 84.36 L 51.99 84.31 L 51.99 84.26 L 51.99 84.21 L 51.99 84.16 L 51.99 84.11 L 51.99 84.05 L 51.99 84.00 L 51.99 83.95 L 51.99 83.90 L 51.99 83.85 L 52.01 83.82 L 52.06 83.82 L 52.11 83.82 L 52.16 83.82 L 52.21 83.82 L 52.27 83.82 L 52.32 83.82 L 52.37 83.82 L 52.42 83.82 L 52.47 83.82 L 52.52 83.82 L 52.57 83.82 L 52.62 83.82 L 52.67 83.82 L 52.72 83.82 L 52.78 83.82 L 52.83 83.82 L 52.88 83.82 L 52.93 83.82 L 52.98 83.82 L 53.03 83.82 L 53.08 83.82 L 53.13 83.82 L 53.18 83.82 L 53.23 83.82 L 53.29 83.82 L 53.34 83.82 L 53.39 83.82 L 53.44 83.82 L 53.47 83.85 L 53.47 83.90 L 53.47 83.95 L 53.47 84.00 L 53.47 84.05 L 53.47 84.10 L 53.47 84.15 L 53.47 84.20 L 53.47 84.25 L 53.47 84.31 L 53.47 84.36 L 53.47 84.41 L 53.47 84.46 L 53.47 84.51 L 53.47 84.56 Z" fill="#e5e5e5" stroke="#ffffff" stroke-width="0.3" data-segment="home_plate" />
  <text x="50" y="98" text-anchor="middle" font-size="3" fill="#737373" font-family="monospace">LF 339' · CF 391' · RF 309'</text>
</svg>
