<?xml version="1.0" encoding="UTF-8"?>
<svg xmlns="http://www.w3.org/2000/svg" viewBox="0 0 100 100" role="img" aria-label="guardians ballpark">
  <title>guardians</title>
  <rect width="100" height="100" fill="#1a2e1a" />
    <path d="M 96.79 38.95 L 95.21 36.64 L 93.65 34.32 L 92.09 31.99 L 90.52 29.68 L 88.98 27.34 L 87.43 25.02 L 85.87 22.69 L 84.28 20.39 L 82.72 18.07 L 80.81 16.07 L 78.21 15.05 L 75.59 14.06 L 72.99 13.04 L 70.38 12.02 L 67.77 11.01 L 65.16 10.01 L 62.55 9.02 L 59.93 8.04 L 57.31 7.05 L 54.69 6.07 L 52.07 5.09 L 49.43 4.16 L 46.82 3.17 L 44.14 3.00 L 41.81 4.53 L 39.49 6.10 L 37.17 7.67 L 34.85 9.23 L 32.54 10.80 L 30.21 12.35 L 27.90 13.93 L 25.57 15.47 L 23.24 17.03 L 20.92 18.59 L 18.60 20.15 L 16.27 21.71 L 13.96 23.28 L 11.65 24.86 L 9.93 26.98 L 8.57 29.42 L 7.23 31.88 L 5.90 34.34 L 4.55 36.79 L 3.21 39.25 L 3.26 41.48 L 5.22 43.48 L 7.18 45.47 L 9.14 47.47 L 11.10 49.46 L 13.06 51.46 L 15.02 53.45 L 16.58 55.77 L 18.13 58.10 L 19.67 60.43 L 21.22 62.77 L 22.76 65.10 L 24.31 67.43 L 25.85 69.76 L 27.40 72.09 L 28.95 74.43 L 30.49 76.76 L 32.04 79.09 L 33.58 81.42 L 35.13 83.75 L 36.67 86.09 L 38.22 88.42 L 39.76 90.75 L 41.38 93.03 L 43.44 94.91 L 45.89 96.24 L 48.59 96.95 L 51.38 97.00 L 54.10 96.36 L 56.57 95.07 L 58.64 93.20 L 59.71 91.85 L 60.31 91.18 L 61.28 89.93 L 62.59 88.17 L 64.18 85.97 L 66.01 83.40 L 68.03 80.52 L 70.20 77.40 L 72.48 74.12 L 74.82 70.73 L 77.17 67.31 L 79.49 63.93 L 81.73 60.65 L 83.85 57.54 L 85.80 54.68 L 87.53 52.12 L 89.01 49.94 L 90.19 48.20 L 91.02 46.98 L 91.45 46.34 L 92.47 45.22 L 94.37 43.16 L 96.27 41.10 L 96.79 38.95 Z" fill="#243524" stroke="#3d5c3d" stroke-width="0.5" data-segment="outfield_outer" />
    <path d="M 6.32 39.93 L 7.51 37.66 L 8.71 35.38 L 9.91 33.10 L 11.11 30.83 L 12.31 28.55 L 14.25 26.97 L 16.44 25.63 L 18.64 24.30 L 20.84 22.96 L 23.04 21.62 L 25.24 20.28 L 27.43 18.95 L 29.63 17.61 L 31.83 16.27 L 34.03 14.93 L 36.22 13.60 L 38.42 12.26 L 40.62 10.92 L 42.82 9.58 L 45.02 8.25 L 47.26 7.36 L 49.70 8.19 L 52.13 9.02 L 54.57 9.85 L 57.00 10.69 L 59.43 11.52 L 61.87 12.35 L 64.30 13.18 L 66.74 14.01 L 69.17 14.85 L 71.61 15.68 L 74.04 16.51 L 76.48 17.34 L 78.91 18.17 L 80.77 19.71 L 82.06 21.94 L 83.35 24.16 L 84.65 26.38 L 85.94 28.61 L 87.24 30.83 L 88.53 33.05 L 89.82 35.28 L 91.12 37.50 L 92.41 39.73 L 91.46 41.70 L 89.70 43.58 L 87.95 45.47 L 87.13 46.38 L 86.72 47.03 L 85.97 48.22 L 84.91 49.89 L 83.58 51.97 L 82.03 54.41 L 80.30 57.12 L 78.43 60.05 L 76.45 63.14 L 74.40 66.32 L 72.33 69.53 L 70.28 72.69 L 68.29 75.75 L 66.39 78.64 L 64.63 81.30 L 63.04 83.66 L 61.68 85.66 L 60.56 87.23 L 59.75 88.30 L 59.28 88.82 L 58.03 90.39 L 56.06 92.05 L 53.76 93.18 L 51.26 93.75 L 47.68 93.54 L 44.52 92.16 L 42.72 90.44 L 42.04 89.38 L 40.94 87.67 L 39.53 85.52 L 38.12 83.37 L 36.70 81.22 L 35.29 79.07 L 33.88 76.92 L 32.47 74.76 L 31.06 72.61 L 29.65 70.46 L 28.24 68.31 L 26.83 66.16 L 25.42 64.01 L 24.01 61.86 L 22.60 59.70 L 21.19 57.55 L 19.77 55.40 L 18.36 53.25 L 16.95 51.10 L 15.29 49.15 L 13.50 47.30 L 11.70 45.46 L 9.91 43.62 L 8.11 41.78 L 6.32 39.93" fill="none" stroke="#3d5c3d" stroke-width="0.25" opacity="0.4" data-segment="outfield_inner" />
    <path d="M 69.13 68.43 L 69.06 68.24 L 68.86 67.67 L 68.51 66.77 L 68.00 65.63 L 67.31 64.30 L 66.41 62.84 L 65.29 61.32 L 63.94 59.81 L 62.32 58.36 L 60.43 57.05 L 58.24 55.93 L 55.73 55.08 L 52.89 54.55 L 49.67 54.41 L 46.44 54.65 L 43.60 55.20 L 41.13 56.01 L 38.99 57.04 L 37.18 58.22 L 35.65 59.52 L 34.39 60.88 L 33.37 62.26 L 32.57 63.59 L 31.97 64.84 L 31.53 65.94 L 31.24 66.86 L 31.06 67.54 L 31.18 68.09 L 32.42 69.43 L 33.66 70.77 L 34.90 72.11 L 36.10 73.47 L 36.65 75.09 L 37.87 76.44 L 39.47 77.06 L 40.76 78.35 L 42.04 79.65 L 43.33 80.94 L 44.62 82.24 L 45.91 83.53 L 47.19 84.83 L 47.10 86.39 L 47.28 88.18 L 48.44 89.55 L 50.18 90.03 L 51.89 89.47 L 53.01 88.06 L 53.17 86.27 L 53.02 84.71 L 54.30 83.41 L 55.59 82.11 L 56.87 80.81 L 58.16 79.51 L 59.44 78.22 L 60.73 76.92 L 62.26 76.23 L 63.50 74.89 L 63.94 73.22 L 65.14 71.94 L 66.52 70.75 L 67.91 69.55 L 69.13 68.43 Z" fill="#2a3f2a" stroke="#4a6b4a" stroke-width="0.4" data-segment="infield_outer" />
    <path d="M 51.88 84.34 L 50.15 83.84 L 48.43 84.38 L 47.15 83.31 L 45.89 81.98 L 44.64 80.66 L 43.38 79.33 L 42.13 78.00 L 40.88 76.67 L 39.62 75.35 L 38.58 74.02 L 39.87 72.72 L 40.36 71.02 L 41.18 69.48 L 42.48 68.21 L 43.79 66.93 L 45.10 65.65 L 46.40 64.38 L 47.71 63.10 L 49.05 61.91 L 50.88 61.91 L 52.24 63.07 L 53.56 64.34 L 54.88 65.60 L 56.19 66.86 L 57.51 68.13 L 58.83 69.39 L 60.05 70.71 L 60.27 72.52 L 61.20 74.01 L 61.00 75.34 L 59.71 76.64 L 58.43 77.94 L 57.14 79.23 L 55.85 80.53 L 54.57 81.82 L 53.28 83.12 L 51.88 84.34" fill="none" stroke="#4a6b4a" stroke-width="0.25" opacity="0.5" data-segment="infield_inner" />
    <path d="M 49.95 86.42 L 48.05 84.52 L 46.15 82.61 L 44.25 80.71 L 42.35 78.81 L 40.45 76.91 L 38.55 75.01 L 36.64 73.10 L 34.74 71.20 L 32.84 69.30 L 30.94 67.40 L 29.04 65.50 L 27.14 63.59 L 25.24 61.69 L 23.34 59.79 L 21.43 57.89 L 19.53 55.99 L 17.63 54.08 L 15.73 52.18 L 13.83 50.28 L 11.93 48.38 L 10.03 46.48 L 8.13 44.57 L 6.23 42.67 L 4.32 40.77 L 3.54 38.95 L 5.44 40.85 L 7.34 42.75 L 9.24 44.65 L 11.14 46.56 L 13.04 48.46 L 14.94 50.36 L 16.84 52.26 L 18.75 54.16 L 20.65 56.07 L 22.55 57.97 L 24.45 59.87 L 26.35 61.77 L 28.25 63.67 L 30.15 65.57 L 32.05 67.48 L 33.96 69.38 L 35.86 71.28 L 37.76 73.18 L 39.66 75.08 L 41.56 76.99 L 43.46 78.89 L 45.36 80.79 L 47.26 82.69 L 49.16 84.59 L 51.07 84.27 L 52.97 82.37 L 54.87 80.47 L 56.78 78.57 L 58.68 76.67 L 60.58 74.77 L 62.48 72.87 L 64.39 70.97 L 66.29 69.07 L 68.19 67.17 L 70.10 65.27 L 72.00 63.37 L 73.90 61.47 L 75.81 59.57 L 77.71 57.67 L 79.61 55.77 L 81.52 53.87 L 83.42 51.97 L 85.32 50.07 L 87.22 48.17 L 89.13 46.27 L 91.03 44.37 L 92.93 42.47 L 94.84 40.57 L 96.72 38.84 L 95.62 40.82 L 93.72 42.72 L 91.82 44.62 L 89.92 46.52 L 88.01 48.42 L 86.11 50.32 L 84.21 52.22 L 82.30 54.12 L 80.40 56.02 L 78.50 57.92 L 76.59 59.82 L 74.69 61.72 L 72.79 63.62 L 70.89 65.52 L 68.98 67.42 L 67.08 69.32 L 65.18 71.22 L 63.27 73.12 L 61.37 75.02 L 59.47 76.92 L 57.56 78.82 L 55.66 80.72 L 53.76 82.62 L 51.86 84.52 L 49.95 86.42" fill="none" stroke="#4a6b4a" stroke-width="0.3" opacity="0.6" data-segment="foul_lines" />
    <path d="M 50.69 85.12 L 50.66 85.16 L 50.62 85.20 L 50.58 85.23 L 50.55 85.27 L 50.51 85.30 L 50.48 85.34 L 50.44 85.38 L 50.40 85.41 L 50.37 85.45 L 50.33 85.49 L 50.29 85.52 L 50.26 85.56 L 50.22 85.59 L 50.18 85.63 L 50.15 85.67 L 50.11 85.70 L 50.08 85.74 L 50.04 85.78 L 50.00 85.81 L 49.97 85.85 L 49.93 85.86 L 49.89 85.82 L 49.86 85.78 L 49.82 85.75 L 49.79 85.71 L 49.75 85.68 L 49.71 85.64 L 49.68 85.60 L 49.64 85.57 L 49.60 85.53 L 49.57 85.49 L 49.53 85.46 L 49.50 85.42 L 49.46 85.38 L 49.42 85.35 L 49.39 85.31 L 49.35 85.27 L 49.32 85.24 L 49.28 85.20 L 49.24 85.16 L 49.21 85.13 L 49.21 85.08 L 49.21 85.03 L 49.21 84.97 L 49.21 84.92 L 49.21 84.87 L 49.21 84.82 L 49.21 84.77 L 49.21 84.72 L 49.21 84.67 L 49.21 84.61 L 49.21 84.56 L 49.21 84.51 L 49.21 84.46 L 49.21 84.41 L 49.23 84.38 L 49.28 84.38 L 49.33 84.38 L 49.38 84.38 L 49.43 84.38 L 49.49 84.38 L 49.54 84.38 L 49.59 84.38 L 49.64 84.38 L 49.69 84.38 L 49.74 84.38 L 49.79 84.38 L 49.84 84.38 L 49.90 84.38 L 49.95 84.38 L 50.00 84.38 L 50.05 84.38 L 50.10 84.38 L 50.15 84.38 L 50.20 84.38 L 50.26 84.38 L 50.31 84.38 L 50.36 84.38 L 50.41 84.38 L 50.46 84.38 L 50.51 84.38 L 50.56 84.38 L 50.61 84.38 L 50.67 84.38 L 50.69 84.41 L 50.69 84.46 L 50.69 84.51 L 50.69 84.56 L 50.69 84.61 L 50.69 84.66 L 50.69 84.71 L 50.69 84.76 L 50.69 84.82 L 50.69 84.87 L 50.69 84.92 L 50.69 84.97 L 50.69 85.02 L 50.69 85.07 L 50.69 85.12 Z" fill="#e5e5e5" stroke="#ffffff" stroke-width="0.3" data-segment="home_plate" />
  <text x="50" y="98" text-anchor="middle" font-size="3" fill="#737373" font-family="monospace">LF 325' · CF 405' · RF 325'</text>
</svg>
