<?xml version="1.0" encoding="UTF-8"?>
<svg xmlns="http://www.w3.org/2000/svg" viewBox="0 0 100 100" role="img" aria-label="mariners ballpark">
  <title>mariners</title>
  <rect width="100" height="100" fill="#1a2e1a" />
    <path d="M 97.00 39.26 L 94.98 41.23 L 92.96 43.19 L 90.94 45.15 L 88.91 47.11 L 88.08 49.59 L 86.92 52.15 L 85.76 54.72 L 84.59 57.29 L 83.43 59.85 L 82.27 62.42 L 81.11 64.98 L 79.94 67.55 L 78.78 70.12 L 76.98 72.27 L 75.12 74.39 L 73.27 76.51 L 71.34 77.57 L 69.58 79.77 L 67.82 81.97 L 66.06 84.16 L 64.30 86.36 L 62.54 88.56 L 60.78 90.76 L 59.16 92.78 L 58.51 93.30 L 56.87 94.36 L 54.46 95.52 L 51.45 96.32 L 48.06 96.30 L 44.46 95.01 L 41.29 92.41 L 39.41 90.32 L 37.52 88.22 L 35.64 86.13 L 33.76 84.03 L 31.88 81.93 L 29.99 79.84 L 28.11 77.74 L 25.93 76.75 L 24.02 74.68 L 22.11 72.61 L 20.28 70.48 L 19.03 67.96 L 17.78 65.43 L 16.53 62.91 L 15.27 60.38 L 14.02 57.86 L 12.77 55.34 L 11.52 52.81 L 10.27 50.29 L 9.84 47.72 L 7.79 45.78 L 5.75 43.85 L 3.70 41.91 L 3.00 39.40 L 3.00 36.58 L 4.80 34.46 L 6.70 32.38 L 8.60 30.30 L 10.50 28.22 L 12.40 26.14 L 14.28 24.04 L 16.18 21.96 L 18.09 19.89 L 19.98 17.80 L 21.88 15.72 L 24.18 14.11 L 26.55 12.59 L 28.91 11.06 L 31.39 9.74 L 34.01 8.71 L 36.65 7.73 L 39.27 6.70 L 41.87 5.61 L 44.50 4.59 L 47.16 3.68 L 49.86 4.21 L 52.55 5.05 L 55.24 5.88 L 57.93 6.72 L 60.62 7.55 L 63.31 8.39 L 66.00 9.22 L 68.69 10.06 L 71.38 10.89 L 74.07 11.73 L 76.44 13.05 L 78.21 15.23 L 80.00 17.41 L 81.78 19.60 L 83.56 21.78 L 85.34 23.97 L 87.10 26.16 L 88.90 28.33 L 90.66 30.53 L 92.43 32.73 L 94.20 34.92 L 95.98 37.10 L 97.00 39.26 Z" fill="#243524" stroke="#3d5c3d" stroke-width="0.5" data-segment="outfield_outer" />
    <path d="M 50.70 93.23 L 46.94 92.53 L 44.22 91.04 L 42.66 89.66 L 41.86 88.76 L 40.15 86.86 L 38.43 84.95 L 36.72 83.05 L 35.01 81.14 L 33.30 79.24 L 31.58 77.34 L 29.87 75.43 L 28.16 73.53 L 26.44 71.62 L 24.73 69.72 L 23.02 67.82 L 21.53 65.77 L 20.44 63.45 L 19.35 61.13 L 18.26 58.81 L 17.17 56.49 L 16.08 54.18 L 14.99 51.86 L 14.00 49.50 L 12.84 47.30 L 10.98 45.53 L 9.12 43.77 L 7.27 42.00 L 5.41 40.24 L 6.85 38.38 L 8.61 36.52 L 10.37 34.66 L 12.13 32.80 L 13.89 30.93 L 15.64 29.07 L 17.40 27.21 L 19.16 25.35 L 20.92 23.48 L 22.67 21.62 L 24.43 19.76 L 26.19 17.90 L 27.95 16.03 L 29.71 14.17 L 32.09 13.36 L 34.57 12.70 L 37.04 12.04 L 39.51 11.38 L 41.99 10.72 L 44.46 10.06 L 46.94 9.40 L 49.40 9.10 L 51.84 9.90 L 54.27 10.69 L 56.70 11.49 L 59.14 12.29 L 61.57 13.08 L 64.01 13.88 L 66.44 14.67 L 68.87 15.47 L 71.31 16.27 L 73.74 17.06 L 75.83 18.37 L 77.45 20.35 L 79.07 22.33 L 80.69 24.32 L 82.31 26.30 L 83.93 28.28 L 85.55 30.27 L 87.17 32.25 L 88.79 34.23 L 90.41 36.22 L 92.03 38.20 L 91.20 40.04 L 89.35 41.81 L 87.50 43.58 L 85.66 45.36 L 84.54 47.35 L 84.44 49.79 L 83.38 52.12 L 82.33 54.45 L 81.27 56.79 L 80.21 59.12 L 79.15 61.45 L 78.09 63.78 L 77.04 66.11 L 76.64 66.74 L 75.80 67.77 L 74.46 69.41 L 72.73 71.51 L 70.73 73.95 L 68.54 76.59 L 66.29 79.29 L 64.08 81.93 L 62.02 84.36 L 60.21 86.45 L 58.76 88.06 L 56.59 90.23 L 54.16 92.13 L 52.27 93.01 L 50.70 93.23" fill="none" stroke="#3d5c3d" stroke-width="0.25" opacity="0.4" data-segment="outfield_inner" />
    <path d="M 63.89 75.91 L 65.16 74.65 L 66.43 73.38 L 67.69 72.12 L 68.96 70.85 L 70.04 69.54 L 69.59 68.22 L 69.31 67.58 L 68.86 66.67 L 68.26 65.54 L 67.49 64.25 L 66.57 62.85 L 65.47 61.39 L 64.21 59.91 L 62.78 58.47 L 61.18 57.13 L 59.41 55.92 L 57.45 54.91 L 55.32 54.14 L 53.00 53.67 L 50.49 53.55 L 47.92 53.79 L 45.55 54.38 L 43.37 55.25 L 41.39 56.35 L 39.60 57.62 L 38.00 59.01 L 36.58 60.48 L 35.35 61.95 L 34.30 63.39 L 33.42 64.74 L 32.72 65.94 L 32.19 66.94 L 31.83 67.68 L 31.63 68.12 L 31.39 69.63 L 32.74 70.80 L 34.10 71.97 L 35.45 73.14 L 36.80 74.31 L 38.15 75.02 L 39.45 75.75 L 40.74 76.99 L 42.03 78.23 L 43.32 79.47 L 44.61 80.71 L 45.91 81.95 L 47.20 83.19 L 46.73 84.77 L 46.72 86.47 L 47.48 88.08 L 48.86 89.19 L 50.58 89.60 L 52.32 89.22 L 53.72 88.13 L 54.50 86.53 L 54.51 84.76 L 54.51 83.24 L 55.79 82.00 L 57.08 80.76 L 58.37 79.51 L 59.66 78.27 L 60.95 77.03 L 62.24 75.79 L 63.56 75.63 L 63.89 75.91 Z" fill="#2a3f2a" stroke="#4a6b4a" stroke-width="0.4" data-segment="infield_outer" />
    <path d="M 50.87 81.75 L 49.11 82.02 L 47.81 80.88 L 46.53 79.63 L 45.25 78.38 L 43.97 77.13 L 42.69 75.88 L 41.40 74.62 L 40.12 73.37 L 40.87 71.81 L 40.88 70.03 L 41.69 68.66 L 42.97 67.41 L 44.25 66.16 L 45.53 64.91 L 46.82 63.66 L 48.10 62.41 L 49.65 62.77 L 51.42 62.83 L 53.04 62.35 L 54.32 63.60 L 55.60 64.85 L 56.88 66.10 L 58.16 67.35 L 59.44 68.60 L 60.40 69.93 L 60.36 71.71 L 61.14 73.30 L 59.87 74.55 L 58.59 75.80 L 57.31 77.05 L 56.03 78.31 L 54.74 79.56 L 53.46 80.81 L 50.87 81.75" fill="none" stroke="#4a6b4a" stroke-width="0.25" opacity="0.5" data-segment="infield_inner" />
    <path d="M 50.63 86.17 L 48.71 84.25 L 46.79 82.33 L 44.87 80.41 L 42.95 78.49 L 41.03 76.57 L 39.11 74.65 L 37.19 72.72 L 35.27 70.80 L 33.35 68.88 L 31.43 66.96 L 29.51 65.04 L 27.59 63.12 L 25.68 61.20 L 23.76 59.28 L 21.84 57.36 L 19.92 55.44 L 18.00 53.52 L 16.08 51.60 L 14.16 49.68 L 12.24 47.76 L 10.32 45.84 L 8.40 43.92 L 6.48 42.00 L 4.56 40.08 L 3.00 38.00 L 4.55 39.03 L 6.47 40.96 L 8.39 42.88 L 10.31 44.80 L 12.23 46.72 L 14.15 48.64 L 16.07 50.56 L 17.99 52.48 L 19.91 54.40 L 21.83 56.32 L 23.75 58.24 L 25.67 60.16 L 27.59 62.08 L 29.51 64.00 L 31.43 65.92 L 33.35 67.84 L 35.27 69.76 L 37.19 71.68 L 39.11 73.60 L 41.03 75.53 L 42.95 77.45 L 44.87 79.37 L 46.79 81.29 L 48.71 83.21 L 50.63 85.13 L 52.55 83.22 L 54.47 81.30 L 56.39 79.38 L 58.31 77.47 L 60.23 75.55 L 62.15 73.63 L 64.08 71.71 L 66.00 69.79 L 67.92 67.87 L 69.84 65.95 L 71.76 64.03 L 73.68 62.12 L 75.61 60.20 L 77.53 58.28 L 79.45 56.36 L 81.37 54.44 L 83.29 52.52 L 85.21 50.60 L 87.13 48.68 L 89.06 46.77 L 90.98 44.85 L 92.90 42.93 L 94.82 41.01 L 96.74 39.09 L 96.75 40.12 L 94.83 42.04 L 92.91 43.96 L 90.99 45.88 L 89.06 47.80 L 87.14 49.71 L 85.22 51.63 L 83.30 53.55 L 81.38 55.47 L 79.46 57.39 L 77.53 59.31 L 75.61 61.23 L 73.69 63.14 L 71.77 65.06 L 69.85 66.98 L 67.93 68.90 L 66.00 70.82 L 64.08 72.74 L 62.16 74.66 L 60.24 76.58 L 58.32 78.49 L 56.40 80.41 L 54.48 82.33 L 52.55 84.25 L 50.63 86.17" fill="none" stroke="#4a6b4a" stroke-width="0.3" opacity="0.6" data-segment="foul_lines" />
    <path d="M 51.37 84.88 L 51.34 84.91 L 51.30 84.95 L 51.26 84.98 L 51.23 85.02 L 51.19 85.06 L 51.16 85.09 L 51.12 85.13 L 51.08 85.16 L 51.05 85.20 L 51.01 85.24 L 50.97 85.27 L 50.94 85.31 L 50.90 85.35 L 50.86 85.38 L 50.83 85.42 L 50.79 85.45 L 50.75 85.49 L 50.72 85.53 L 50.68 85.56 L 50.65 85.60 L 50.61 85.61 L 50.57 85.57 L 50.54 85.54 L 50.50 85.50 L 50.47 85.46 L 50.43 85.43 L 50.39 85.39 L 50.36 85.35 L 50.32 85.32 L 50.28 85.28 L 50.25 85.24 L 50.21 85.21 L 50.18 85.17 L 50.14 85.13 L 50.10 85.10 L 50.07 85.06 L 50.03 85.02 L 50.00 84.99 L 49.96 84.95 L 49.92 84.92 L 49.89 84.88 L 49.89 84.83 L 49.89 84.78 L 49.89 84.73 L 49.89 84.67 L 49.89 84.62 L 49.89 84.57 L 49.89 84.52 L 49.89 84.47 L 49.89 84.42 L 49.89 84.37 L 49.89 84.32 L 49.89 84.26 L 49.89 84.21 L 49.89 84.16 L 49.91 84.13 L 49.96 84.13 L 50.01 84.13 L 50.06 84.13 L 50.11 84.13 L 50.17 84.13 L 50.22 84.13 L 50.27 84.13 L 50.32 84.13 L 50.37 84.13 L 50.42 84.13 L 50.47 84.13 L 50.52 84.13 L 50.58 84.13 L 50.63 84.13 L 50.68 84.13 L 50.73 84.13 L 50.78 84.13 L 50.83 84.13 L 50.88 84.13 L 50.94 84.13 L 50.99 84.13 L 51.04 84.13 L 51.09 84.13 L 51.14 84.13 L 51.19 84.13 L 51.24 84.13 L 51.29 84.13 L 51.35 84.13 L 51.37 84.16 L 51.37 84.21 L 51.37 84.26 L 51.37 84.31 L 51.37 84.36 L 51.37 84.41 L 51.37 84.47 L 51.37 84.52 L 51.37 84.57 L 51.37 84.62 L 51.37 84.67 L 51.37 84.72 L 51.37 84.77 L 51.37 84.82 L 51.37 84.88 Z" fill="#e5e5e5" stroke="#ffffff" stroke-width="0.3" data-segment="home_plate" />
  <text x="50" y="98" text-anchor="middle" font-size="3" fill="#737373" font-family="monospace">LF 331' · CF 405' · RF 327'</text>
</svg>
