<?xml version="1.0" encoding="UTF-8"?>
<svg xmlns="http://www.w3.org/2000/svg" viewBox="0 0 100 100" role="img" aria-label="marlins ballpark">
  <title>marlins</title>
  <rect width="100" height="100" fill="#1a2e1a" />
    <path d="M 96.53 39.86 L 94.83 37.70 L 93.17 35.51 L 91.48 33.35 L 89.78 31.18 L 88.07 29.03 L 86.38 26.87 L 84.70 24.70 L 83.01 22.53 L 81.32 20.36 L 79.63 18.20 L 77.85 16.11 L 75.80 14.29 L 73.66 12.57 L 71.28 11.21 L 68.85 9.92 L 66.39 8.69 L 63.86 7.62 L 61.26 6.75 L 58.62 6.00 L 55.93 5.43 L 53.23 4.94 L 50.50 4.60 L 47.77 4.34 L 45.02 4.21 L 42.28 4.29 L 40.43 6.15 L 38.79 8.31 L 36.60 9.97 L 34.12 11.14 L 31.53 12.05 L 29.02 13.17 L 26.98 14.95 L 24.72 16.51 L 22.47 18.09 L 20.29 19.75 L 18.17 21.50 L 16.05 23.26 L 14.09 25.18 L 12.15 27.12 L 10.43 29.26 L 8.71 31.41 L 7.06 33.60 L 5.60 35.93 L 4.17 38.27 L 3.00 40.74 L 4.45 42.94 L 6.15 45.10 L 7.85 47.26 L 9.55 49.41 L 11.25 51.57 L 12.95 53.73 L 14.66 55.89 L 16.36 58.05 L 18.06 60.21 L 19.76 62.36 L 21.46 64.52 L 23.16 66.68 L 24.86 68.84 L 26.56 71.00 L 28.26 73.15 L 29.96 75.31 L 31.66 77.47 L 33.36 79.63 L 35.06 81.79 L 36.77 83.95 L 38.47 86.10 L 40.17 88.26 L 41.87 90.42 L 44.83 93.58 L 48.29 95.51 L 51.42 95.79 L 54.13 94.95 L 56.30 93.53 L 57.83 92.09 L 58.62 91.16 L 59.67 89.80 L 61.37 87.64 L 63.06 85.48 L 64.76 83.32 L 66.46 81.16 L 68.16 79.00 L 69.85 76.84 L 71.55 74.68 L 73.25 72.51 L 74.94 70.35 L 76.64 68.19 L 78.34 66.03 L 80.03 63.87 L 81.73 61.71 L 83.43 59.55 L 85.12 57.38 L 86.82 55.22 L 88.52 53.06 L 90.21 50.90 L 91.91 48.74 L 93.61 46.58 L 95.30 44.42 L 97.00 42.25 L 96.53 39.86 Z" fill="#243524" stroke="#3d5c3d" stroke-width="0.5" data-segment="outfield_outer" />
    <path d="M 5.71 41.05 L 5.96 40.69 L 6.66 39.69 L 7.77 38.16 L 9.23 36.22 L 10.98 33.97 L 12.97 31.53 L 15.15 29.02 L 17.46 26.55 L 19.84 24.23 L 22.24 22.18 L 24.67 20.47 L 27.45 18.81 L 30.09 17.37 L 32.57 16.08 L 34.89 14.87 L 37.02 13.68 L 38.94 12.44 L 40.62 11.08 L 42.07 9.54 L 43.11 7.98 L 43.47 7.92 L 44.36 7.80 L 45.74 7.68 L 47.56 7.62 L 49.78 7.70 L 52.35 7.96 L 55.24 8.47 L 58.39 9.29 L 61.76 10.49 L 65.30 12.12 L 68.98 14.25 L 72.26 16.81 L 74.85 19.41 L 77.38 22.05 L 79.83 24.67 L 82.19 27.25 L 84.41 29.74 L 86.48 32.10 L 88.37 34.29 L 90.06 36.27 L 91.51 38.00 L 92.71 39.44 L 93.62 40.56 L 94.23 41.30 L 94.50 41.64 L 93.33 43.13 L 91.73 45.11 L 90.14 47.10 L 88.54 49.09 L 86.95 51.08 L 85.35 53.07 L 83.75 55.06 L 82.16 57.05 L 80.56 59.03 L 78.97 61.02 L 77.37 63.01 L 75.77 65.00 L 74.18 66.99 L 72.58 68.98 L 70.98 70.97 L 69.39 72.96 L 67.79 74.94 L 66.20 76.93 L 64.60 78.92 L 63.00 80.91 L 61.41 82.90 L 59.81 84.89 L 58.22 86.88 L 56.62 88.87 L 55.84 89.85 L 54.71 91.03 L 52.78 92.31 L 50.24 92.78 L 47.28 91.54 L 44.46 88.42 L 42.85 86.45 L 41.23 84.47 L 39.62 82.50 L 38.00 80.53 L 36.39 78.55 L 34.77 76.58 L 33.16 74.61 L 31.54 72.63 L 29.93 70.66 L 28.32 68.68 L 26.70 66.71 L 25.09 64.74 L 23.47 62.76 L 21.86 60.79 L 20.24 58.81 L 18.63 56.84 L 17.01 54.87 L 15.40 52.89 L 13.78 50.92 L 12.17 48.95 L 10.56 46.97 L 8.94 45.00 L 7.33 43.02 L 5.71 41.05" fill="none" stroke="#3d5c3d" stroke-width="0.25" opacity="0.4" data-segment="outfield_inner" />
    <path d="M 60.95 76.68 L 62.14 75.96 L 63.32 74.74 L 64.51 73.52 L 65.70 72.30 L 66.88 71.07 L 68.07 69.85 L 68.67 68.79 L 68.19 67.88 L 67.58 66.80 L 66.84 65.61 L 65.96 64.33 L 64.96 63.00 L 63.83 61.67 L 62.58 60.35 L 61.20 59.10 L 59.70 57.95 L 58.07 56.93 L 56.33 56.08 L 54.46 55.44 L 52.48 55.04 L 50.38 54.92 L 48.28 55.10 L 46.29 55.55 L 44.42 56.22 L 42.67 57.09 L 41.04 58.12 L 39.54 59.28 L 38.15 60.52 L 36.89 61.82 L 35.75 63.14 L 34.75 64.44 L 33.87 65.69 L 33.12 66.86 L 32.50 67.90 L 32.01 68.79 L 32.66 69.83 L 33.87 71.03 L 35.08 72.23 L 36.29 73.42 L 37.50 74.62 L 38.71 75.82 L 39.93 76.64 L 41.15 77.71 L 42.37 78.90 L 43.59 80.09 L 44.80 81.28 L 46.02 82.47 L 47.24 83.66 L 46.54 85.25 L 46.64 86.85 L 47.45 88.34 L 48.82 89.33 L 50.48 89.64 L 52.11 89.20 L 53.40 88.11 L 54.09 86.57 L 54.05 84.88 L 54.12 83.46 L 55.33 82.26 L 56.54 81.06 L 57.75 79.86 L 58.96 78.66 L 60.17 77.46 L 60.95 76.68 Z" fill="#2a3f2a" stroke="#4a6b4a" stroke-width="0.4" data-segment="infield_outer" />
    <path d="M 51.28 82.17 L 49.59 82.13 L 48.18 81.74 L 46.97 80.54 L 45.76 79.35 L 44.55 78.15 L 43.34 76.95 L 42.12 75.76 L 40.91 74.56 L 40.00 73.53 L 41.22 72.04 L 41.52 70.34 L 42.19 69.04 L 43.41 67.85 L 44.63 66.66 L 45.85 65.47 L 47.07 64.29 L 48.34 63.23 L 50.05 63.25 L 51.75 63.27 L 53.19 63.92 L 54.41 65.11 L 55.63 66.30 L 56.85 67.49 L 58.07 68.68 L 59.28 69.87 L 59.05 71.16 L 59.94 72.72 L 60.33 73.99 L 59.12 75.19 L 57.91 76.38 L 56.70 77.58 L 55.48 78.77 L 54.27 79.97 L 53.06 81.17 L 51.28 82.17" fill="none" stroke="#4a6b4a" stroke-width="0.25" opacity="0.5" data-segment="infield_inner" />
    <path d="M 50.36 86.32 L 48.47 84.43 L 46.59 82.55 L 44.71 80.66 L 42.82 78.78 L 40.94 76.89 L 39.05 75.01 L 37.17 73.12 L 35.29 71.24 L 33.40 69.35 L 31.52 67.47 L 29.63 65.58 L 27.75 63.70 L 25.87 61.81 L 23.98 59.93 L 22.10 58.04 L 20.21 56.16 L 18.33 54.27 L 16.44 52.39 L 14.56 50.50 L 12.68 48.62 L 10.79 46.73 L 8.91 44.85 L 7.02 42.96 L 5.14 41.08 L 3.62 39.12 L 5.43 40.37 L 7.31 42.26 L 9.20 44.14 L 11.08 46.03 L 12.97 47.91 L 14.85 49.80 L 16.73 51.68 L 18.62 53.57 L 20.50 55.45 L 22.39 57.34 L 24.27 59.22 L 26.15 61.11 L 28.04 62.99 L 29.92 64.88 L 31.81 66.76 L 33.69 68.65 L 35.57 70.53 L 37.46 72.42 L 39.34 74.30 L 41.23 76.19 L 43.11 78.07 L 44.99 79.95 L 46.88 81.84 L 48.76 83.72 L 50.65 85.03 L 52.53 83.15 L 54.42 81.27 L 56.30 79.38 L 58.19 77.50 L 60.08 75.62 L 61.96 73.73 L 63.85 71.85 L 65.73 69.97 L 67.62 68.08 L 69.51 66.20 L 71.39 64.32 L 73.28 62.44 L 75.16 60.55 L 77.05 58.67 L 78.94 56.79 L 80.82 54.90 L 82.71 53.02 L 84.59 51.14 L 86.48 49.25 L 88.36 47.37 L 90.25 45.49 L 92.14 43.61 L 94.02 41.72 L 95.91 39.84 L 95.62 41.12 L 93.73 43.01 L 91.85 44.89 L 89.96 46.77 L 88.08 48.66 L 86.19 50.54 L 84.30 52.42 L 82.42 54.30 L 80.53 56.19 L 78.65 58.07 L 76.76 59.95 L 74.87 61.84 L 72.99 63.72 L 71.10 65.60 L 69.22 67.49 L 67.33 69.37 L 65.44 71.25 L 63.56 73.13 L 61.67 75.02 L 59.79 76.90 L 57.90 78.78 L 56.02 80.67 L 54.13 82.55 L 52.24 84.43 L 50.36 86.32" fill="none" stroke="#4a6b4a" stroke-width="0.3" opacity="0.6" data-segment="foul_lines" />
    <path d="M 51.07 85.07 L 51.04 85.11 L 51.00 85.14 L 50.97 85.18 L 50.93 85.21 L 50.90 85.25 L 50.86 85.28 L 50.83 85.31 L 50.79 85.35 L 50.76 85.38 L 50.72 85.42 L 50.69 85.45 L 50.65 85.49 L 50.62 85.52 L 50.58 85.56 L 50.55 85.59 L 50.51 85.63 L 50.48 85.66 L 50.44 85.70 L 50.41 85.73 L 50.37 85.77 L 50.34 85.78 L 50.30 85.74 L 50.27 85.71 L 50.23 85.67 L 50.20 85.64 L 50.16 85.60 L 50.13 85.57 L 50.09 85.53 L 50.06 85.50 L 50.02 85.46 L 49.99 85.43 L 49.95 85.39 L 49.92 85.36 L 49.89 85.32 L 49.85 85.29 L 49.82 85.25 L 49.78 85.21 L 49.75 85.18 L 49.71 85.14 L 49.68 85.11 L 49.64 85.07 L 49.64 85.03 L 49.64 84.98 L 49.64 84.93 L 49.64 84.88 L 49.64 84.83 L 49.64 84.78 L 49.64 84.73 L 49.64 84.68 L 49.64 84.63 L 49.64 84.58 L 49.64 84.53 L 49.64 84.48 L 49.64 84.43 L 49.64 84.38 L 49.66 84.36 L 49.71 84.36 L 49.76 84.36 L 49.81 84.36 L 49.86 84.36 L 49.91 84.36 L 49.96 84.36 L 50.01 84.36 L 50.06 84.36 L 50.11 84.36 L 50.16 84.36 L 50.21 84.36 L 50.25 84.36 L 50.30 84.36 L 50.35 84.36 L 50.40 84.36 L 50.45 84.36 L 50.50 84.36 L 50.55 84.36 L 50.60 84.36 L 50.65 84.36 L 50.70 84.36 L 50.75 84.36 L 50.80 84.36 L 50.85 84.36 L 50.90 84.36 L 50.95 84.36 L 51.00 84.36 L 51.04 84.36 L 51.07 84.38 L 51.07 84.43 L 51.07 84.48 L 51.07 84.53 L 51.07 84.58 L 51.07 84.63 L 51.07 84.68 L 51.07 84.73 L 51.07 84.78 L 51.07 84.82 L 51.07 84.87 L 51.07 84.92 L 51.07 84.97 L 51.07 85.02 L 51.07 85.07 Z" fill="#e5e5e5" stroke="#ffffff" stroke-width="0.3" data-segment="home_plate" />
  <text x="50" y="98" text-anchor="middle" font-size="3" fill="#737373" font-family="monospace">LF 344' · CF 407' · RF 335'</text>
</svg>
