<?xml version="1.0" encoding="UTF-8"?>
<svg xmlns="http://www.w3.org/2000/svg" viewBox="0 0 100 100" role="img" aria-label="mets ballpark">
  <title>mets</title>
  <rect width="100" height="100" fill="#1a2e1a" />
    <path d="M 97.00 40.50 L 95.06 42.52 L 93.11 44.55 L 91.17 46.57 L 89.22 48.59 L 87.28 50.62 L 85.34 52.64 L 83.39 54.67 L 81.45 56.69 L 80.66 59.31 L 80.14 62.07 L 79.62 64.82 L 79.10 67.58 L 78.58 70.34 L 78.17 71.13 L 77.04 72.77 L 75.34 75.22 L 73.28 78.17 L 71.05 81.32 L 68.87 84.36 L 66.92 86.99 L 65.42 88.90 L 63.58 91.14 L 61.11 93.08 L 58.44 94.32 L 55.76 95.01 L 53.25 95.31 L 51.04 95.38 L 48.22 95.26 L 45.55 94.88 L 43.02 94.14 L 40.64 92.95 L 38.39 91.21 L 36.30 88.86 L 34.64 86.59 L 32.99 84.33 L 31.33 82.06 L 29.67 79.79 L 28.02 77.53 L 26.36 75.26 L 24.71 73.00 L 23.06 70.73 L 22.39 68.00 L 21.72 65.28 L 21.05 62.55 L 20.38 59.83 L 19.71 57.10 L 18.17 54.87 L 16.19 52.88 L 14.20 50.90 L 12.21 48.92 L 10.23 46.94 L 8.24 44.95 L 6.25 42.97 L 4.27 40.99 L 3.20 38.69 L 4.41 36.16 L 5.63 33.63 L 6.84 31.10 L 8.98 29.33 L 11.27 27.70 L 13.55 26.07 L 15.85 24.46 L 18.19 22.91 L 20.52 21.35 L 22.85 19.78 L 25.19 18.23 L 27.54 16.69 L 29.87 15.13 L 32.14 13.48 L 34.40 11.82 L 36.66 10.16 L 38.93 8.50 L 41.19 6.84 L 43.45 5.18 L 46.16 4.65 L 48.97 4.65 L 51.77 4.63 L 54.58 4.62 L 57.22 5.40 L 59.61 6.87 L 62.00 8.35 L 64.38 9.83 L 66.76 11.31 L 69.15 12.79 L 71.53 14.28 L 73.91 15.77 L 76.29 17.24 L 78.78 18.50 L 81.51 19.19 L 84.22 19.88 L 86.40 21.49 L 88.01 23.80 L 89.61 26.10 L 91.21 28.41 L 92.80 30.72 L 93.65 33.35 L 94.47 35.97 L 96.09 38.27 L 97.00 40.50 Z" fill="#243524" stroke="#3d5c3d" stroke-width="0.5" data-segment="outfield_outer" />
    <path d="M 92.23 39.56 L 90.79 37.47 L 89.84 35.27 L 89.72 32.75 L 88.82 30.82 L 87.00 28.02 L 85.14 25.34 L 84.14 23.95 L 82.35 22.74 L 79.90 22.10 L 77.45 21.47 L 75.00 20.83 L 72.84 19.52 L 70.68 18.20 L 68.52 16.87 L 66.36 15.55 L 64.21 14.23 L 62.05 12.90 L 59.89 11.58 L 57.73 10.26 L 55.58 8.93 L 53.06 8.97 L 50.53 9.06 L 48.00 9.15 L 45.47 9.24 L 43.18 10.04 L 41.09 11.47 L 39.01 12.91 L 36.92 14.34 L 34.83 15.77 L 32.75 17.20 L 30.66 18.63 L 28.57 20.07 L 26.49 21.50 L 24.40 22.93 L 22.31 24.36 L 20.23 25.80 L 18.14 27.23 L 16.05 28.66 L 13.97 30.09 L 11.88 31.53 L 10.25 33.36 L 9.12 35.62 L 7.98 37.88 L 8.60 39.91 L 10.30 41.79 L 12.00 43.67 L 13.69 45.55 L 15.39 47.43 L 17.08 49.31 L 18.78 51.18 L 20.47 53.06 L 22.17 54.94 L 23.14 57.26 L 23.99 59.64 L 24.84 62.03 L 25.69 64.41 L 26.54 66.79 L 27.42 69.16 L 28.89 71.22 L 30.37 73.28 L 31.85 75.33 L 33.32 77.39 L 34.80 79.44 L 36.28 81.50 L 37.75 83.55 L 39.23 85.61 L 41.37 87.80 L 43.40 89.46 L 45.00 90.52 L 47.32 91.38 L 49.82 91.81 L 52.34 91.78 L 54.83 91.32 L 57.74 90.05 L 60.23 88.12 L 61.46 86.87 L 62.62 85.21 L 64.07 83.14 L 65.52 81.06 L 66.97 78.99 L 68.42 76.91 L 69.87 74.84 L 71.32 72.76 L 72.77 70.68 L 74.22 68.61 L 74.91 66.20 L 75.50 63.73 L 76.08 61.27 L 76.66 58.81 L 77.25 56.35 L 78.02 53.98 L 79.79 52.18 L 81.57 50.38 L 83.34 48.57 L 85.12 46.77 L 86.90 44.97 L 88.67 43.16 L 90.45 41.36 L 92.23 39.56" fill="none" stroke="#3d5c3d" stroke-width="0.25" opacity="0.4" data-segment="outfield_inner" />
    <path d="M 69.39 69.75 L 69.31 69.55 L 69.06 68.99 L 68.65 68.13 L 68.07 67.02 L 67.31 65.73 L 66.38 64.30 L 65.28 62.80 L 63.99 61.29 L 62.52 59.81 L 60.87 58.44 L 59.02 57.22 L 56.99 56.22 L 54.76 55.49 L 52.34 55.09 L 49.74 55.08 L 47.24 55.44 L 44.94 56.13 L 42.84 57.08 L 40.93 58.25 L 39.22 59.58 L 37.71 61.01 L 36.37 62.48 L 35.23 63.94 L 34.26 65.34 L 33.47 66.62 L 32.86 67.72 L 32.42 68.59 L 32.15 69.17 L 32.05 69.40 L 33.15 70.46 L 34.40 71.65 L 35.64 72.84 L 36.88 74.04 L 38.12 75.23 L 39.36 76.42 L 40.60 77.61 L 41.85 78.80 L 43.09 79.99 L 44.33 81.19 L 45.57 82.38 L 46.81 83.57 L 47.13 84.85 L 46.77 86.51 L 47.17 88.17 L 48.25 89.49 L 49.78 90.24 L 51.49 90.25 L 53.04 89.54 L 54.14 88.23 L 54.57 86.58 L 54.24 84.91 L 54.98 83.63 L 56.22 82.44 L 57.46 81.24 L 58.70 80.05 L 59.94 78.85 L 61.18 77.66 L 62.42 76.46 L 63.66 75.27 L 64.90 74.08 L 66.14 72.88 L 67.38 71.69 L 68.62 70.49 L 69.39 69.75 Z" fill="#2a3f2a" stroke="#4a6b4a" stroke-width="0.4" data-segment="infield_outer" />
    <path d="M 50.03 82.70 L 48.57 82.43 L 47.33 81.23 L 46.10 80.02 L 44.87 78.82 L 43.64 77.62 L 42.41 76.42 L 41.17 75.22 L 40.71 73.95 L 41.23 72.33 L 41.10 70.67 L 42.33 69.47 L 43.56 68.26 L 44.80 67.06 L 46.03 65.86 L 47.26 64.66 L 48.50 63.53 L 50.09 64.16 L 51.79 64.07 L 53.26 63.89 L 54.49 65.09 L 55.72 66.29 L 56.96 67.50 L 58.19 68.70 L 59.42 69.90 L 60.21 71.22 L 60.22 72.92 L 60.93 74.43 L 59.70 75.64 L 58.47 76.84 L 57.24 78.04 L 56.00 79.24 L 54.77 80.44 L 53.54 81.64 L 52.31 82.85 L 50.03 82.70" fill="none" stroke="#4a6b4a" stroke-width="0.25" opacity="0.5" data-segment="infield_inner" />
    <path d="M 50.69 86.96 L 48.78 85.05 L 46.87 83.13 L 44.96 81.22 L 43.04 79.31 L 41.13 77.40 L 39.22 75.48 L 37.31 73.57 L 35.40 71.66 L 33.49 69.75 L 31.57 67.83 L 29.66 65.92 L 27.75 64.01 L 25.84 62.10 L 23.93 60.18 L 22.02 58.27 L 20.10 56.36 L 18.19 54.45 L 16.28 52.53 L 14.37 50.62 L 12.46 48.71 L 10.54 46.80 L 8.63 44.88 L 6.72 42.97 L 4.81 41.06 L 3.00 39.10 L 4.74 39.97 L 6.65 41.88 L 8.56 43.80 L 10.47 45.71 L 12.38 47.62 L 14.30 49.53 L 16.21 51.45 L 18.12 53.36 L 20.03 55.27 L 21.94 57.18 L 23.85 59.10 L 25.77 61.01 L 27.68 62.92 L 29.59 64.83 L 31.50 66.75 L 33.41 68.66 L 35.32 70.57 L 37.24 72.48 L 39.15 74.40 L 41.06 76.31 L 42.97 78.22 L 44.88 80.14 L 46.79 82.05 L 48.71 83.96 L 50.62 85.87 L 52.53 84.11 L 54.44 82.20 L 56.36 80.29 L 58.27 78.38 L 60.19 76.47 L 62.10 74.56 L 64.01 72.65 L 65.93 70.74 L 67.84 68.83 L 69.75 66.92 L 71.67 65.00 L 73.58 63.09 L 75.49 61.18 L 77.41 59.27 L 79.32 57.36 L 81.23 55.45 L 83.15 53.54 L 85.06 51.63 L 86.98 49.72 L 88.89 47.81 L 90.80 45.90 L 92.72 43.99 L 94.63 42.08 L 96.54 40.17 L 96.62 41.10 L 94.70 43.01 L 92.79 44.93 L 90.88 46.84 L 88.96 48.75 L 87.05 50.66 L 85.14 52.57 L 83.22 54.48 L 81.31 56.39 L 79.40 58.30 L 77.48 60.21 L 75.57 62.12 L 73.65 64.03 L 71.74 65.94 L 69.83 67.85 L 67.91 69.76 L 66.00 71.67 L 64.09 73.59 L 62.17 75.50 L 60.26 77.41 L 58.35 79.32 L 56.43 81.23 L 54.52 83.14 L 52.61 85.05 L 50.69 86.96" fill="none" stroke="#4a6b4a" stroke-width="0.3" opacity="0.6" data-segment="foul_lines" />
    <path d="M 51.42 85.69 L 51.38 85.73 L 51.35 85.77 L 51.31 85.80 L 51.27 85.84 L 51.24 85.87 L 51.20 85.91 L 51.17 85.94 L 51.13 85.98 L 51.10 86.01 L 51.06 86.05 L 51.03 86.08 L 50.99 86.12 L 50.95 86.15 L 50.92 86.19 L 50.88 86.23 L 50.85 86.26 L 50.81 86.30 L 50.78 86.33 L 50.74 86.37 L 50.71 86.40 L 50.67 86.41 L 50.63 86.38 L 50.60 86.34 L 50.56 86.31 L 50.53 86.27 L 50.49 86.23 L 50.46 86.20 L 50.42 86.16 L 50.39 86.13 L 50.35 86.09 L 50.32 86.06 L 50.28 86.02 L 50.25 85.98 L 50.21 85.95 L 50.18 85.91 L 50.14 85.88 L 50.11 85.84 L 50.07 85.80 L 50.03 85.77 L 50.00 85.73 L 49.96 85.70 L 49.96 85.65 L 49.96 85.60 L 49.96 85.55 L 49.96 85.50 L 49.96 85.45 L 49.96 85.40 L 49.96 85.35 L 49.96 85.30 L 49.96 85.25 L 49.96 85.20 L 49.96 85.15 L 49.96 85.10 L 49.96 85.05 L 49.96 85.00 L 49.98 84.97 L 50.03 84.97 L 50.08 84.97 L 50.13 84.97 L 50.19 84.97 L 50.24 84.97 L 50.29 84.97 L 50.34 84.97 L 50.39 84.97 L 50.44 84.97 L 50.49 84.97 L 50.54 84.97 L 50.59 84.97 L 50.64 84.97 L 50.69 84.97 L 50.74 84.97 L 50.79 84.97 L 50.84 84.97 L 50.89 84.97 L 50.94 84.97 L 50.99 84.97 L 51.04 84.97 L 51.09 84.97 L 51.14 84.97 L 51.19 84.97 L 51.24 84.97 L 51.29 84.97 L 51.34 84.97 L 51.39 84.97 L 51.42 84.99 L 51.42 85.04 L 51.42 85.09 L 51.42 85.14 L 51.42 85.19 L 51.42 85.24 L 51.42 85.29 L 51.42 85.34 L 51.42 85.39 L 51.42 85.44 L 51.42 85.49 L 51.42 85.54 L 51.42 85.59 L 51.42 85.64 L 51.42 85.69 Z" fill="#e5e5e5" stroke="#ffffff" stroke-width="0.3" data-segment="home_plate" />
  <text x="50" y="98" text-anchor="middle" font-size="3" fill="#737373" font-family="monospace">LF 335' · CF 408' · RF 330'</text>
</svg>
