<?xml version="1.0" encoding="UTF-8"?>
<svg xmlns="http://www.w3.org/2000/svg" viewBox="0 0 100 100" role="img" aria-label="nationals ballpark">
  <title>nationals</title>
  <rect width="100" height="100" fill="#1a2e1a" />
    <path d="M 97.00 38.55 L 95.67 36.12 L 94.36 33.68 L 93.04 31.25 L 91.72 28.81 L 90.40 26.38 L 89.07 23.94 L 86.91 22.32 L 84.37 21.21 L 81.85 20.06 L 79.33 18.92 L 76.80 17.78 L 74.28 16.64 L 71.74 15.53 L 69.21 14.41 L 66.69 13.27 L 64.16 12.14 L 61.62 11.02 L 59.10 9.88 L 56.58 8.73 L 54.05 7.60 L 51.53 6.47 L 48.99 5.36 L 46.41 5.84 L 43.98 7.17 L 41.55 8.50 L 39.14 9.86 L 36.71 11.18 L 34.28 12.51 L 31.79 12.21 L 29.33 13.46 L 26.90 14.80 L 24.48 16.14 L 22.05 17.46 L 19.63 18.82 L 17.20 20.15 L 14.91 21.63 L 12.92 23.50 L 11.31 25.73 L 9.83 28.07 L 8.37 30.43 L 6.90 32.78 L 5.45 35.14 L 3.99 37.49 L 3.00 39.66 L 5.00 41.58 L 6.99 43.50 L 8.99 45.42 L 10.98 47.34 L 12.20 49.62 L 12.35 52.38 L 13.10 54.97 L 14.45 57.39 L 15.79 59.81 L 17.14 62.23 L 18.49 64.65 L 19.84 67.07 L 21.18 69.49 L 22.53 71.91 L 24.50 73.84 L 26.55 75.70 L 28.60 77.56 L 30.65 79.43 L 32.70 81.29 L 34.75 83.15 L 36.80 85.02 L 38.85 86.88 L 40.90 88.74 L 42.95 90.61 L 45.72 93.04 L 49.54 94.64 L 52.89 94.38 L 55.51 93.19 L 57.14 91.99 L 57.49 91.73 L 59.39 90.11 L 61.49 88.31 L 63.59 86.50 L 65.69 84.69 L 67.78 82.88 L 69.88 81.08 L 71.98 79.27 L 74.08 77.46 L 76.18 75.66 L 78.28 73.85 L 79.89 72.37 L 80.65 70.75 L 81.94 67.91 L 83.53 64.38 L 85.17 60.71 L 86.62 57.44 L 87.66 55.11 L 88.04 54.16 L 88.22 51.40 L 88.58 48.72 L 90.55 46.78 L 92.53 44.83 L 94.50 42.89 L 96.47 40.95 L 97.00 38.55 Z" fill="#243524" stroke="#3d5c3d" stroke-width="0.5" data-segment="outfield_outer" />
    <path d="M 44.93 89.94 L 42.98 88.26 L 41.02 86.57 L 39.07 84.89 L 37.11 83.21 L 35.16 81.53 L 33.21 79.85 L 31.25 78.17 L 29.30 76.49 L 27.48 74.67 L 25.71 72.79 L 23.95 70.91 L 22.68 68.68 L 21.49 66.39 L 20.30 64.11 L 19.11 61.82 L 17.92 59.54 L 16.73 57.25 L 15.53 54.96 L 14.51 52.64 L 14.69 50.07 L 14.87 47.50 L 13.35 45.56 L 11.53 43.74 L 9.71 41.92 L 7.89 40.09 L 8.29 38.04 L 9.71 35.89 L 11.13 33.74 L 12.55 31.59 L 13.97 29.44 L 15.39 27.28 L 16.81 25.13 L 18.60 23.38 L 20.84 22.10 L 23.07 20.82 L 25.31 19.53 L 27.55 18.25 L 29.78 16.97 L 32.02 15.68 L 34.43 16.26 L 36.75 15.41 L 39.04 14.23 L 41.33 13.04 L 43.62 11.86 L 45.90 10.67 L 48.19 9.49 L 50.54 9.98 L 52.91 11.00 L 55.28 12.01 L 57.65 13.03 L 60.02 14.04 L 62.39 15.06 L 64.76 16.08 L 67.13 17.09 L 69.50 18.11 L 71.87 19.12 L 74.23 20.14 L 76.60 21.15 L 78.97 22.17 L 81.34 23.19 L 83.71 24.20 L 86.08 25.22 L 87.42 27.39 L 88.69 29.63 L 89.97 31.87 L 91.24 34.11 L 92.52 36.35 L 93.79 38.59 L 93.10 40.55 L 91.25 42.34 L 89.40 44.14 L 87.55 45.93 L 86.41 48.07 L 86.18 50.64 L 85.95 53.20 L 85.00 55.59 L 84.01 57.97 L 83.01 60.35 L 82.02 62.73 L 81.03 65.11 L 80.03 67.49 L 79.04 69.86 L 77.82 72.08 L 75.85 73.74 L 73.88 75.39 L 71.90 77.05 L 69.93 78.71 L 67.96 80.37 L 65.98 82.03 L 64.01 83.69 L 62.04 85.35 L 60.07 87.01 L 58.09 88.67 L 56.55 89.97 L 55.75 90.79 L 54.00 92.05 L 51.49 92.88 L 48.41 92.46 L 44.93 89.94" fill="none" stroke="#3d5c3d" stroke-width="0.25" opacity="0.4" data-segment="outfield_inner" />
    <path d="M 69.05 68.39 L 68.97 68.19 L 68.73 67.63 L 68.31 66.77 L 67.73 65.67 L 66.98 64.37 L 66.05 62.95 L 64.95 61.46 L 63.66 59.95 L 62.19 58.49 L 60.54 57.13 L 58.70 55.92 L 56.67 54.94 L 54.44 54.22 L 52.02 53.84 L 49.43 53.85 L 46.95 54.23 L 44.67 54.93 L 42.60 55.90 L 40.72 57.07 L 39.03 58.40 L 37.53 59.83 L 36.22 61.29 L 35.09 62.75 L 34.15 64.13 L 33.38 65.39 L 32.78 66.46 L 32.36 67.30 L 32.11 67.85 L 32.03 68.04 L 33.26 69.22 L 34.49 70.41 L 35.73 71.59 L 36.96 72.78 L 38.20 73.96 L 39.44 75.15 L 40.67 76.34 L 41.91 77.52 L 43.14 78.71 L 44.38 79.89 L 45.62 81.08 L 46.85 82.27 L 46.87 83.62 L 46.64 85.27 L 47.15 86.89 L 48.31 88.13 L 49.89 88.76 L 51.59 88.65 L 53.07 87.82 L 54.06 86.44 L 54.36 84.77 L 53.89 83.13 L 55.00 81.93 L 56.23 80.74 L 57.47 79.55 L 58.70 78.36 L 59.93 77.17 L 61.17 75.99 L 62.40 74.80 L 63.64 73.61 L 64.87 72.42 L 66.10 71.23 L 67.34 70.04 L 68.57 68.86 L 69.05 68.39 Z" fill="#2a3f2a" stroke="#4a6b4a" stroke-width="0.4" data-segment="infield_outer" />
    <path d="M 49.47 81.31 L 48.13 80.67 L 46.91 79.47 L 45.69 78.26 L 44.48 77.05 L 43.26 75.85 L 42.04 74.64 L 40.83 73.44 L 40.16 72.45 L 41.45 70.88 L 41.58 69.06 L 42.43 67.89 L 43.66 66.69 L 44.88 65.49 L 46.11 64.30 L 47.33 63.10 L 48.61 62.37 L 50.24 62.87 L 51.92 62.63 L 53.30 62.79 L 54.53 63.99 L 55.75 65.19 L 56.98 66.38 L 58.20 67.58 L 59.43 68.78 L 59.30 70.29 L 60.12 71.68 L 60.65 72.94 L 59.43 74.14 L 58.22 75.35 L 57.00 76.55 L 55.78 77.76 L 54.56 78.96 L 53.34 80.16 L 52.12 81.37 L 49.47 81.31" fill="none" stroke="#4a6b4a" stroke-width="0.25" opacity="0.5" data-segment="infield_inner" />
    <path d="M 50.51 85.45 L 48.62 83.56 L 46.72 81.66 L 44.83 79.76 L 42.93 77.87 L 41.04 75.97 L 39.14 74.08 L 37.25 72.18 L 35.35 70.28 L 33.46 68.39 L 31.56 66.49 L 29.67 64.60 L 27.77 62.70 L 25.87 60.80 L 23.98 58.91 L 22.08 57.01 L 20.19 55.12 L 18.29 53.22 L 16.40 51.32 L 14.50 49.43 L 12.61 47.53 L 10.71 45.64 L 8.82 43.74 L 6.92 41.84 L 5.03 39.95 L 3.65 38.00 L 5.50 39.42 L 7.40 41.32 L 9.29 43.21 L 11.19 45.11 L 13.08 47.00 L 14.98 48.90 L 16.87 50.80 L 18.77 52.69 L 20.67 54.59 L 22.56 56.48 L 24.46 58.38 L 26.35 60.28 L 28.25 62.17 L 30.14 64.07 L 32.04 65.96 L 33.93 67.86 L 35.83 69.76 L 37.72 71.65 L 39.62 73.55 L 41.51 75.45 L 43.41 77.34 L 45.30 79.24 L 47.20 81.13 L 49.09 83.03 L 50.99 83.97 L 52.89 82.08 L 54.78 80.18 L 56.68 78.29 L 58.58 76.40 L 60.48 74.50 L 62.37 72.61 L 64.27 70.71 L 66.17 68.82 L 68.06 66.92 L 69.96 65.03 L 71.86 63.14 L 73.76 61.24 L 75.65 59.35 L 77.55 57.45 L 79.45 55.56 L 81.34 53.67 L 83.24 51.77 L 85.14 49.88 L 87.04 47.98 L 88.93 46.09 L 90.83 44.19 L 92.73 42.30 L 94.62 40.41 L 96.52 38.51 L 96.04 39.99 L 94.15 41.88 L 92.25 43.78 L 90.35 45.67 L 88.45 47.57 L 86.56 49.46 L 84.66 51.35 L 82.76 53.25 L 80.87 55.14 L 78.97 57.04 L 77.07 58.93 L 75.17 60.83 L 73.28 62.72 L 71.38 64.61 L 69.48 66.51 L 67.59 68.40 L 65.69 70.30 L 63.79 72.19 L 61.90 74.09 L 60.00 75.98 L 58.10 77.88 L 56.20 79.77 L 54.31 81.66 L 52.41 83.56 L 50.51 85.45" fill="none" stroke="#4a6b4a" stroke-width="0.3" opacity="0.6" data-segment="foul_lines" />
    <path d="M 51.23 84.20 L 51.20 84.23 L 51.16 84.27 L 51.13 84.30 L 51.09 84.34 L 51.06 84.37 L 51.02 84.41 L 50.99 84.44 L 50.95 84.48 L 50.92 84.51 L 50.88 84.55 L 50.84 84.58 L 50.81 84.62 L 50.77 84.65 L 50.74 84.69 L 50.70 84.72 L 50.67 84.76 L 50.63 84.79 L 50.60 84.83 L 50.56 84.86 L 50.53 84.90 L 50.49 84.91 L 50.46 84.87 L 50.42 84.84 L 50.39 84.80 L 50.35 84.77 L 50.32 84.73 L 50.28 84.70 L 50.25 84.66 L 50.21 84.63 L 50.18 84.59 L 50.14 84.56 L 50.11 84.52 L 50.07 84.48 L 50.04 84.45 L 50.00 84.41 L 49.97 84.38 L 49.93 84.34 L 49.90 84.31 L 49.86 84.27 L 49.83 84.24 L 49.79 84.20 L 49.79 84.15 L 49.79 84.10 L 49.79 84.05 L 49.79 84.00 L 49.79 83.95 L 49.79 83.90 L 49.79 83.85 L 49.79 83.80 L 49.79 83.75 L 49.79 83.70 L 49.79 83.65 L 49.79 83.60 L 49.79 83.56 L 49.79 83.51 L 49.81 83.48 L 49.86 83.48 L 49.91 83.48 L 49.96 83.48 L 50.01 83.48 L 50.06 83.48 L 50.11 83.48 L 50.16 83.48 L 50.21 83.48 L 50.26 83.48 L 50.31 83.48 L 50.36 83.48 L 50.41 83.48 L 50.46 83.48 L 50.51 83.48 L 50.56 83.48 L 50.61 83.48 L 50.66 83.48 L 50.71 83.48 L 50.76 83.48 L 50.81 83.48 L 50.86 83.48 L 50.91 83.48 L 50.96 83.48 L 51.01 83.48 L 51.06 83.48 L 51.11 83.48 L 51.16 83.48 L 51.21 83.48 L 51.23 83.50 L 51.23 83.55 L 51.23 83.60 L 51.23 83.65 L 51.23 83.70 L 51.23 83.75 L 51.23 83.80 L 51.23 83.85 L 51.23 83.90 L 51.23 83.95 L 51.23 84.00 L 51.23 84.05 L 51.23 84.10 L 51.23 84.15 L 51.23 84.20 Z" fill="#e5e5e5" stroke="#ffffff" stroke-width="0.3" data-segment="home_plate" />
  <text x="50" y="98" text-anchor="middle" font-size="3" fill="#737373" font-family="monospace">LF 336' · CF 402' · RF 335'</text>
</svg>
