<?xml version="1.0" encoding="UTF-8"?>
<svg xmlns="http://www.w3.org/2000/svg" viewBox="0 0 100 100" role="img" aria-label="orioles ballpark">
  <title>orioles</title>
  <rect width="100" height="100" fill="#1a2e1a" />
    <path d="M 95.14 40.00 L 94.00 37.40 L 93.07 34.69 L 92.14 31.98 L 91.20 29.27 L 90.27 26.57 L 89.12 24.15 L 86.26 24.07 L 83.77 23.31 L 82.17 20.93 L 80.56 18.56 L 78.96 16.19 L 77.52 13.76 L 76.86 12.31 L 74.32 12.14 L 71.56 11.38 L 68.79 10.63 L 66.03 9.88 L 63.27 9.12 L 60.51 8.37 L 57.74 7.61 L 54.98 6.86 L 52.22 6.10 L 49.45 5.35 L 46.69 4.60 L 44.05 4.59 L 41.69 6.21 L 39.33 7.83 L 36.97 9.45 L 34.60 11.07 L 32.24 12.69 L 30.29 12.11 L 28.67 9.75 L 26.51 10.23 L 24.14 11.83 L 21.77 13.44 L 19.40 15.05 L 17.03 16.66 L 14.66 18.26 L 12.29 19.87 L 9.92 21.48 L 7.55 23.09 L 5.18 24.69 L 3.86 27.16 L 3.00 29.82 L 3.87 32.55 L 4.74 35.27 L 5.05 37.90 L 5.47 39.53 L 5.79 39.98 L 6.43 40.89 L 7.36 42.20 L 8.54 43.88 L 9.96 45.89 L 11.58 48.18 L 13.37 50.72 L 15.30 53.46 L 17.35 56.36 L 19.48 59.38 L 21.67 62.49 L 23.89 65.63 L 26.10 68.77 L 28.29 71.87 L 30.41 74.88 L 32.45 77.77 L 34.37 80.49 L 36.15 83.00 L 37.75 85.27 L 39.28 87.43 L 41.90 90.59 L 44.52 92.90 L 47.12 94.44 L 49.66 95.25 L 52.12 95.41 L 54.46 94.97 L 56.67 93.98 L 58.70 92.53 L 60.54 90.65 L 62.15 88.42 L 62.94 87.24 L 63.83 85.98 L 64.95 84.39 L 66.27 82.52 L 67.76 80.40 L 69.41 78.07 L 71.18 75.55 L 73.05 72.89 L 74.99 70.12 L 76.99 67.28 L 79.00 64.40 L 81.02 61.52 L 83.01 58.67 L 84.95 55.89 L 86.81 53.22 L 88.57 50.69 L 90.20 48.33 L 91.67 46.19 L 94.61 45.70 L 97.00 44.82 L 96.28 41.51 L 95.14 40.00 Z" fill="#243524" stroke="#3d5c3d" stroke-width="0.5" data-segment="outfield_outer" />
    <path d="M 75.11 16.38 L 72.67 15.69 L 70.23 15.00 L 67.79 14.30 L 65.35 13.61 L 62.91 12.92 L 60.47 12.22 L 58.04 11.53 L 55.60 10.84 L 53.16 10.15 L 50.72 9.45 L 48.28 8.76 L 45.84 8.07 L 43.72 9.40 L 41.61 10.81 L 39.51 12.22 L 37.40 13.64 L 35.30 15.05 L 33.19 16.46 L 30.96 16.73 L 28.60 15.80 L 26.24 14.87 L 24.15 16.21 L 22.07 17.66 L 19.99 19.12 L 17.91 20.57 L 15.84 22.02 L 13.76 23.47 L 11.68 24.92 L 9.60 26.38 L 7.52 27.83 L 6.43 30.09 L 6.82 32.50 L 7.53 34.94 L 8.25 37.37 L 8.79 38.47 L 9.45 39.42 L 10.31 40.65 L 11.33 42.13 L 12.51 43.82 L 13.82 45.72 L 15.26 47.79 L 16.80 50.01 L 18.43 52.35 L 20.13 54.80 L 21.89 57.33 L 23.69 59.92 L 25.51 62.54 L 27.34 65.16 L 29.16 67.77 L 30.95 70.34 L 32.70 72.85 L 34.39 75.27 L 36.01 77.57 L 37.54 79.75 L 38.96 81.76 L 40.25 83.59 L 41.49 85.33 L 43.28 87.61 L 45.21 89.61 L 47.22 91.19 L 49.27 92.25 L 51.31 92.65 L 53.77 92.16 L 56.04 90.83 L 58.03 89.04 L 59.61 87.15 L 60.49 85.93 L 61.24 84.88 L 62.20 83.54 L 63.34 81.95 L 64.65 80.13 L 66.10 78.11 L 67.67 75.92 L 69.34 73.59 L 71.09 71.14 L 72.90 68.61 L 74.75 66.02 L 76.62 63.40 L 78.48 60.78 L 80.32 58.19 L 82.12 55.66 L 83.84 53.20 L 85.48 50.87 L 87.02 48.67 L 88.42 46.64 L 89.67 44.81 L 90.76 43.20 L 91.56 41.71 L 90.91 39.37 L 89.47 37.28 L 88.03 35.19 L 86.60 33.10 L 85.16 31.01 L 83.73 28.92 L 82.29 26.83 L 80.85 24.74 L 79.42 22.65 L 77.98 20.56 L 76.55 18.47 L 75.11 16.38" fill="none" stroke="#3d5c3d" stroke-width="0.25" opacity="0.4" data-segment="outfield_inner" />
    <path d="M 68.98 66.40 L 68.92 66.22 L 68.76 65.70 L 68.47 64.89 L 68.05 63.84 L 67.47 62.61 L 66.70 61.27 L 65.74 59.86 L 64.56 58.45 L 63.13 57.10 L 61.45 55.85 L 59.49 54.78 L 57.23 53.93 L 54.65 53.37 L 51.72 53.15 L 48.68 53.29 L 45.98 53.71 L 43.59 54.39 L 41.51 55.27 L 39.71 56.32 L 38.18 57.49 L 36.88 58.73 L 35.81 60.01 L 34.94 61.29 L 34.26 62.52 L 33.73 63.65 L 33.35 64.66 L 33.10 65.48 L 32.94 66.09 L 32.69 66.59 L 33.88 67.78 L 35.07 68.97 L 36.26 70.16 L 37.45 71.35 L 38.64 72.54 L 39.83 73.39 L 41.03 74.26 L 42.23 75.44 L 43.43 76.62 L 44.64 77.80 L 45.84 78.98 L 47.04 80.16 L 48.24 81.34 L 48.11 82.75 L 48.26 84.44 L 49.19 85.78 L 50.74 86.41 L 52.40 86.11 L 53.62 85.02 L 54.09 83.41 L 53.63 81.81 L 54.49 80.61 L 55.71 79.46 L 56.94 78.30 L 58.16 77.14 L 59.38 75.98 L 60.60 74.83 L 61.83 73.67 L 63.21 73.25 L 64.40 72.06 L 65.59 70.87 L 66.78 69.68 L 67.97 68.49 L 69.16 67.30 L 68.98 66.40 Z" fill="#2a3f2a" stroke="#4a6b4a" stroke-width="0.4" data-segment="infield_outer" />
    <path d="M 52.27 80.68 L 50.58 80.43 L 49.09 80.91 L 47.92 79.70 L 46.75 78.49 L 45.58 77.28 L 44.41 76.07 L 43.23 74.86 L 42.06 73.65 L 40.89 72.44 L 41.50 71.77 L 42.46 70.16 L 42.46 68.13 L 43.13 66.81 L 44.43 65.73 L 45.72 64.66 L 47.01 63.58 L 48.31 62.50 L 49.60 61.42 L 51.01 60.61 L 52.48 61.30 L 53.70 62.46 L 54.91 63.62 L 56.13 64.79 L 57.35 65.95 L 58.56 67.12 L 59.78 68.28 L 59.92 69.38 L 60.38 71.17 L 61.26 72.79 L 60.05 73.96 L 58.84 75.13 L 57.62 76.29 L 56.41 77.46 L 55.19 78.63 L 53.98 79.80 L 52.27 80.68" fill="none" stroke="#4a6b4a" stroke-width="0.25" opacity="0.5" data-segment="infield_inner" />
    <path d="M 51.16 84.03 L 50.70 83.56 L 50.24 83.10 L 49.78 82.64 L 49.31 82.18 L 48.85 81.71 L 48.39 81.25 L 47.92 80.79 L 47.46 80.33 L 47.00 79.86 L 46.54 79.40 L 46.07 78.94 L 45.61 78.48 L 45.15 78.01 L 44.68 77.55 L 44.22 77.09 L 43.76 76.63 L 43.29 76.17 L 42.83 75.70 L 42.37 75.24 L 41.91 74.78 L 41.44 74.32 L 40.98 73.85 L 40.52 73.39 L 40.05 72.93 L 39.59 72.47 L 39.13 72.00 L 38.67 71.54 L 38.20 71.08 L 37.74 70.62 L 37.28 70.15 L 36.81 69.69 L 36.35 69.23 L 35.89 68.77 L 35.43 68.30 L 34.96 67.84 L 34.50 67.38 L 34.04 66.92 L 33.57 66.45 L 33.11 65.99 L 32.65 65.53 L 32.19 65.07 L 31.72 64.60 L 31.26 64.14 L 30.80 63.68 L 30.33 63.22 L 29.87 62.75 L 29.41 62.29 L 28.95 61.83 L 28.48 61.37 L 28.02 60.91 L 27.56 60.44 L 27.09 59.98 L 26.63 59.52 L 26.17 59.06 L 25.70 58.59 L 25.24 58.13 L 24.78 57.67 L 24.32 57.21 L 23.85 56.74 L 23.39 56.28 L 22.93 55.82 L 22.46 55.36 L 22.00 54.89 L 21.54 54.43 L 21.08 53.97 L 20.61 53.51 L 20.15 53.04 L 19.69 52.58 L 19.22 52.12 L 18.76 51.66 L 18.30 51.19 L 17.84 50.73 L 17.37 50.27 L 16.91 49.81 L 16.45 49.34 L 15.98 48.88 L 15.52 48.42 L 15.06 47.96 L 14.60 47.49 L 14.13 47.03 L 13.67 46.57 L 13.21 46.11 L 12.74 45.64 L 12.28 45.18 L 11.82 44.72 L 11.35 44.26 L 10.89 43.80 L 10.43 43.33 L 9.97 42.87 L 9.50 42.41 L 9.04 41.95 L 8.58 41.48 L 8.11 41.02 L 7.65 40.56 L 7.19 40.10 L 6.73 39.63 L 6.26 39.17 L 5.80 38.71 L 5.34 38.25 L 51.16 84.03 L 51.60 83.59 L 52.04 83.15 L 52.48 82.71 L 52.92 82.27 L 53.36 81.83 L 53.80 81.38 L 54.24 80.94 L 54.68 80.50 L 55.12 80.06 L 55.56 79.62 L 56.00 79.18 L 56.44 78.74 L 56.88 78.30 L 57.32 77.86 L 57.76 77.42 L 58.20 76.98 L 58.64 76.54 L 59.08 76.10 L 59.52 75.66 L 59.96 75.22 L 60.40 74.78 L 60.84 74.34 L 61.28 73.90 L 61.72 73.46 L 62.16 73.02 L 62.60 72.58 L 63.04 72.14 L 63.48 71.70 L 63.92 71.26 L 64.36 70.82 L 64.80 70.38 L 65.24 69.94 L 65.68 69.50 L 66.12 69.06 L 66.56 68.62 L 67.00 68.18 L 67.44 67.74 L 67.88 67.30 L 68.32 66.86 L 68.76 66.42 L 69.20 65.98 L 69.64 65.54 L 70.08 65.09 L 70.52 64.65 L 70.96 64.21 L 71.40 63.77 L 71.83 63.33 L 72.27 62.89 L 72.71 62.45 L 73.15 62.01 L 73.59 61.57 L 74.03 61.13 L 74.47 60.69 L 74.91 60.25 L 75.35 59.81 L 75.79 59.37 L 76.23 58.93 L 76.67 58.49 L 77.11 58.05 L 77.55 57.61 L 77.99 57.17 L 78.43 56.73 L 78.87 56.29 L 79.31 55.85 L 79.75 55.41 L 80.19 54.97 L 80.63 54.53 L 81.07 54.09 L 81.51 53.65 L 81.95 53.21 L 82.39 52.77 L 82.83 52.33 L 83.27 51.89 L 83.71 51.45 L 84.15 51.01 L 84.59 50.57 L 85.03 50.13 L 85.47 49.69 L 85.91 49.24 L 86.35 48.80 L 86.79 48.36 L 87.23 47.92 L 87.67 47.48 L 88.11 47.04 L 88.55 46.60 L 88.99 46.16 L 89.43 45.72 L 89.87 45.28 L 90.31 44.84 L 90.75 44.40 L 91.19 43.96 L 91.63 43.52 L 92.07 43.08 L 92.51 42.64 L 92.95 42.20 L 93.39 41.76 L 93.82 41.32 L 94.26 40.88 L 94.70 40.44" fill="none" stroke="#4a6b4a" stroke-width="0.3" opacity="0.6" data-segment="foul_lines" />
    <path d="M 51.87 83.37 L 51.84 83.40 L 51.80 83.44 L 51.77 83.47 L 51.74 83.51 L 51.70 83.55 L 51.67 83.58 L 51.64 83.62 L 51.60 83.65 L 51.57 83.69 L 51.54 83.72 L 51.50 83.76 L 51.47 83.80 L 51.44 83.83 L 51.40 83.87 L 51.37 83.90 L 51.34 83.94 L 51.30 83.97 L 51.27 84.01 L 51.24 84.05 L 51.20 84.08 L 51.17 84.12 L 51.13 84.09 L 51.10 84.05 L 51.07 84.02 L 51.03 83.98 L 51.00 83.95 L 50.97 83.91 L 50.93 83.87 L 50.90 83.84 L 50.87 83.80 L 50.83 83.77 L 50.80 83.73 L 50.77 83.70 L 50.73 83.66 L 50.70 83.62 L 50.67 83.59 L 50.63 83.55 L 50.60 83.52 L 50.57 83.48 L 50.53 83.45 L 50.50 83.41 L 50.46 83.37 L 50.46 83.33 L 50.46 83.28 L 50.46 83.23 L 50.46 83.18 L 50.46 83.13 L 50.46 83.08 L 50.46 83.04 L 50.46 82.99 L 50.46 82.94 L 50.46 82.89 L 50.46 82.84 L 50.46 82.79 L 50.46 82.74 L 50.46 82.69 L 50.47 82.66 L 50.52 82.66 L 50.57 82.66 L 50.62 82.66 L 50.67 82.66 L 50.72 82.66 L 50.77 82.66 L 50.82 82.66 L 50.86 82.66 L 50.91 82.66 L 50.96 82.66 L 51.01 82.66 L 51.06 82.66 L 51.11 82.66 L 51.16 82.66 L 51.21 82.66 L 51.26 82.66 L 51.31 82.66 L 51.35 82.66 L 51.40 82.66 L 51.45 82.66 L 51.50 82.66 L 51.55 82.66 L 51.60 82.66 L 51.65 82.66 L 51.70 82.66 L 51.75 82.66 L 51.80 82.66 L 51.84 82.66 L 51.87 82.68 L 51.87 82.73 L 51.87 82.78 L 51.87 82.83 L 51.87 82.88 L 51.87 82.93 L 51.87 82.97 L 51.87 83.02 L 51.87 83.07 L 51.87 83.12 L 51.87 83.17 L 51.87 83.22 L 51.87 83.27 L 51.87 83.32 Z" fill="#e5e5e5" stroke="#ffffff" stroke-width="0.3" data-segment="home_plate" />
  <text x="50" y="98" text-anchor="middle" font-size="3" fill="#737373" font-family="monospace">LF 333' · CF 410' · RF 318'</text>
</svg>
