<?xml version="1.0" encoding="UTF-8"?>
<svg xmlns="http://www.w3.org/2000/svg" viewBox="0 0 100 100" role="img" aria-label="padres ballpark">
  <title>padres</title>
  <rect width="100" height="100" fill="#1a2e1a" />
    <path d="M 3.00 39.37 L 4.93 41.29 L 6.87 43.21 L 8.80 45.13 L 10.74 47.05 L 12.67 48.97 L 14.60 50.89 L 16.54 52.81 L 17.67 55.06 L 17.92 57.72 L 19.39 60.01 L 20.87 62.30 L 22.34 64.59 L 23.82 66.88 L 25.29 69.18 L 26.76 71.47 L 28.24 73.76 L 30.00 75.81 L 31.46 78.08 L 32.82 80.43 L 34.70 82.40 L 36.59 84.37 L 38.47 86.34 L 40.80 87.11 L 42.74 89.02 L 44.68 90.94 L 47.10 92.13 L 49.65 93.01 L 52.38 93.01 L 54.85 91.94 L 57.15 90.52 L 59.12 88.64 L 61.44 87.49 L 63.29 85.48 L 65.13 83.48 L 66.98 81.47 L 68.82 79.47 L 70.38 77.23 L 72.05 75.10 L 73.55 72.85 L 74.92 70.49 L 76.29 68.13 L 77.65 65.78 L 79.02 63.42 L 80.39 61.06 L 81.76 58.70 L 83.51 56.64 L 85.43 54.71 L 87.36 52.79 L 89.29 50.86 L 91.22 48.93 L 93.14 47.01 L 95.07 45.08 L 97.00 43.15 L 95.75 41.04 L 93.95 39.00 L 92.54 36.85 L 92.48 34.13 L 92.40 31.40 L 90.93 29.28 L 89.00 27.35 L 87.08 25.42 L 85.16 23.49 L 83.23 21.57 L 81.30 19.64 L 79.38 17.71 L 77.45 15.78 L 75.52 13.85 L 73.55 11.98 L 71.27 10.51 L 68.91 9.13 L 66.40 8.13 L 63.72 7.66 L 61.03 7.18 L 58.32 6.99 L 55.60 7.03 L 52.87 7.08 L 50.15 7.11 L 47.42 7.16 L 44.76 7.46 L 42.20 8.29 L 39.47 8.36 L 36.75 8.44 L 34.27 9.40 L 31.90 10.74 L 29.52 12.08 L 27.40 13.77 L 25.47 15.69 L 23.55 17.62 L 21.62 19.55 L 19.69 21.47 L 17.76 23.40 L 15.84 25.33 L 13.91 27.25 L 11.98 29.18 L 10.05 31.11 L 8.13 33.03 L 6.28 35.03 L 4.76 37.29 L 3.00 39.37 Z" fill="#243524" stroke="#3d5c3d" stroke-width="0.5" data-segment="outfield_outer" />
    <path d="M 20.36 56.96 L 20.39 54.47 L 19.64 52.29 L 17.90 50.51 L 16.15 48.73 L 14.41 46.95 L 12.66 45.17 L 10.91 43.39 L 9.17 41.61 L 7.42 39.83 L 7.98 38.14 L 8.53 37.58 L 9.70 36.37 L 11.39 34.64 L 13.47 32.52 L 15.82 30.13 L 18.32 27.58 L 20.86 25.00 L 23.31 22.53 L 25.55 20.26 L 27.47 18.35 L 28.95 16.89 L 29.86 16.03 L 31.51 14.87 L 34.33 13.23 L 36.17 12.23 L 38.16 12.18 L 40.66 12.18 L 43.15 12.18 L 45.53 11.49 L 47.90 10.78 L 50.39 10.83 L 52.89 10.87 L 55.38 10.91 L 57.87 10.96 L 60.36 11.00 L 62.83 11.34 L 65.28 11.79 L 67.64 12.50 L 69.85 13.65 L 72.06 14.81 L 73.91 16.46 L 75.69 18.21 L 77.46 19.95 L 79.24 21.70 L 81.02 23.45 L 82.80 25.20 L 84.58 26.94 L 86.35 28.69 L 88.13 30.44 L 89.91 32.19 L 90.16 34.59 L 90.20 37.08 L 90.87 39.40 L 92.12 41.55 L 91.43 43.47 L 89.69 45.25 L 87.94 47.03 L 86.20 48.81 L 84.46 50.59 L 82.71 52.37 L 80.97 54.15 L 79.54 56.17 L 78.30 58.34 L 77.07 60.50 L 75.83 62.67 L 74.59 64.83 L 73.35 66.99 L 72.11 69.16 L 70.88 71.32 L 69.64 73.49 L 68.14 75.45 L 66.38 77.21 L 64.61 78.97 L 62.85 80.73 L 61.08 82.49 L 59.32 84.26 L 57.55 86.02 L 55.79 87.78 L 54.00 89.51 L 51.71 90.44 L 49.28 90.51 L 46.98 89.63 L 45.16 87.93 L 43.39 86.17 L 41.63 84.40 L 39.87 82.64 L 38.11 80.88 L 36.34 79.12 L 34.58 77.36 L 32.82 75.59 L 31.23 73.68 L 29.87 71.59 L 28.52 69.50 L 27.16 67.41 L 25.80 65.32 L 24.44 63.23 L 23.08 61.14 L 21.72 59.05 L 20.36 56.96" fill="none" stroke="#3d5c3d" stroke-width="0.25" opacity="0.4" data-segment="outfield_inner" />
    <path d="M 68.97 67.32 L 68.89 67.12 L 68.65 66.56 L 68.24 65.71 L 67.66 64.61 L 66.92 63.33 L 65.99 61.92 L 64.90 60.44 L 63.62 58.95 L 62.17 57.50 L 60.52 56.16 L 58.70 54.97 L 56.68 54.00 L 54.48 53.30 L 52.08 52.93 L 49.50 52.95 L 47.05 53.33 L 44.81 54.04 L 42.76 55.00 L 40.90 56.17 L 39.23 57.49 L 37.76 58.91 L 36.47 60.36 L 35.36 61.80 L 34.43 63.16 L 33.68 64.40 L 33.10 65.46 L 32.69 66.28 L 32.45 66.80 L 32.43 67.03 L 33.66 68.20 L 34.88 69.38 L 36.10 70.55 L 37.33 71.73 L 38.55 72.90 L 39.77 74.07 L 41.00 75.25 L 42.22 76.42 L 43.45 77.60 L 44.67 78.77 L 45.89 79.95 L 47.12 81.12 L 47.00 82.50 L 46.83 84.13 L 47.40 85.72 L 48.59 86.91 L 50.17 87.47 L 51.85 87.30 L 53.28 86.42 L 54.21 85.02 L 54.44 83.35 L 53.98 81.76 L 55.20 80.59 L 56.42 79.41 L 57.64 78.23 L 58.86 77.05 L 60.08 75.88 L 61.31 74.70 L 62.53 73.52 L 63.75 72.35 L 64.97 71.17 L 66.19 69.99 L 67.41 68.82 L 68.64 67.64 L 68.97 67.32 Z" fill="#2a3f2a" stroke="#4a6b4a" stroke-width="0.4" data-segment="infield_outer" />
    <path d="M 49.42 80.14 L 48.13 79.32 L 46.92 78.13 L 45.71 76.95 L 44.49 75.76 L 43.28 74.58 L 42.07 73.39 L 40.85 72.21 L 40.61 70.98 L 41.66 69.67 L 41.42 68.02 L 42.63 66.83 L 43.84 65.65 L 45.06 64.46 L 46.27 63.28 L 47.48 62.09 L 48.75 61.40 L 50.36 61.88 L 52.03 61.63 L 53.39 61.83 L 54.61 63.01 L 55.83 64.19 L 57.05 65.36 L 58.27 66.54 L 59.49 67.72 L 59.53 69.23 L 60.25 70.61 L 60.74 71.85 L 59.52 73.04 L 58.31 74.22 L 57.10 75.40 L 55.88 76.59 L 54.67 77.77 L 53.45 78.96 L 52.24 80.14 L 49.42 80.14" fill="none" stroke="#4a6b4a" stroke-width="0.25" opacity="0.5" data-segment="infield_inner" />
    <path d="M 50.65 84.18 L 48.82 82.35 L 46.99 80.52 L 45.16 78.69 L 43.33 76.86 L 41.50 75.03 L 39.67 73.20 L 37.84 71.37 L 36.01 69.54 L 34.18 67.71 L 32.35 65.88 L 30.52 64.05 L 28.69 62.22 L 26.86 60.39 L 25.03 58.56 L 23.20 56.73 L 21.37 54.90 L 19.54 53.07 L 17.71 51.24 L 15.88 49.40 L 14.05 47.57 L 12.22 45.74 L 10.39 43.91 L 8.56 42.08 L 6.73 40.25 L 4.90 38.42 L 5.55 38.07 L 7.38 39.90 L 9.21 41.73 L 11.04 43.56 L 12.87 45.39 L 14.69 47.22 L 16.52 49.05 L 18.35 50.88 L 20.18 52.72 L 22.01 54.55 L 23.84 56.38 L 25.67 58.21 L 27.50 60.04 L 29.33 61.87 L 31.16 63.70 L 32.99 65.53 L 34.82 67.36 L 36.65 69.19 L 38.48 71.02 L 40.31 72.85 L 42.14 74.68 L 43.97 76.51 L 45.80 78.34 L 47.63 80.17 L 49.46 82.00 L 51.29 82.55 L 53.12 80.72 L 54.95 78.89 L 56.78 77.06 L 58.61 75.23 L 60.45 73.41 L 62.28 71.58 L 64.11 69.75 L 65.94 67.92 L 67.77 66.09 L 69.60 64.26 L 71.43 62.43 L 73.27 60.60 L 75.10 58.78 L 76.93 56.95 L 78.76 55.12 L 80.59 53.29 L 82.42 51.46 L 84.25 49.63 L 86.09 47.80 L 87.92 45.98 L 89.75 44.15 L 91.58 42.32 L 93.41 40.49 L 94.60 40.30 L 92.77 42.12 L 90.94 43.95 L 89.11 45.78 L 87.28 47.61 L 85.44 49.44 L 83.61 51.27 L 81.78 53.10 L 79.95 54.92 L 78.12 56.75 L 76.29 58.58 L 74.46 60.41 L 72.62 62.24 L 70.79 64.07 L 68.96 65.90 L 67.13 67.73 L 65.30 69.55 L 63.47 71.38 L 61.64 73.21 L 59.80 75.04 L 57.97 76.87 L 56.14 78.70 L 54.31 80.53 L 52.48 82.35 L 50.65 84.18" fill="none" stroke="#4a6b4a" stroke-width="0.3" opacity="0.6" data-segment="foul_lines" />
    <path d="M 51.36 82.94 L 51.32 82.98 L 51.29 83.01 L 51.25 83.05 L 51.22 83.08 L 51.18 83.12 L 51.15 83.15 L 51.11 83.19 L 51.08 83.22 L 51.04 83.25 L 51.01 83.29 L 50.97 83.32 L 50.94 83.36 L 50.90 83.39 L 50.87 83.43 L 50.83 83.46 L 50.80 83.50 L 50.76 83.53 L 50.73 83.57 L 50.69 83.60 L 50.66 83.64 L 50.62 83.65 L 50.59 83.61 L 50.56 83.58 L 50.52 83.54 L 50.49 83.51 L 50.45 83.47 L 50.42 83.44 L 50.38 83.40 L 50.35 83.37 L 50.31 83.33 L 50.28 83.30 L 50.24 83.26 L 50.21 83.23 L 50.18 83.19 L 50.14 83.16 L 50.11 83.12 L 50.07 83.09 L 50.04 83.05 L 50.00 83.02 L 49.97 82.98 L 49.93 82.95 L 49.93 82.90 L 49.93 82.85 L 49.93 82.80 L 49.93 82.75 L 49.93 82.70 L 49.93 82.65 L 49.93 82.60 L 49.93 82.55 L 49.93 82.50 L 49.93 82.45 L 49.93 82.41 L 49.93 82.36 L 49.93 82.31 L 49.93 82.26 L 49.95 82.23 L 50.00 82.23 L 50.05 82.23 L 50.10 82.23 L 50.15 82.23 L 50.20 82.23 L 50.25 82.23 L 50.30 82.23 L 50.35 82.23 L 50.40 82.23 L 50.45 82.23 L 50.49 82.23 L 50.54 82.23 L 50.59 82.23 L 50.64 82.23 L 50.69 82.23 L 50.74 82.23 L 50.79 82.23 L 50.84 82.23 L 50.89 82.23 L 50.94 82.23 L 50.99 82.23 L 51.04 82.23 L 51.08 82.23 L 51.13 82.23 L 51.18 82.23 L 51.23 82.23 L 51.28 82.23 L 51.33 82.23 L 51.36 82.25 L 51.36 82.30 L 51.36 82.35 L 51.36 82.40 L 51.36 82.45 L 51.36 82.50 L 51.36 82.55 L 51.36 82.60 L 51.36 82.65 L 51.36 82.70 L 51.36 82.75 L 51.36 82.79 L 51.36 82.84 L 51.36 82.89 L 51.36 82.94 Z" fill="#e5e5e5" stroke="#ffffff" stroke-width="0.3" data-segment="home_plate" />
  <text x="50" y="98" text-anchor="middle" font-size="3" fill="#737373" font-family="monospace">LF 336' · CF 396' · RF 322'</text>
</svg>
