<?xml version="1.0" encoding="UTF-8"?>
<svg xmlns="http://www.w3.org/2000/svg" viewBox="0 0 100 100" role="img" aria-label="phillies ballpark">
  <title>phillies</title>
  <rect width="100" height="100" fill="#1a2e1a" />
    <path d="M 3.76 44.76 L 5.69 46.73 L 7.62 48.69 L 9.54 50.65 L 11.47 52.62 L 11.91 55.18 L 12.78 57.67 L 14.27 59.98 L 15.76 62.30 L 17.24 64.61 L 18.73 66.93 L 20.21 69.24 L 21.70 71.56 L 23.65 73.49 L 25.63 75.41 L 27.60 77.32 L 29.58 79.24 L 31.56 81.15 L 33.53 83.06 L 35.51 84.98 L 37.48 86.89 L 39.46 88.81 L 41.44 90.72 L 43.41 92.64 L 45.47 94.36 L 48.22 94.36 L 50.97 94.36 L 53.72 94.36 L 55.94 93.09 L 57.88 91.13 L 59.81 89.17 L 61.74 87.22 L 63.67 85.26 L 65.61 83.30 L 67.54 81.34 L 69.47 79.39 L 71.41 77.43 L 73.34 75.47 L 75.27 73.51 L 77.21 71.55 L 78.89 69.40 L 80.32 67.05 L 81.76 64.71 L 83.20 62.36 L 84.64 60.01 L 86.07 57.67 L 87.31 55.27 L 87.27 52.56 L 89.22 50.62 L 91.16 48.67 L 93.11 46.73 L 95.05 44.78 L 97.00 42.84 L 96.51 40.70 L 94.58 38.75 L 92.64 36.79 L 90.73 34.81 L 88.80 32.85 L 86.87 30.89 L 84.91 28.96 L 82.98 27.00 L 81.04 25.05 L 79.09 23.10 L 77.15 21.16 L 75.20 19.21 L 73.27 17.26 L 71.32 15.31 L 69.39 13.36 L 67.44 11.41 L 65.50 9.46 L 63.20 8.06 L 60.47 7.72 L 57.74 7.40 L 55.01 7.06 L 52.27 6.74 L 49.54 6.42 L 46.81 6.08 L 44.08 5.77 L 41.34 5.64 L 39.25 7.29 L 37.30 9.23 L 35.36 11.18 L 32.86 11.84 L 30.18 12.15 L 28.08 13.90 L 26.15 15.85 L 24.20 17.79 L 22.26 19.75 L 20.32 21.70 L 18.38 23.64 L 16.40 25.55 L 14.45 27.50 L 12.51 29.45 L 10.56 31.40 L 8.62 33.34 L 6.68 35.29 L 4.73 37.23 L 3.10 39.41 L 3.00 41.66 L 3.76 44.76 Z" fill="#243524" stroke="#3d5c3d" stroke-width="0.5" data-segment="outfield_outer" />
    <path d="M 94.69 42.57 L 94.40 42.28 L 93.56 41.43 L 92.24 40.11 L 90.51 38.39 L 88.45 36.33 L 86.12 34.01 L 83.60 31.49 L 80.95 28.86 L 78.24 26.17 L 75.55 23.51 L 72.94 20.93 L 70.48 18.52 L 68.25 16.34 L 66.31 14.46 L 64.73 12.95 L 63.58 11.89 L 62.94 11.35 L 62.35 11.22 L 60.41 10.90 L 57.44 10.42 L 53.89 9.86 L 50.20 9.30 L 46.81 8.81 L 44.16 8.49 L 42.70 8.40 L 40.97 9.45 L 38.37 11.78 L 36.22 13.90 L 34.88 14.58 L 32.31 14.91 L 30.06 15.88 L 28.27 17.75 L 26.48 19.63 L 24.69 21.50 L 22.90 23.37 L 21.11 25.25 L 19.32 27.12 L 17.53 28.99 L 15.74 30.87 L 13.95 32.74 L 12.16 34.62 L 10.37 36.49 L 8.58 38.36 L 6.79 40.24 L 4.99 42.11 L 5.97 43.97 L 7.77 45.83 L 9.57 47.69 L 11.38 49.55 L 13.18 51.42 L 14.46 53.44 L 14.52 55.89 L 15.90 58.08 L 17.27 60.28 L 18.65 62.47 L 20.02 64.67 L 21.40 66.87 L 22.78 69.06 L 24.44 71.02 L 26.30 72.84 L 28.15 74.65 L 30.00 76.46 L 31.85 78.27 L 33.71 80.09 L 35.56 81.90 L 37.41 83.71 L 39.26 85.52 L 41.12 87.33 L 42.97 89.15 L 44.82 90.96 L 46.89 92.23 L 49.48 92.23 L 52.07 92.23 L 54.48 91.79 L 56.30 89.95 L 58.12 88.10 L 59.94 86.26 L 61.76 84.41 L 63.58 82.57 L 65.40 80.72 L 67.22 78.88 L 69.04 77.03 L 70.86 75.19 L 72.68 73.35 L 74.50 71.50 L 76.32 69.65 L 77.69 67.46 L 79.07 65.26 L 80.44 63.07 L 81.82 60.87 L 83.19 58.67 L 84.57 56.48 L 85.37 54.16 L 85.57 51.77 L 87.39 49.93 L 89.22 48.09 L 91.04 46.25 L 92.87 44.41 L 94.69 42.57" fill="none" stroke="#3d5c3d" stroke-width="0.25" opacity="0.4" data-segment="outfield_inner" />
    <path d="M 68.57 70.69 L 68.48 70.49 L 68.23 69.92 L 67.82 69.05 L 67.23 67.93 L 66.46 66.62 L 65.52 65.18 L 64.41 63.66 L 63.10 62.13 L 61.62 60.64 L 59.94 59.25 L 58.08 58.02 L 56.02 57.00 L 53.77 56.27 L 51.32 55.86 L 48.69 55.85 L 46.16 56.21 L 43.83 56.91 L 41.71 57.88 L 39.78 59.06 L 38.05 60.40 L 36.51 61.84 L 35.17 63.33 L 34.01 64.81 L 33.03 66.23 L 32.23 67.52 L 31.61 68.63 L 31.17 69.51 L 30.90 70.10 L 30.80 70.34 L 31.91 71.41 L 33.17 72.61 L 34.42 73.82 L 35.68 75.03 L 36.94 76.23 L 38.19 77.44 L 39.45 78.64 L 40.70 79.85 L 41.96 81.05 L 43.22 82.26 L 44.47 83.46 L 45.73 84.67 L 46.05 85.97 L 45.69 87.64 L 46.09 89.32 L 47.18 90.66 L 48.73 91.41 L 50.46 91.43 L 52.03 90.71 L 53.14 89.38 L 53.58 87.71 L 53.25 86.02 L 53.99 84.73 L 55.25 83.52 L 56.50 82.31 L 57.75 81.11 L 59.01 79.90 L 60.26 78.69 L 61.52 77.48 L 62.77 76.27 L 64.02 75.07 L 65.28 73.86 L 66.53 72.65 L 67.79 71.44 L 68.57 70.69 Z" fill="#2a3f2a" stroke="#4a6b4a" stroke-width="0.4" data-segment="infield_outer" />
    <path d="M 48.98 83.79 L 47.50 83.51 L 46.26 82.30 L 45.01 81.08 L 43.76 79.87 L 42.52 78.65 L 41.27 77.43 L 40.02 76.22 L 39.55 74.94 L 40.09 73.29 L 39.95 71.62 L 41.19 70.40 L 42.44 69.19 L 43.69 67.97 L 44.93 66.76 L 46.18 65.54 L 47.43 64.40 L 49.04 65.04 L 50.76 64.94 L 52.25 64.76 L 53.50 65.98 L 54.74 67.19 L 55.99 68.41 L 57.23 69.62 L 58.48 70.84 L 59.28 72.17 L 59.29 73.90 L 60.01 75.43 L 58.77 76.64 L 57.52 77.86 L 56.27 79.07 L 55.03 80.29 L 53.78 81.51 L 52.53 82.72 L 51.29 83.94 L 48.98 83.79" fill="none" stroke="#4a6b4a" stroke-width="0.25" opacity="0.5" data-segment="infield_inner" />
    <path d="M 49.65 88.10 L 47.75 86.20 L 45.85 84.29 L 43.94 82.39 L 42.04 80.49 L 40.14 78.58 L 38.24 76.68 L 36.33 74.78 L 34.43 72.87 L 32.53 70.97 L 30.63 69.07 L 28.72 67.16 L 26.82 65.26 L 24.92 63.36 L 23.02 61.45 L 21.11 59.55 L 19.21 57.65 L 17.31 55.74 L 15.41 53.84 L 13.50 51.94 L 11.60 50.03 L 9.70 48.13 L 7.80 46.23 L 5.89 44.32 L 3.99 42.42 L 3.11 40.54 L 5.01 42.44 L 6.92 44.34 L 8.82 46.24 L 10.72 48.15 L 12.63 50.05 L 14.53 51.95 L 16.43 53.86 L 18.33 55.76 L 20.24 57.66 L 22.14 59.57 L 24.04 61.47 L 25.94 63.37 L 27.85 65.28 L 29.75 67.18 L 31.65 69.08 L 33.55 70.99 L 35.46 72.89 L 37.36 74.79 L 39.26 76.70 L 41.16 78.60 L 43.07 80.50 L 44.97 82.41 L 46.87 84.31 L 48.77 86.21 L 50.68 86.03 L 52.58 84.13 L 54.49 82.22 L 56.39 80.32 L 58.30 78.42 L 60.20 76.52 L 62.10 74.62 L 64.01 72.72 L 65.91 70.82 L 67.82 68.91 L 69.72 67.01 L 71.63 65.11 L 73.53 63.21 L 75.43 61.31 L 77.34 59.41 L 79.24 57.51 L 81.15 55.60 L 83.05 53.70 L 84.96 51.80 L 86.86 49.90 L 88.76 48.00 L 90.67 46.10 L 92.57 44.20 L 94.48 42.29 L 96.38 40.50 L 95.34 42.45 L 93.44 44.36 L 91.54 46.26 L 89.63 48.16 L 87.73 50.06 L 85.82 51.96 L 83.92 53.86 L 82.02 55.77 L 80.11 57.67 L 78.21 59.57 L 76.31 61.47 L 74.40 63.37 L 72.50 65.28 L 70.59 67.18 L 68.69 69.08 L 66.79 70.98 L 64.88 72.88 L 62.98 74.79 L 61.07 76.69 L 59.17 78.59 L 57.27 80.49 L 55.36 82.39 L 53.46 84.30 L 51.56 86.20 L 49.65 88.10" fill="none" stroke="#4a6b4a" stroke-width="0.3" opacity="0.6" data-segment="foul_lines" />
    <path d="M 50.39 86.82 L 50.35 86.85 L 50.31 86.89 L 50.28 86.93 L 50.24 86.96 L 50.21 87.00 L 50.17 87.03 L 50.13 87.07 L 50.10 87.11 L 50.06 87.14 L 50.03 87.18 L 49.99 87.21 L 49.95 87.25 L 49.92 87.28 L 49.88 87.32 L 49.85 87.36 L 49.81 87.39 L 49.77 87.43 L 49.74 87.46 L 49.70 87.50 L 49.67 87.53 L 49.63 87.55 L 49.59 87.51 L 49.56 87.47 L 49.52 87.44 L 49.49 87.40 L 49.45 87.36 L 49.42 87.33 L 49.38 87.29 L 49.34 87.26 L 49.31 87.22 L 49.27 87.18 L 49.24 87.15 L 49.20 87.11 L 49.17 87.08 L 49.13 87.04 L 49.09 87.00 L 49.06 86.97 L 49.02 86.93 L 48.99 86.89 L 48.95 86.86 L 48.92 86.82 L 48.91 86.77 L 48.91 86.72 L 48.91 86.67 L 48.91 86.62 L 48.91 86.57 L 48.91 86.52 L 48.91 86.47 L 48.91 86.42 L 48.91 86.37 L 48.91 86.32 L 48.91 86.26 L 48.91 86.21 L 48.91 86.16 L 48.91 86.11 L 48.94 86.08 L 48.99 86.08 L 49.04 86.08 L 49.09 86.08 L 49.14 86.08 L 49.19 86.08 L 49.24 86.08 L 49.29 86.08 L 49.34 86.08 L 49.39 86.08 L 49.44 86.08 L 49.49 86.08 L 49.55 86.08 L 49.60 86.08 L 49.65 86.08 L 49.70 86.08 L 49.75 86.08 L 49.80 86.08 L 49.85 86.08 L 49.90 86.08 L 49.95 86.08 L 50.00 86.08 L 50.05 86.08 L 50.10 86.08 L 50.16 86.08 L 50.21 86.08 L 50.26 86.08 L 50.31 86.08 L 50.36 86.08 L 50.39 86.11 L 50.39 86.16 L 50.39 86.21 L 50.39 86.26 L 50.39 86.31 L 50.39 86.36 L 50.39 86.41 L 50.39 86.46 L 50.39 86.51 L 50.39 86.56 L 50.39 86.62 L 50.39 86.67 L 50.39 86.72 L 50.39 86.77 L 50.39 86.82 Z" fill="#e5e5e5" stroke="#ffffff" stroke-width="0.3" data-segment="home_plate" />
  <text x="50" y="98" text-anchor="middle" font-size="3" fill="#737373" font-family="monospace">LF 329' · CF 401' · RF 330'</text>
</svg>
