<?xml version="1.0" encoding="UTF-8"?>
<svg xmlns="http://www.w3.org/2000/svg" viewBox="0 0 100 100" role="img" aria-label="pirates ballpark">
  <title>pirates</title>
  <rect width="100" height="100" fill="#1a2e1a" />
    <path d="M 3.00 38.18 L 3.33 35.33 L 3.67 32.47 L 4.00 29.62 L 4.35 26.76 L 5.12 24.09 L 7.26 22.18 L 9.48 20.35 L 11.69 18.51 L 13.91 16.69 L 16.13 14.85 L 18.34 13.02 L 20.55 11.17 L 22.76 9.34 L 24.98 7.50 L 27.18 5.66 L 29.39 5.18 L 31.83 6.59 L 34.65 6.22 L 37.48 5.72 L 40.31 5.21 L 43.15 4.73 L 45.98 4.23 L 48.81 3.72 L 51.65 3.63 L 54.47 4.21 L 57.28 4.80 L 60.10 5.38 L 62.91 5.97 L 65.67 6.76 L 68.24 8.04 L 70.79 9.38 L 73.36 10.66 L 75.93 11.95 L 78.50 13.23 L 80.77 14.93 L 82.40 17.30 L 84.03 19.67 L 85.64 22.05 L 87.26 24.42 L 88.88 26.80 L 90.51 29.17 L 92.13 31.55 L 93.76 33.91 L 95.39 36.28 L 97.00 38.66 L 96.63 41.02 L 94.62 43.07 L 92.60 45.12 L 90.58 47.16 L 88.99 49.48 L 88.07 52.20 L 87.15 54.93 L 86.24 57.65 L 85.32 60.38 L 84.56 62.59 L 84.13 63.10 L 83.14 64.27 L 81.68 65.99 L 79.83 68.17 L 77.67 70.71 L 75.28 73.51 L 72.76 76.47 L 70.19 79.48 L 67.64 82.46 L 65.20 85.29 L 62.96 87.88 L 61.00 90.13 L 59.40 91.93 L 57.54 93.88 L 54.43 95.84 L 51.86 96.37 L 50.05 96.34 L 47.26 95.86 L 44.70 94.51 L 42.44 92.61 L 40.48 90.47 L 38.79 88.36 L 37.04 86.08 L 35.28 83.80 L 33.53 81.53 L 31.78 79.25 L 30.02 76.97 L 28.27 74.69 L 26.51 72.41 L 24.76 70.13 L 23.00 67.86 L 21.25 65.58 L 19.50 63.30 L 17.74 61.02 L 15.99 58.74 L 14.23 56.46 L 12.48 54.19 L 12.27 51.45 L 12.51 48.59 L 11.14 46.31 L 9.11 44.28 L 7.07 42.25 L 5.04 40.22 L 3.00 38.18 Z" fill="#243524" stroke="#3d5c3d" stroke-width="0.5" data-segment="outfield_outer" />
    <path d="M 8.70 24.74 L 10.78 23.13 L 12.86 21.52 L 14.94 19.92 L 17.02 18.31 L 19.09 16.70 L 21.17 15.09 L 23.25 13.49 L 25.61 12.50 L 28.18 11.95 L 30.75 11.40 L 33.32 10.85 L 35.89 10.30 L 38.46 9.76 L 41.03 9.21 L 43.60 8.66 L 46.17 8.11 L 48.73 7.56 L 51.31 7.69 L 53.90 8.15 L 56.48 8.62 L 59.07 9.08 L 61.65 9.55 L 64.24 10.02 L 66.73 10.74 L 69.00 12.07 L 71.26 13.40 L 73.52 14.73 L 75.79 16.06 L 78.05 17.39 L 79.74 19.34 L 81.22 21.51 L 82.69 23.69 L 84.16 25.86 L 85.63 28.04 L 87.10 30.21 L 88.58 32.39 L 90.05 34.56 L 91.52 36.74 L 92.99 38.92 L 92.95 40.95 L 91.11 42.83 L 89.27 44.71 L 87.43 46.59 L 86.48 49.02 L 85.55 51.48 L 84.63 53.94 L 83.71 56.40 L 82.79 58.86 L 81.87 61.32 L 81.58 61.67 L 80.77 62.62 L 79.52 64.09 L 77.90 66.00 L 75.99 68.26 L 73.85 70.77 L 71.57 73.45 L 69.22 76.20 L 66.88 78.93 L 64.62 81.56 L 62.52 83.99 L 60.66 86.13 L 59.10 87.90 L 57.88 89.25 L 54.96 91.71 L 52.60 92.66 L 50.85 92.82 L 48.58 92.53 L 46.19 91.42 L 44.01 89.75 L 42.09 87.81 L 40.47 85.89 L 38.93 83.90 L 37.32 81.82 L 35.72 79.74 L 34.12 77.66 L 32.52 75.57 L 30.91 73.49 L 29.31 71.41 L 27.71 69.33 L 26.11 67.25 L 24.51 65.16 L 22.90 63.08 L 21.30 61.00 L 19.70 58.92 L 18.10 56.84 L 16.50 54.76 L 15.35 52.55 L 15.68 49.95 L 15.70 47.45 L 13.86 45.57 L 12.02 43.70 L 10.18 41.82 L 8.34 39.94 L 7.30 37.79 L 7.58 35.18 L 7.86 32.57 L 8.14 29.96 L 8.42 27.35 L 8.70 24.74" fill="none" stroke="#3d5c3d" stroke-width="0.25" opacity="0.4" data-segment="outfield_inner" />
    <path d="M 72.75 64.83 L 71.35 64.25 L 69.94 65.63 L 68.85 66.22 L 68.27 65.12 L 67.53 63.84 L 66.62 62.43 L 65.54 60.94 L 64.29 59.44 L 62.87 57.96 L 61.27 56.57 L 59.49 55.32 L 57.53 54.25 L 55.39 53.42 L 53.07 52.89 L 50.55 52.71 L 47.98 52.89 L 45.60 53.41 L 43.41 54.21 L 41.41 55.24 L 39.59 56.46 L 37.95 57.81 L 36.50 59.24 L 35.22 60.70 L 34.11 62.14 L 33.18 63.51 L 32.41 64.76 L 31.81 65.84 L 30.77 65.34 L 29.38 63.94 L 27.99 62.54 L 27.34 63.85 L 28.75 65.23 L 30.17 66.60 L 31.59 67.98 L 33.01 69.35 L 34.42 70.73 L 35.84 72.10 L 37.26 73.48 L 38.67 74.86 L 40.09 76.23 L 41.51 77.61 L 42.93 78.98 L 44.34 80.36 L 45.76 81.73 L 46.87 83.11 L 46.22 85.00 L 46.58 86.87 L 47.80 88.40 L 49.59 89.18 L 51.54 89.02 L 53.19 87.96 L 54.15 86.26 L 54.19 84.30 L 54.32 82.66 L 55.74 81.29 L 57.16 79.92 L 58.58 78.54 L 60.00 77.17 L 61.42 75.80 L 62.83 74.42 L 64.25 73.05 L 65.67 71.68 L 67.09 70.30 L 68.51 68.93 L 69.93 67.56 L 71.35 66.18 L 72.75 64.83 Z" fill="#2a3f2a" stroke="#4a6b4a" stroke-width="0.4" data-segment="infield_outer" />
    <path d="M 51.82 81.56 L 49.89 81.26 L 48.15 81.08 L 46.75 79.69 L 45.34 78.30 L 43.94 76.92 L 42.54 75.53 L 41.13 74.14 L 39.73 72.75 L 40.21 71.27 L 41.01 69.59 L 41.40 67.82 L 42.82 66.44 L 44.23 65.06 L 45.65 63.68 L 47.06 62.30 L 48.68 61.43 L 50.65 61.46 L 52.62 61.52 L 54.03 62.90 L 55.44 64.28 L 56.85 65.66 L 58.27 67.04 L 59.68 68.42 L 59.70 70.27 L 60.73 71.83 L 60.28 73.25 L 58.88 74.63 L 57.47 76.02 L 56.06 77.41 L 54.66 78.80 L 53.25 80.18 L 51.82 81.56" fill="none" stroke="#4a6b4a" stroke-width="0.25" opacity="0.5" data-segment="infield_inner" />
    <path d="M 50.28 85.73 L 48.37 83.82 L 46.46 81.91 L 44.55 80.00 L 42.65 78.10 L 40.74 76.19 L 38.83 74.28 L 36.92 72.37 L 35.01 70.46 L 33.10 68.55 L 31.19 66.64 L 29.29 64.73 L 27.38 62.82 L 25.47 60.91 L 23.56 59.00 L 21.65 57.09 L 19.74 55.18 L 17.83 53.28 L 15.93 51.37 L 14.02 49.46 L 12.11 47.55 L 10.20 45.64 L 8.29 43.73 L 6.38 41.82 L 4.47 39.91 L 3.00 37.87 L 4.71 39.09 L 6.62 41.00 L 8.52 42.91 L 10.43 44.82 L 12.34 46.73 L 14.25 48.64 L 16.16 50.55 L 18.07 52.46 L 19.98 54.37 L 21.88 56.28 L 23.79 58.19 L 25.70 60.09 L 27.61 62.00 L 29.52 63.91 L 31.43 65.82 L 33.34 67.73 L 35.24 69.64 L 37.15 71.55 L 39.06 73.46 L 40.97 75.37 L 42.88 77.28 L 44.79 79.19 L 46.69 81.10 L 48.60 83.01 L 50.51 84.45 L 52.42 82.54 L 54.33 80.64 L 56.24 78.73 L 58.15 76.82 L 60.06 74.91 L 61.97 73.01 L 63.88 71.10 L 65.79 69.19 L 67.71 67.29 L 69.62 65.38 L 71.53 63.47 L 73.44 61.56 L 75.35 59.66 L 77.26 57.75 L 79.17 55.84 L 81.08 53.93 L 82.99 52.03 L 84.90 50.12 L 86.81 48.21 L 88.72 46.30 L 90.63 44.40 L 92.54 42.49 L 94.45 40.58 L 96.36 38.67 L 96.13 39.95 L 94.22 41.86 L 92.31 43.77 L 90.40 45.67 L 88.49 47.58 L 86.58 49.49 L 84.67 51.40 L 82.76 53.30 L 80.85 55.21 L 78.93 57.12 L 77.02 59.03 L 75.11 60.93 L 73.20 62.84 L 71.29 64.75 L 69.38 66.66 L 67.47 68.56 L 65.56 70.47 L 63.65 72.38 L 61.74 74.29 L 59.83 76.19 L 57.92 78.10 L 56.01 80.01 L 54.10 81.92 L 52.19 83.82 L 50.28 85.73" fill="none" stroke="#4a6b4a" stroke-width="0.3" opacity="0.6" data-segment="foul_lines" />
    <path d="M 51.03 84.42 L 50.99 84.46 L 50.96 84.50 L 50.92 84.53 L 50.88 84.57 L 50.85 84.61 L 50.81 84.64 L 50.77 84.68 L 50.74 84.72 L 50.70 84.75 L 50.66 84.79 L 50.63 84.83 L 50.59 84.86 L 50.55 84.90 L 50.52 84.93 L 50.48 84.97 L 50.44 85.01 L 50.40 85.04 L 50.37 85.08 L 50.33 85.12 L 50.29 85.15 L 50.26 85.17 L 50.22 85.13 L 50.18 85.09 L 50.15 85.05 L 50.11 85.02 L 50.07 84.98 L 50.04 84.94 L 50.00 84.91 L 49.97 84.87 L 49.93 84.83 L 49.89 84.80 L 49.86 84.76 L 49.82 84.72 L 49.78 84.68 L 49.75 84.65 L 49.71 84.61 L 49.67 84.57 L 49.64 84.54 L 49.60 84.50 L 49.56 84.46 L 49.53 84.43 L 49.52 84.37 L 49.52 84.32 L 49.52 84.27 L 49.52 84.22 L 49.52 84.17 L 49.52 84.11 L 49.52 84.06 L 49.52 84.01 L 49.52 83.96 L 49.52 83.91 L 49.52 83.85 L 49.52 83.80 L 49.52 83.75 L 49.52 83.70 L 49.55 83.67 L 49.60 83.67 L 49.65 83.67 L 49.70 83.67 L 49.76 83.67 L 49.81 83.67 L 49.86 83.67 L 49.91 83.67 L 49.96 83.67 L 50.02 83.67 L 50.07 83.67 L 50.12 83.67 L 50.17 83.67 L 50.22 83.67 L 50.28 83.67 L 50.33 83.67 L 50.38 83.67 L 50.43 83.67 L 50.48 83.67 L 50.54 83.67 L 50.59 83.67 L 50.64 83.67 L 50.69 83.67 L 50.74 83.67 L 50.80 83.67 L 50.85 83.67 L 50.90 83.67 L 50.95 83.67 L 51.00 83.67 L 51.03 83.69 L 51.03 83.75 L 51.03 83.80 L 51.03 83.85 L 51.03 83.90 L 51.03 83.95 L 51.03 84.01 L 51.03 84.06 L 51.03 84.11 L 51.03 84.16 L 51.03 84.21 L 51.03 84.27 L 51.03 84.32 L 51.03 84.37 L 51.03 84.42 Z" fill="#e5e5e5" stroke="#ffffff" stroke-width="0.3" data-segment="home_plate" />
  <text x="50" y="98" text-anchor="middle" font-size="3" fill="#737373" font-family="monospace">LF 325' · CF 399' · RF 320'</text>
</svg>
