<?xml version="1.0" encoding="UTF-8"?>
<svg xmlns="http://www.w3.org/2000/svg" viewBox="0 0 100 100" role="img" aria-label="rangers ballpark">
  <title>rangers</title>
  <rect width="100" height="100" fill="#1a2e1a" />
    <path d="M 97.00 37.43 L 96.78 34.60 L 96.47 31.78 L 94.80 29.59 L 92.79 27.58 L 90.78 25.58 L 88.77 23.57 L 86.77 21.56 L 84.75 19.56 L 82.74 17.55 L 80.73 15.54 L 78.73 13.53 L 76.14 12.73 L 73.80 11.42 L 71.78 9.42 L 69.76 7.43 L 67.75 5.43 L 65.63 3.62 L 62.80 3.45 L 59.96 3.47 L 57.12 3.50 L 54.28 3.50 L 51.44 3.50 L 48.60 3.52 L 45.76 3.53 L 42.93 3.53 L 40.09 3.56 L 37.45 4.48 L 34.84 5.59 L 32.22 6.69 L 29.61 7.80 L 26.99 8.91 L 24.43 10.10 L 22.33 12.00 L 20.32 14.01 L 18.29 16.00 L 16.28 18.01 L 14.28 20.02 L 12.28 22.03 L 10.27 24.04 L 8.25 26.04 L 6.27 28.07 L 4.92 30.51 L 4.09 33.22 L 3.26 35.94 L 3.41 38.53 L 5.16 40.76 L 6.92 42.99 L 8.68 45.22 L 10.43 47.45 L 11.34 49.88 L 11.77 51.32 L 12.76 52.71 L 14.03 54.45 L 15.53 56.49 L 17.24 58.78 L 19.12 61.28 L 21.13 63.95 L 23.25 66.74 L 25.44 69.60 L 27.66 72.50 L 29.88 75.38 L 32.06 78.21 L 34.18 80.93 L 36.19 83.50 L 38.07 85.89 L 39.78 88.03 L 41.29 89.90 L 42.56 91.44 L 43.77 92.85 L 46.25 94.98 L 48.80 96.20 L 51.36 96.55 L 53.86 96.09 L 56.23 94.86 L 58.40 92.92 L 59.40 91.67 L 60.32 90.40 L 61.58 88.62 L 63.12 86.41 L 64.91 83.84 L 66.89 80.96 L 69.02 77.86 L 71.25 74.60 L 73.53 71.25 L 75.83 67.88 L 78.10 64.55 L 80.28 61.35 L 82.33 58.32 L 84.21 55.55 L 85.87 53.10 L 87.26 51.05 L 88.34 49.45 L 89.07 48.38 L 89.38 47.91 L 90.76 46.16 L 92.75 44.14 L 94.74 42.11 L 96.73 40.09 L 97.00 37.43 Z" fill="#243524" stroke="#3d5c3d" stroke-width="0.5" data-segment="outfield_outer" />
    <path d="M 51.17 93.64 L 48.89 93.12 L 46.64 91.60 L 45.15 90.02 L 44.11 88.77 L 42.85 87.23 L 41.41 85.43 L 39.80 83.41 L 38.06 81.20 L 36.22 78.84 L 34.28 76.36 L 32.30 73.79 L 30.28 71.17 L 28.26 68.54 L 26.25 65.92 L 24.30 63.35 L 22.42 60.87 L 20.64 58.50 L 18.99 56.30 L 17.49 54.28 L 16.16 52.48 L 15.04 50.94 L 14.37 49.46 L 13.85 47.12 L 12.21 45.03 L 10.57 42.95 L 8.94 40.86 L 7.30 38.78 L 6.06 36.62 L 6.85 34.08 L 7.62 31.55 L 9.04 29.39 L 10.91 27.51 L 12.79 25.64 L 14.67 23.76 L 16.54 21.89 L 18.41 20.01 L 20.27 18.12 L 22.16 16.26 L 24.04 14.39 L 25.95 12.56 L 28.36 11.47 L 30.80 10.43 L 33.24 9.39 L 35.68 8.36 L 38.12 7.32 L 40.63 6.56 L 43.28 6.52 L 45.93 6.52 L 48.58 6.51 L 51.23 6.50 L 53.89 6.50 L 56.54 6.50 L 59.19 6.47 L 61.84 6.47 L 64.49 6.46 L 66.41 8.24 L 68.29 10.12 L 70.16 11.99 L 72.05 13.86 L 74.01 15.53 L 76.65 15.74 L 78.57 17.54 L 80.46 19.40 L 82.33 21.28 L 84.22 23.14 L 86.09 25.01 L 87.97 26.89 L 89.84 28.76 L 91.72 30.63 L 93.59 32.51 L 93.91 35.12 L 94.11 37.76 L 92.87 39.88 L 91.02 41.78 L 89.16 43.67 L 87.42 45.66 L 85.95 47.82 L 84.39 50.12 L 82.73 52.58 L 80.99 55.15 L 79.18 57.81 L 77.32 60.54 L 75.44 63.30 L 73.55 66.08 L 71.67 68.84 L 69.81 71.56 L 68.00 74.20 L 66.26 76.74 L 64.60 79.16 L 63.05 81.42 L 61.61 83.50 L 60.31 85.37 L 59.17 87.00 L 58.21 88.37 L 57.44 89.44 L 56.88 90.20 L 55.64 91.60 L 53.43 93.14 L 51.17 93.64" fill="none" stroke="#3d5c3d" stroke-width="0.25" opacity="0.4" data-segment="outfield_inner" />
    <path d="M 69.38 67.16 L 69.29 66.96 L 69.05 66.39 L 68.63 65.52 L 68.04 64.41 L 67.28 63.10 L 66.34 61.66 L 65.23 60.15 L 63.93 58.62 L 62.45 57.13 L 60.78 55.75 L 58.92 54.52 L 56.87 53.51 L 54.62 52.77 L 52.18 52.36 L 49.55 52.34 L 47.03 52.71 L 44.71 53.40 L 42.59 54.37 L 40.66 55.54 L 38.94 56.88 L 37.40 58.32 L 36.06 59.81 L 34.90 61.29 L 33.92 62.70 L 33.13 63.99 L 32.51 65.10 L 32.06 65.98 L 31.79 66.56 L 31.69 66.81 L 32.79 67.86 L 34.04 69.07 L 35.29 70.27 L 36.55 71.47 L 37.80 72.67 L 39.05 73.88 L 40.31 75.08 L 41.56 76.28 L 42.81 77.48 L 44.07 78.69 L 45.32 79.89 L 46.57 81.09 L 46.92 82.38 L 46.55 84.05 L 46.94 85.72 L 48.01 87.07 L 49.56 87.83 L 51.28 87.86 L 52.85 87.15 L 53.97 85.84 L 54.42 84.17 L 54.10 82.48 L 54.81 81.19 L 56.06 79.98 L 57.31 78.78 L 58.57 77.57 L 59.82 76.37 L 61.07 75.16 L 62.32 73.96 L 63.57 72.75 L 64.82 71.55 L 66.07 70.34 L 67.32 69.14 L 68.57 67.93 L 69.38 67.16 Z" fill="#2a3f2a" stroke="#4a6b4a" stroke-width="0.4" data-segment="infield_outer" />
    <path d="M 47.93 79.57 L 46.70 78.34 L 45.47 77.11 L 44.25 75.88 L 43.02 74.66 L 41.79 73.43 L 40.57 72.20 L 40.31 70.96 L 41.35 69.49 L 41.26 67.83 L 42.34 66.58 L 43.59 65.36 L 44.83 64.15 L 46.07 62.94 L 47.32 61.73 L 48.63 61.06 L 50.33 61.32 L 52.10 61.19 L 53.46 61.62 L 54.71 62.83 L 55.95 64.04 L 57.19 65.25 L 58.44 66.47 L 59.68 67.68 L 59.57 69.31 L 60.60 70.78 L 60.75 72.01 L 59.50 73.22 L 58.26 74.43 L 57.01 75.64 L 55.77 76.85 L 54.52 78.06 L 53.28 79.27 L 51.84 80.01 L 50.10 80.01 L 47.93 79.57" fill="none" stroke="#4a6b4a" stroke-width="0.25" opacity="0.5" data-segment="infield_inner" />
    <path d="M 50.50 84.53 L 48.59 82.62 L 46.68 80.71 L 44.77 78.80 L 42.87 76.89 L 40.96 74.98 L 39.05 73.07 L 37.14 71.16 L 35.23 69.25 L 33.32 67.34 L 31.41 65.43 L 29.50 63.52 L 27.59 61.61 L 25.68 59.70 L 23.77 57.79 L 21.86 55.88 L 19.95 53.97 L 18.04 52.06 L 16.14 50.15 L 14.23 48.24 L 12.32 46.33 L 10.41 44.42 L 8.50 42.51 L 6.59 40.60 L 4.68 38.69 L 3.00 36.74 L 4.67 37.65 L 6.58 39.56 L 8.48 41.47 L 10.39 43.38 L 12.30 45.29 L 14.21 47.20 L 16.12 49.11 L 18.03 51.02 L 19.94 52.93 L 21.85 54.84 L 23.76 56.75 L 25.67 58.66 L 27.58 60.57 L 29.49 62.48 L 31.40 64.39 L 33.31 66.30 L 35.21 68.21 L 37.12 70.12 L 39.03 72.03 L 40.94 73.94 L 42.85 75.85 L 44.76 77.76 L 46.67 79.67 L 48.58 81.58 L 50.49 83.49 L 52.40 81.61 L 54.31 79.71 L 56.22 77.80 L 58.13 75.89 L 60.04 73.98 L 61.96 72.07 L 63.87 70.16 L 65.78 68.26 L 67.69 66.35 L 69.60 64.44 L 71.51 62.53 L 73.42 60.62 L 75.33 58.72 L 77.25 56.81 L 79.16 54.90 L 81.07 52.99 L 82.98 51.08 L 84.89 49.17 L 86.80 47.27 L 88.71 45.36 L 90.62 43.45 L 92.53 41.54 L 94.45 39.63 L 96.37 37.74 L 96.37 38.73 L 94.46 40.64 L 92.55 42.55 L 90.64 44.46 L 88.72 46.36 L 86.81 48.27 L 84.90 50.18 L 82.99 52.09 L 81.08 54.00 L 79.17 55.91 L 77.26 57.81 L 75.35 59.72 L 73.44 61.63 L 71.52 63.54 L 69.61 65.45 L 67.70 67.36 L 65.79 69.26 L 63.88 71.17 L 61.97 73.08 L 60.06 74.99 L 58.15 76.90 L 56.24 78.80 L 54.32 80.71 L 52.41 82.62 L 50.50 84.53" fill="none" stroke="#4a6b4a" stroke-width="0.3" opacity="0.6" data-segment="foul_lines" />
    <path d="M 51.23 83.25 L 51.20 83.29 L 51.16 83.32 L 51.13 83.36 L 51.09 83.40 L 51.06 83.43 L 51.02 83.47 L 50.98 83.50 L 50.95 83.54 L 50.91 83.57 L 50.88 83.61 L 50.84 83.65 L 50.80 83.68 L 50.77 83.72 L 50.73 83.75 L 50.70 83.79 L 50.66 83.82 L 50.62 83.86 L 50.59 83.90 L 50.55 83.93 L 50.52 83.97 L 50.48 83.98 L 50.44 83.94 L 50.41 83.90 L 50.37 83.87 L 50.34 83.83 L 50.30 83.80 L 50.27 83.76 L 50.23 83.72 L 50.20 83.69 L 50.16 83.65 L 50.12 83.62 L 50.09 83.58 L 50.05 83.54 L 50.02 83.51 L 49.98 83.47 L 49.95 83.44 L 49.91 83.40 L 49.87 83.36 L 49.84 83.33 L 49.80 83.29 L 49.77 83.26 L 49.76 83.21 L 49.76 83.16 L 49.76 83.10 L 49.76 83.05 L 49.76 83.00 L 49.76 82.95 L 49.76 82.90 L 49.76 82.85 L 49.76 82.80 L 49.76 82.75 L 49.76 82.70 L 49.76 82.65 L 49.76 82.60 L 49.76 82.55 L 49.79 82.52 L 49.84 82.52 L 49.89 82.52 L 49.94 82.52 L 49.99 82.52 L 50.04 82.52 L 50.09 82.52 L 50.14 82.52 L 50.19 82.52 L 50.24 82.52 L 50.29 82.52 L 50.35 82.52 L 50.40 82.52 L 50.45 82.52 L 50.50 82.52 L 50.55 82.52 L 50.60 82.52 L 50.65 82.52 L 50.70 82.52 L 50.75 82.52 L 50.80 82.52 L 50.85 82.52 L 50.90 82.52 L 50.95 82.52 L 51.00 82.52 L 51.06 82.52 L 51.11 82.52 L 51.16 82.52 L 51.21 82.52 L 51.23 82.54 L 51.23 82.59 L 51.23 82.64 L 51.23 82.69 L 51.23 82.75 L 51.23 82.80 L 51.23 82.85 L 51.23 82.90 L 51.23 82.95 L 51.23 83.00 L 51.23 83.05 L 51.23 83.10 L 51.23 83.15 L 51.23 83.20 L 51.23 83.25 Z" fill="#e5e5e5" stroke="#ffffff" stroke-width="0.3" data-segment="home_plate" />
  <text x="50" y="98" text-anchor="middle" font-size="3" fill="#737373" font-family="monospace">LF 329' · CF 407' · RF 326'</text>
</svg>
