<?xml version="1.0" encoding="UTF-8"?>
<svg xmlns="http://www.w3.org/2000/svg" viewBox="0 0 100 100" role="img" aria-label="rays ballpark">
  <title>rays</title>
  <rect width="100" height="100" fill="#1a2e1a" />
    <path d="M 4.32 40.89 L 4.48 42.42 L 4.87 46.04 L 5.35 50.31 L 5.77 53.80 L 6.25 55.26 L 8.92 57.25 L 11.08 59.09 L 12.39 61.26 L 14.18 64.71 L 15.17 66.49 L 17.32 68.47 L 19.48 70.45 L 21.63 72.43 L 23.78 74.41 L 25.94 76.39 L 26.20 79.11 L 26.75 81.73 L 28.89 83.74 L 31.02 85.74 L 33.15 87.74 L 35.29 89.74 L 37.42 91.74 L 39.56 93.74 L 41.67 94.64 L 43.89 94.58 L 46.25 96.31 L 48.94 97.00 L 51.86 96.92 L 54.41 95.83 L 56.69 93.99 L 58.86 94.49 L 61.03 92.53 L 63.20 90.57 L 65.37 88.61 L 67.54 86.64 L 69.71 84.68 L 71.88 82.72 L 73.54 80.53 L 73.57 77.61 L 75.33 75.49 L 77.55 73.58 L 79.77 71.67 L 81.99 69.77 L 84.20 67.86 L 85.52 65.35 L 86.41 62.57 L 87.31 59.78 L 88.20 57.00 L 90.38 55.12 L 92.10 52.95 L 92.82 50.11 L 93.53 47.27 L 94.25 44.44 L 95.62 41.96 L 96.56 39.41 L 96.23 36.56 L 94.16 34.50 L 92.11 32.41 L 90.04 30.34 L 87.96 28.29 L 85.90 26.21 L 83.84 24.14 L 81.77 22.07 L 79.70 20.00 L 77.63 17.93 L 75.58 15.85 L 73.50 13.80 L 71.43 11.73 L 69.37 9.65 L 67.30 7.58 L 65.07 5.70 L 62.64 4.11 L 59.75 3.79 L 56.83 3.69 L 53.90 3.59 L 50.98 3.49 L 48.06 3.39 L 45.13 3.29 L 42.21 3.19 L 39.29 3.09 L 36.36 3.00 L 34.00 4.17 L 31.72 5.93 L 29.56 7.88 L 27.48 9.94 L 25.41 12.00 L 23.35 14.07 L 21.26 16.13 L 19.19 18.19 L 17.12 20.26 L 15.03 22.31 L 12.93 24.34 L 10.87 26.42 L 8.79 28.47 L 6.71 30.52 L 4.63 32.59 L 3.44 35.12 L 3.77 38.02 L 4.32 40.89 Z" fill="#243524" stroke="#3d5c3d" stroke-width="0.5" data-segment="outfield_outer" />
    <path d="M 42.36 89.80 L 40.41 90.50 L 38.42 88.64 L 36.43 86.77 L 34.44 84.90 L 32.46 83.04 L 30.47 81.17 L 29.15 79.04 L 29.35 76.32 L 27.96 74.23 L 25.95 72.39 L 23.94 70.55 L 21.93 68.70 L 19.92 66.86 L 17.91 65.02 L 16.50 62.79 L 15.03 59.97 L 13.82 57.84 L 13.14 56.98 L 11.00 55.14 L 8.59 52.66 L 8.33 50.50 L 8.02 47.78 L 7.68 44.69 L 7.33 41.47 L 6.89 38.64 L 6.42 35.96 L 7.66 33.75 L 9.60 31.83 L 11.53 29.91 L 13.47 27.99 L 15.40 26.07 L 17.33 24.14 L 19.27 22.23 L 21.21 20.32 L 23.15 18.39 L 25.08 16.47 L 27.02 14.55 L 28.96 12.64 L 30.89 10.71 L 32.83 8.80 L 35.07 7.29 L 37.24 5.96 L 39.97 6.05 L 42.69 6.14 L 45.42 6.23 L 48.14 6.33 L 50.87 6.43 L 53.59 6.50 L 56.32 6.59 L 59.04 6.69 L 61.75 6.93 L 63.95 8.54 L 65.95 10.39 L 67.88 12.31 L 69.80 14.24 L 71.73 16.17 L 73.66 18.10 L 75.59 20.02 L 77.50 21.97 L 79.43 23.90 L 81.38 25.81 L 83.29 27.75 L 85.21 29.68 L 87.14 31.61 L 89.06 33.54 L 91.00 35.46 L 92.93 37.39 L 93.62 39.83 L 91.86 41.87 L 91.19 44.52 L 90.53 47.16 L 89.86 49.80 L 89.11 52.39 L 86.95 54.06 L 85.41 56.16 L 84.57 58.75 L 83.73 61.35 L 82.90 63.94 L 81.60 66.23 L 79.53 68.01 L 77.47 69.79 L 75.40 71.57 L 73.34 73.35 L 71.27 75.13 L 70.64 77.57 L 70.33 80.17 L 68.31 82.00 L 66.29 83.83 L 64.27 85.66 L 62.25 87.49 L 60.22 89.32 L 58.20 90.69 L 56.13 90.69 L 54.01 92.40 L 51.85 94.00 L 49.12 94.08 L 46.75 93.04 L 44.55 91.42 L 42.36 89.80" fill="none" stroke="#3d5c3d" stroke-width="0.25" opacity="0.4" data-segment="outfield_inner" />
    <path d="M 69.04 69.46 L 68.96 69.25 L 68.70 68.68 L 68.28 67.79 L 67.68 66.66 L 66.91 65.32 L 65.95 63.86 L 64.82 62.32 L 63.50 60.77 L 61.99 59.25 L 60.29 57.84 L 58.40 56.60 L 56.31 55.57 L 54.03 54.82 L 51.54 54.41 L 48.86 54.39 L 46.30 54.76 L 43.94 55.47 L 41.78 56.45 L 39.83 57.65 L 38.07 59.01 L 36.51 60.48 L 35.15 61.99 L 33.97 63.49 L 32.98 64.93 L 32.17 66.24 L 31.54 67.37 L 31.09 68.26 L 30.81 68.86 L 30.71 69.10 L 31.84 70.18 L 33.11 71.41 L 34.39 72.63 L 35.66 73.86 L 36.94 75.08 L 38.21 76.30 L 39.49 77.53 L 40.76 78.75 L 42.04 79.97 L 43.31 81.20 L 44.59 82.42 L 45.86 83.64 L 46.19 84.96 L 45.82 86.66 L 46.23 88.36 L 47.33 89.72 L 48.91 90.49 L 50.66 90.50 L 52.26 89.77 L 53.38 88.43 L 53.83 86.73 L 53.49 85.01 L 54.25 83.70 L 55.52 82.48 L 56.80 81.25 L 58.07 80.03 L 59.34 78.80 L 60.61 77.57 L 61.89 76.35 L 63.16 75.12 L 64.43 73.90 L 65.70 72.67 L 66.98 71.45 L 68.25 70.22 L 69.04 69.46 Z" fill="#2a3f2a" stroke="#4a6b4a" stroke-width="0.4" data-segment="infield_outer" />
    <path d="M 49.16 82.75 L 47.66 82.47 L 46.40 81.24 L 45.13 80.00 L 43.87 78.77 L 42.60 77.53 L 41.34 76.30 L 40.07 75.07 L 39.60 73.77 L 40.14 72.10 L 40.00 70.40 L 41.26 69.16 L 42.53 67.93 L 43.79 66.70 L 45.06 65.46 L 46.32 64.23 L 47.59 63.07 L 49.22 63.72 L 50.97 63.62 L 52.48 63.44 L 53.75 64.67 L 55.01 65.91 L 56.28 67.14 L 57.54 68.37 L 58.81 69.61 L 59.62 70.96 L 59.63 72.71 L 60.36 74.26 L 59.09 75.50 L 57.83 76.73 L 56.56 77.96 L 55.30 79.20 L 54.03 80.43 L 52.77 81.67 L 51.50 82.90 L 49.16 82.75" fill="none" stroke="#4a6b4a" stroke-width="0.25" opacity="0.5" data-segment="infield_inner" />
    <path d="M 49.85 87.12 L 47.97 85.24 L 46.09 83.36 L 44.21 81.49 L 42.33 79.61 L 40.45 77.73 L 38.57 75.85 L 36.69 73.97 L 34.82 72.09 L 32.94 70.21 L 31.06 68.33 L 29.18 66.45 L 27.30 64.57 L 25.42 62.69 L 23.54 60.81 L 21.67 58.93 L 19.79 57.05 L 17.91 55.18 L 16.03 53.30 L 14.15 51.42 L 12.27 49.54 L 10.39 47.66 L 8.51 45.78 L 6.64 43.90 L 4.76 42.02 L 4.90 41.11 L 6.77 42.99 L 8.65 44.87 L 10.53 46.75 L 12.41 48.63 L 14.29 50.51 L 16.17 52.39 L 18.05 54.27 L 19.92 56.15 L 21.80 58.03 L 23.68 59.91 L 25.56 61.79 L 27.44 63.67 L 29.32 65.55 L 31.20 67.43 L 33.07 69.31 L 34.95 71.18 L 36.83 73.06 L 38.71 74.94 L 40.59 76.82 L 42.47 78.70 L 44.35 80.58 L 46.22 82.46 L 48.10 84.34 L 49.98 85.95 L 51.86 84.07 L 53.74 82.19 L 55.62 80.32 L 57.50 78.44 L 59.38 76.56 L 61.26 74.68 L 63.14 72.80 L 65.02 70.93 L 66.90 69.05 L 68.78 67.17 L 70.66 65.29 L 72.55 63.42 L 74.43 61.54 L 76.31 59.66 L 78.19 57.78 L 80.07 55.91 L 81.95 54.03 L 83.83 52.15 L 85.71 50.27 L 87.59 48.40 L 89.47 46.52 L 91.35 44.64 L 93.23 42.76 L 95.11 40.89 L 96.56 40.06 L 94.97 42.06 L 93.09 43.94 L 91.21 45.82 L 89.33 47.69 L 87.45 49.57 L 85.57 51.45 L 83.69 53.33 L 81.81 55.20 L 79.93 57.08 L 78.05 58.96 L 76.17 60.84 L 74.29 62.71 L 72.41 64.59 L 70.53 66.47 L 68.65 68.35 L 66.77 70.22 L 64.89 72.10 L 63.01 73.98 L 61.13 75.86 L 59.25 77.74 L 57.37 79.61 L 55.49 81.49 L 53.61 83.37 L 51.73 85.25 L 49.85 87.12" fill="none" stroke="#4a6b4a" stroke-width="0.3" opacity="0.6" data-segment="foul_lines" />
    <path d="M 50.59 85.82 L 50.55 85.86 L 50.52 85.90 L 50.48 85.93 L 50.44 85.97 L 50.41 86.01 L 50.37 86.04 L 50.33 86.08 L 50.30 86.11 L 50.26 86.15 L 50.22 86.19 L 50.19 86.22 L 50.15 86.26 L 50.11 86.30 L 50.08 86.33 L 50.04 86.37 L 50.01 86.41 L 49.97 86.44 L 49.93 86.48 L 49.90 86.51 L 49.86 86.55 L 49.82 86.56 L 49.79 86.52 L 49.75 86.49 L 49.71 86.45 L 49.68 86.41 L 49.64 86.38 L 49.61 86.34 L 49.57 86.30 L 49.53 86.27 L 49.50 86.23 L 49.46 86.19 L 49.42 86.16 L 49.39 86.12 L 49.35 86.08 L 49.32 86.05 L 49.28 86.01 L 49.24 85.97 L 49.21 85.94 L 49.17 85.90 L 49.13 85.86 L 49.10 85.83 L 49.10 85.78 L 49.10 85.73 L 49.10 85.67 L 49.10 85.62 L 49.10 85.57 L 49.10 85.52 L 49.10 85.47 L 49.10 85.42 L 49.10 85.36 L 49.10 85.31 L 49.10 85.26 L 49.10 85.21 L 49.10 85.16 L 49.10 85.11 L 49.12 85.08 L 49.17 85.08 L 49.22 85.08 L 49.27 85.08 L 49.32 85.08 L 49.38 85.08 L 49.43 85.08 L 49.48 85.08 L 49.53 85.08 L 49.58 85.08 L 49.63 85.08 L 49.69 85.08 L 49.74 85.08 L 49.79 85.08 L 49.84 85.08 L 49.89 85.08 L 49.94 85.08 L 50.00 85.08 L 50.05 85.08 L 50.10 85.08 L 50.15 85.08 L 50.20 85.08 L 50.25 85.08 L 50.30 85.08 L 50.36 85.08 L 50.41 85.08 L 50.46 85.08 L 50.51 85.08 L 50.56 85.08 L 50.59 85.10 L 50.59 85.15 L 50.59 85.21 L 50.59 85.26 L 50.59 85.31 L 50.59 85.36 L 50.59 85.41 L 50.59 85.46 L 50.59 85.51 L 50.59 85.57 L 50.59 85.62 L 50.59 85.67 L 50.59 85.72 L 50.59 85.77 L 50.59 85.82 Z" fill="#e5e5e5" stroke="#ffffff" stroke-width="0.3" data-segment="home_plate" />
  <text x="50" y="98" text-anchor="middle" font-size="3" fill="#737373" font-family="monospace">LF 318' · CF 408' · RF 314'</text>
</svg>
