<?xml version="1.0" encoding="UTF-8"?>
<svg xmlns="http://www.w3.org/2000/svg" viewBox="0 0 100 100" role="img" aria-label="red_sox ballpark">
  <title>red_sox</title>
  <rect width="100" height="100" fill="#1a2e1a" />
    <path d="M 90.61 42.08 L 91.81 39.49 L 93.02 36.90 L 94.22 34.31 L 95.36 31.69 L 96.19 28.97 L 95.62 26.20 L 93.89 23.96 L 91.36 22.65 L 88.80 21.38 L 86.24 20.12 L 83.68 18.84 L 81.12 17.57 L 78.56 16.30 L 76.00 15.02 L 73.44 13.76 L 70.88 12.48 L 68.32 11.21 L 66.09 9.67 L 65.22 6.94 L 64.28 4.25 L 62.46 3.00 L 59.70 3.75 L 56.95 4.50 L 54.19 5.25 L 51.43 5.99 L 48.67 6.73 L 45.91 7.49 L 43.15 8.23 L 40.40 8.98 L 37.78 9.11 L 35.56 9.07 L 33.53 11.08 L 31.53 13.12 L 29.51 15.14 L 27.49 17.17 L 25.48 19.20 L 23.48 21.24 L 21.43 23.23 L 19.40 25.24 L 17.39 27.27 L 15.37 29.30 L 13.35 31.31 L 11.33 33.33 L 9.30 35.35 L 7.28 37.37 L 5.27 39.40 L 3.87 41.42 L 5.88 43.45 L 7.89 45.48 L 9.90 47.52 L 11.91 49.55 L 13.92 51.58 L 15.93 53.61 L 17.94 55.64 L 19.37 57.96 L 19.77 60.79 L 20.17 63.62 L 20.57 66.45 L 20.97 69.28 L 21.50 72.06 L 23.18 74.38 L 24.85 76.69 L 26.53 79.01 L 28.20 81.32 L 29.88 83.64 L 31.55 85.95 L 33.23 88.27 L 34.90 90.59 L 36.58 92.90 L 38.52 94.88 L 41.17 95.95 L 43.82 97.00 L 46.68 96.95 L 49.54 96.89 L 52.39 96.81 L 55.07 95.82 L 57.75 94.82 L 59.99 93.25 L 61.67 90.94 L 63.36 88.63 L 65.04 86.32 L 66.72 84.01 L 68.12 81.54 L 69.28 78.93 L 70.44 76.32 L 71.61 73.71 L 72.77 71.09 L 73.93 68.48 L 75.09 65.87 L 76.25 63.26 L 77.42 60.65 L 78.58 58.04 L 79.13 57.01 L 80.06 55.84 L 81.59 53.90 L 83.56 51.37 L 85.83 48.43 L 88.23 45.28 L 90.61 42.08 Z" fill="#243524" stroke="#3d5c3d" stroke-width="0.5" data-segment="outfield_outer" />
    <path d="M 47.77 92.96 L 44.11 92.29 L 41.17 90.72 L 39.07 88.93 L 37.87 87.58 L 37.10 86.62 L 35.44 84.65 L 33.78 82.67 L 32.12 80.70 L 30.47 78.73 L 28.81 76.76 L 27.15 74.78 L 25.49 72.81 L 23.84 70.84 L 23.14 68.44 L 22.79 65.89 L 22.44 63.33 L 22.10 60.78 L 21.75 58.23 L 21.40 55.67 L 19.99 53.66 L 18.13 51.88 L 16.27 50.10 L 14.40 48.32 L 12.54 46.54 L 10.68 44.76 L 8.82 42.97 L 6.96 41.19 L 8.32 39.38 L 10.15 37.57 L 11.98 35.75 L 13.81 33.93 L 15.64 32.12 L 17.46 30.30 L 19.29 28.49 L 21.12 26.67 L 22.95 24.85 L 24.77 23.04 L 26.60 21.22 L 28.43 19.41 L 30.26 17.59 L 32.09 15.77 L 33.91 13.96 L 35.74 12.14 L 38.17 11.42 L 40.68 10.84 L 43.19 10.27 L 45.71 9.69 L 48.22 9.12 L 50.73 8.54 L 53.24 7.96 L 55.58 8.89 L 57.89 10.03 L 60.20 11.16 L 62.52 12.30 L 64.83 13.43 L 67.14 14.57 L 69.45 15.70 L 71.77 16.84 L 74.08 17.97 L 76.39 19.11 L 78.71 20.24 L 81.02 21.38 L 83.33 22.51 L 85.65 23.65 L 87.96 24.78 L 90.27 25.92 L 91.68 27.78 L 92.28 30.29 L 92.53 32.76 L 91.53 35.13 L 90.52 37.50 L 89.24 39.71 L 87.64 41.74 L 86.05 43.76 L 84.46 45.79 L 82.86 47.81 L 81.27 49.84 L 79.68 51.86 L 78.08 53.88 L 76.49 55.91 L 75.39 58.23 L 74.34 60.59 L 73.29 62.94 L 72.25 65.29 L 71.20 67.65 L 70.15 70.00 L 69.10 72.35 L 68.05 74.71 L 67.00 77.06 L 65.42 79.07 L 63.69 80.98 L 61.96 82.89 L 60.23 84.80 L 58.50 86.71 L 57.73 87.62 L 56.51 88.97 L 54.39 90.75 L 51.44 92.30 L 47.77 92.96" fill="none" stroke="#3d5c3d" stroke-width="0.25" opacity="0.4" data-segment="outfield_inner" />
    <path d="M 66.12 67.16 L 67.48 65.80 L 67.70 64.43 L 66.45 65.61 L 66.22 64.85 L 65.85 63.86 L 65.33 62.69 L 64.64 61.40 L 63.75 60.02 L 62.64 58.63 L 61.29 57.26 L 59.68 55.96 L 57.79 54.80 L 55.59 53.82 L 53.06 53.07 L 50.19 52.61 L 46.97 52.48 L 43.91 52.70 L 41.21 53.23 L 38.86 54.01 L 36.81 55.01 L 35.05 56.17 L 33.56 57.46 L 32.31 58.82 L 31.28 60.22 L 30.44 61.61 L 29.77 62.93 L 29.25 64.16 L 28.84 65.24 L 28.53 66.11 L 27.17 64.90 L 27.52 66.26 L 28.89 67.62 L 29.63 69.39 L 30.54 71.09 L 32.09 72.99 L 33.66 74.04 L 35.12 74.17 L 36.53 75.13 L 37.90 76.48 L 39.27 77.84 L 40.64 79.20 L 42.01 80.55 L 43.38 81.91 L 44.65 83.28 L 44.25 85.13 L 44.88 86.93 L 46.36 88.12 L 48.25 88.37 L 49.98 87.59 L 51.05 86.01 L 51.13 84.11 L 51.20 82.49 L 52.54 81.11 L 53.87 79.72 L 55.21 78.33 L 56.55 76.95 L 57.88 75.56 L 59.22 74.17 L 61.06 74.03 L 62.66 73.39 L 64.11 72.01 L 65.24 70.28 L 65.83 68.52 L 66.12 67.16 Z" fill="#2a3f2a" stroke="#4a6b4a" stroke-width="0.4" data-segment="infield_outer" />
    <path d="M 49.70 82.04 L 47.90 81.42 L 46.05 81.85 L 44.60 81.60 L 43.24 80.23 L 41.87 78.87 L 40.51 77.51 L 39.15 76.15 L 37.79 74.79 L 36.42 73.42 L 37.51 72.15 L 38.06 70.29 L 38.10 68.51 L 39.45 67.14 L 40.81 65.77 L 42.16 64.40 L 43.52 63.03 L 44.87 61.66 L 46.25 60.65 L 48.09 61.00 L 49.72 61.09 L 51.08 62.45 L 52.45 63.81 L 53.81 65.17 L 55.18 66.53 L 56.54 67.89 L 56.89 69.49 L 57.14 71.37 L 58.37 72.82 L 58.12 74.03 L 56.78 75.41 L 55.44 76.80 L 54.11 78.19 L 52.77 79.57 L 51.43 80.96 L 49.70 82.04" fill="none" stroke="#4a6b4a" stroke-width="0.25" opacity="0.5" data-segment="infield_inner" />
    <path d="M 47.61 85.33 L 45.83 83.55 L 44.05 81.77 L 42.28 79.99 L 40.50 78.21 L 38.72 76.43 L 36.94 74.65 L 35.17 72.88 L 33.39 71.10 L 31.61 69.32 L 29.83 67.54 L 28.05 65.76 L 26.28 63.98 L 24.50 62.20 L 22.72 60.42 L 20.94 58.65 L 19.16 56.87 L 17.39 55.09 L 15.61 53.31 L 13.83 51.53 L 12.05 49.75 L 10.28 47.97 L 8.50 46.20 L 6.72 44.42 L 4.94 42.64 L 3.81 40.87 L 5.59 42.26 L 7.37 44.04 L 9.14 45.82 L 10.92 47.59 L 12.70 49.37 L 14.48 51.15 L 16.25 52.93 L 18.03 54.71 L 19.81 56.49 L 21.59 58.27 L 23.37 60.04 L 25.14 61.82 L 26.92 63.60 L 28.70 65.38 L 30.48 67.16 L 32.26 68.94 L 34.03 70.72 L 35.81 72.49 L 37.59 74.27 L 39.37 76.05 L 41.14 77.83 L 42.92 79.61 L 44.70 81.39 L 46.48 83.17 L 48.26 83.65 L 50.04 81.88 L 51.82 80.10 L 53.60 78.32 L 55.37 76.55 L 57.15 74.77 L 58.93 72.99 L 60.71 71.22 L 62.49 69.44 L 64.27 67.66 L 66.05 65.89 L 67.83 64.11 L 69.61 62.33 L 71.39 60.56 L 73.17 58.78 L 74.95 57.00 L 76.73 55.22 L 78.51 53.45 L 80.29 51.67 L 82.07 49.89 L 83.85 48.12 L 85.63 46.34 L 87.41 44.56 L 89.19 42.79 L 90.97 41.01 L 90.23 42.60 L 88.54 44.46 L 86.76 46.23 L 84.98 48.01 L 83.20 49.79 L 81.42 51.56 L 79.64 53.34 L 77.86 55.12 L 76.08 56.90 L 74.30 58.67 L 72.52 60.45 L 70.74 62.23 L 68.96 64.00 L 67.19 65.78 L 65.41 67.56 L 63.63 69.33 L 61.85 71.11 L 60.07 72.89 L 58.29 74.66 L 56.51 76.44 L 54.73 78.22 L 52.95 79.99 L 51.17 81.77 L 49.39 83.55 L 47.61 85.33" fill="none" stroke="#4a6b4a" stroke-width="0.3" opacity="0.6" data-segment="foul_lines" />
    <path d="M 48.35 84.04 L 48.31 84.08 L 48.27 84.11 L 48.24 84.15 L 48.20 84.19 L 48.17 84.22 L 48.13 84.26 L 48.09 84.29 L 48.06 84.33 L 48.02 84.37 L 47.98 84.40 L 47.95 84.44 L 47.91 84.47 L 47.88 84.51 L 47.84 84.54 L 47.80 84.58 L 47.77 84.62 L 47.73 84.65 L 47.70 84.69 L 47.66 84.72 L 47.62 84.76 L 47.59 84.77 L 47.55 84.73 L 47.52 84.70 L 47.48 84.66 L 47.44 84.63 L 47.41 84.59 L 47.37 84.55 L 47.34 84.52 L 47.30 84.48 L 47.27 84.44 L 47.23 84.41 L 47.19 84.37 L 47.16 84.34 L 47.12 84.30 L 47.09 84.26 L 47.05 84.23 L 47.02 84.19 L 46.98 84.15 L 46.94 84.12 L 46.91 84.08 L 46.87 84.05 L 46.87 84.00 L 46.87 83.95 L 46.87 83.89 L 46.87 83.84 L 46.87 83.79 L 46.87 83.74 L 46.87 83.69 L 46.87 83.64 L 46.87 83.59 L 46.87 83.54 L 46.87 83.49 L 46.87 83.44 L 46.87 83.39 L 46.87 83.33 L 46.89 83.31 L 46.94 83.31 L 46.99 83.31 L 47.05 83.31 L 47.10 83.31 L 47.15 83.31 L 47.20 83.31 L 47.25 83.31 L 47.30 83.31 L 47.35 83.31 L 47.40 83.31 L 47.45 83.31 L 47.50 83.31 L 47.55 83.31 L 47.61 83.31 L 47.66 83.31 L 47.71 83.31 L 47.76 83.31 L 47.81 83.31 L 47.86 83.31 L 47.91 83.31 L 47.96 83.31 L 48.01 83.31 L 48.06 83.31 L 48.11 83.31 L 48.17 83.31 L 48.22 83.31 L 48.27 83.31 L 48.32 83.31 L 48.35 83.33 L 48.35 83.38 L 48.35 83.43 L 48.35 83.48 L 48.35 83.53 L 48.35 83.58 L 48.35 83.64 L 48.35 83.69 L 48.35 83.74 L 48.35 83.79 L 48.35 83.84 L 48.35 83.89 L 48.35 83.94 L 48.35 83.99 L 48.35 84.04 Z" fill="#e5e5e5" stroke="#ffffff" stroke-width="0.3" data-segment="home_plate" />
  <text x="50" y="98" text-anchor="middle" font-size="3" fill="#737373" font-family="monospace">LF 310' · CF 420' · RF 302'</text>
</svg>
