<?xml version="1.0" encoding="UTF-8"?>
<svg xmlns="http://www.w3.org/2000/svg" viewBox="0 0 100 100" role="img" aria-label="reds ballpark">
  <title>reds</title>
  <rect width="100" height="100" fill="#1a2e1a" />
    <path d="M 3.00 40.77 L 4.96 42.73 L 6.92 44.69 L 8.88 46.65 L 10.84 48.61 L 12.80 50.58 L 14.75 52.54 L 16.71 54.50 L 18.67 56.46 L 20.63 58.42 L 21.72 60.93 L 22.61 63.55 L 23.51 66.18 L 24.41 68.80 L 25.30 71.42 L 26.14 72.97 L 27.48 74.92 L 29.26 77.49 L 31.32 80.44 L 33.49 83.51 L 35.61 86.42 L 37.50 88.92 L 39.01 90.75 L 39.96 91.64 L 40.51 92.27 L 42.31 93.73 L 45.58 95.26 L 49.65 96.05 L 52.12 96.04 L 54.77 95.49 L 57.51 94.35 L 59.20 93.08 L 61.19 91.15 L 63.32 88.78 L 65.45 86.22 L 67.45 83.68 L 69.17 81.41 L 70.47 79.63 L 71.49 78.04 L 72.90 75.60 L 74.56 72.58 L 76.34 69.25 L 78.12 65.87 L 79.76 62.72 L 81.13 60.06 L 82.10 58.17 L 82.54 57.32 L 83.01 56.83 L 84.62 55.22 L 87.00 52.82 L 89.74 50.04 L 92.44 47.26 L 94.71 44.88 L 96.13 43.30 L 97.00 41.34 L 96.55 38.72 L 94.99 36.43 L 93.42 34.14 L 91.77 31.92 L 90.06 29.74 L 88.29 27.60 L 86.50 25.49 L 84.56 23.51 L 82.50 21.66 L 80.42 19.82 L 78.27 18.07 L 76.10 16.35 L 73.84 14.74 L 71.54 13.20 L 69.19 11.73 L 66.82 10.30 L 64.34 9.05 L 61.85 7.83 L 59.35 6.64 L 56.76 5.66 L 54.13 4.76 L 51.48 3.95 L 48.82 4.23 L 46.19 5.09 L 43.54 5.93 L 40.91 6.78 L 38.27 7.63 L 35.63 8.48 L 32.99 9.33 L 30.35 10.17 L 28.18 11.86 L 26.23 13.84 L 24.26 15.79 L 22.32 17.77 L 20.36 19.73 L 18.39 21.68 L 16.43 23.64 L 14.47 25.60 L 12.49 27.54 L 10.54 29.51 L 8.57 31.47 L 6.61 33.43 L 4.85 35.54 L 3.94 38.16 L 3.00 40.77 Z" fill="#243524" stroke="#3d5c3d" stroke-width="0.5" data-segment="outfield_outer" />
    <path d="M 41.13 87.70 L 40.28 86.91 L 38.91 85.25 L 37.19 82.95 L 35.25 80.28 L 33.27 77.46 L 31.39 74.76 L 29.77 72.40 L 28.57 70.64 L 27.81 69.16 L 27.00 66.75 L 26.18 64.34 L 25.37 61.93 L 24.55 59.52 L 23.45 57.29 L 21.66 55.49 L 19.86 53.68 L 18.06 51.88 L 16.27 50.08 L 14.47 48.28 L 12.68 46.48 L 10.88 44.68 L 9.09 42.87 L 7.29 41.07 L 6.32 39.23 L 6.93 38.51 L 8.14 37.21 L 9.85 35.44 L 11.94 33.29 L 14.32 30.88 L 16.88 28.30 L 19.51 25.66 L 22.11 23.06 L 24.58 20.60 L 26.80 18.38 L 28.67 16.52 L 30.09 15.11 L 30.96 14.26 L 31.71 13.85 L 34.11 13.01 L 36.50 12.16 L 38.90 11.31 L 41.30 10.47 L 43.70 9.62 L 46.10 8.77 L 48.50 7.93 L 50.52 7.22 L 51.09 7.45 L 52.41 7.98 L 54.35 8.78 L 56.78 9.81 L 59.56 11.03 L 62.55 12.40 L 65.63 13.87 L 68.65 15.41 L 71.48 16.98 L 73.99 18.53 L 76.04 20.03 L 77.72 21.62 L 79.67 23.65 L 81.71 25.85 L 83.77 28.12 L 85.79 30.38 L 87.68 32.54 L 89.38 34.50 L 90.82 36.17 L 91.91 37.47 L 92.95 39.03 L 93.00 42.14 L 92.42 43.70 L 91.49 44.79 L 89.63 46.76 L 87.24 49.21 L 84.69 51.80 L 82.36 54.14 L 80.62 55.88 L 79.86 56.64 L 79.61 57.11 L 78.84 58.61 L 77.66 60.88 L 76.20 63.67 L 74.58 66.74 L 72.92 69.82 L 71.36 72.67 L 70.01 75.04 L 68.99 76.66 L 67.90 78.17 L 66.37 80.18 L 64.57 82.48 L 62.61 84.83 L 60.64 87.03 L 58.79 88.86 L 57.19 90.11 L 54.81 91.14 L 52.35 91.70 L 50.08 91.73 L 46.47 91.07 L 43.37 89.68 L 41.66 88.31 L 41.13 87.70" fill="none" stroke="#3d5c3d" stroke-width="0.25" opacity="0.4" data-segment="outfield_inner" />
    <path d="M 61.31 76.63 L 62.54 75.89 L 63.77 74.62 L 65.00 73.35 L 66.23 72.09 L 67.46 70.82 L 68.69 69.55 L 69.33 68.45 L 68.83 67.50 L 68.20 66.39 L 67.43 65.15 L 66.52 63.83 L 65.48 62.45 L 64.32 61.06 L 63.02 59.70 L 61.59 58.40 L 60.03 57.20 L 58.35 56.14 L 56.54 55.26 L 54.61 54.59 L 52.55 54.18 L 50.37 54.05 L 48.19 54.23 L 46.13 54.68 L 44.19 55.38 L 42.37 56.28 L 40.68 57.34 L 39.11 58.54 L 37.67 59.83 L 36.36 61.17 L 35.18 62.54 L 34.13 63.89 L 33.21 65.19 L 32.43 66.40 L 31.79 67.49 L 31.28 68.41 L 31.90 69.48 L 33.15 70.73 L 34.41 71.97 L 35.66 73.21 L 36.92 74.45 L 38.18 75.70 L 39.44 76.63 L 40.71 77.66 L 41.97 78.89 L 43.23 80.12 L 44.50 81.36 L 45.76 82.59 L 47.02 83.83 L 46.36 85.45 L 46.43 87.12 L 47.24 88.68 L 48.64 89.73 L 50.36 90.09 L 52.06 89.67 L 53.42 88.56 L 54.17 86.98 L 54.16 85.23 L 54.16 83.73 L 55.41 82.48 L 56.67 81.24 L 57.92 80.00 L 59.17 78.75 L 60.43 77.51 L 61.31 76.63 Z" fill="#2a3f2a" stroke="#4a6b4a" stroke-width="0.4" data-segment="infield_outer" />
    <path d="M 51.36 82.36 L 49.61 82.27 L 48.12 81.96 L 46.87 80.72 L 45.61 79.47 L 44.35 78.23 L 43.10 76.99 L 41.84 75.75 L 40.58 74.51 L 39.66 73.25 L 40.78 71.89 L 41.15 70.27 L 41.75 68.78 L 43.02 67.55 L 44.28 66.32 L 45.55 65.08 L 46.81 63.85 L 48.10 62.67 L 49.86 62.69 L 51.63 62.71 L 53.16 63.29 L 54.43 64.53 L 55.69 65.76 L 56.95 67.00 L 58.22 68.23 L 59.48 69.47 L 59.64 71.07 L 60.29 72.55 L 60.66 73.85 L 59.40 75.09 L 58.14 76.33 L 56.89 77.57 L 55.63 78.81 L 54.37 80.05 L 53.11 81.29 L 51.36 82.36" fill="none" stroke="#4a6b4a" stroke-width="0.25" opacity="0.5" data-segment="infield_inner" />
    <path d="M 50.31 86.64 L 48.41 84.74 L 46.52 82.84 L 44.62 80.94 L 42.72 79.04 L 40.82 77.14 L 38.92 75.24 L 37.02 73.34 L 35.13 71.44 L 33.23 69.54 L 31.33 67.65 L 29.43 65.75 L 27.53 63.85 L 25.63 61.95 L 23.74 60.05 L 21.84 58.15 L 19.94 56.25 L 18.04 54.35 L 16.14 52.45 L 14.25 50.55 L 12.35 48.65 L 10.45 46.76 L 8.55 44.86 L 6.65 42.96 L 4.75 41.06 L 3.67 38.98 L 5.55 40.82 L 7.45 42.72 L 9.35 44.62 L 11.25 46.52 L 13.14 48.42 L 15.04 50.32 L 16.94 52.22 L 18.84 54.12 L 20.74 56.01 L 22.63 57.91 L 24.53 59.81 L 26.43 61.71 L 28.33 63.61 L 30.23 65.51 L 32.13 67.41 L 34.02 69.31 L 35.92 71.21 L 37.82 73.11 L 39.72 75.00 L 41.62 76.90 L 43.51 78.80 L 45.41 80.70 L 47.31 82.60 L 49.21 84.50 L 51.11 84.81 L 53.01 82.91 L 54.91 81.01 L 56.81 79.12 L 58.71 77.22 L 60.61 75.32 L 62.51 73.42 L 64.41 71.53 L 66.31 69.63 L 68.21 67.73 L 70.11 65.84 L 72.01 63.94 L 73.91 62.04 L 75.81 60.15 L 77.71 58.25 L 79.61 56.35 L 81.51 54.45 L 83.41 52.56 L 85.31 50.66 L 87.21 48.76 L 89.11 46.87 L 91.01 44.97 L 92.91 43.07 L 94.81 41.17 L 96.71 39.28 L 95.92 41.11 L 94.02 43.01 L 92.12 44.90 L 90.22 46.80 L 88.32 48.70 L 86.42 50.59 L 84.52 52.49 L 82.62 54.39 L 80.72 56.28 L 78.82 58.18 L 76.92 60.08 L 75.02 61.98 L 73.12 63.87 L 71.22 65.77 L 69.31 67.67 L 67.41 69.56 L 65.51 71.46 L 63.61 73.36 L 61.71 75.25 L 59.81 77.15 L 57.91 79.05 L 56.01 80.94 L 54.11 82.84 L 52.21 84.74 L 50.31 86.64" fill="none" stroke="#4a6b4a" stroke-width="0.3" opacity="0.6" data-segment="foul_lines" />
    <path d="M 51.05 85.34 L 51.02 85.38 L 50.98 85.42 L 50.94 85.45 L 50.91 85.49 L 50.87 85.52 L 50.83 85.56 L 50.80 85.60 L 50.76 85.63 L 50.73 85.67 L 50.69 85.70 L 50.65 85.74 L 50.62 85.78 L 50.58 85.81 L 50.54 85.85 L 50.51 85.89 L 50.47 85.92 L 50.43 85.96 L 50.40 85.99 L 50.36 86.03 L 50.33 86.07 L 50.29 86.08 L 50.25 86.04 L 50.22 86.00 L 50.18 85.97 L 50.15 85.93 L 50.11 85.89 L 50.07 85.86 L 50.04 85.82 L 50.00 85.78 L 49.97 85.75 L 49.93 85.71 L 49.89 85.68 L 49.86 85.64 L 49.82 85.60 L 49.79 85.57 L 49.75 85.53 L 49.71 85.49 L 49.68 85.46 L 49.64 85.42 L 49.61 85.38 L 49.57 85.35 L 49.57 85.30 L 49.57 85.25 L 49.57 85.19 L 49.57 85.14 L 49.57 85.09 L 49.57 85.04 L 49.57 84.99 L 49.57 84.94 L 49.57 84.89 L 49.57 84.84 L 49.57 84.78 L 49.57 84.73 L 49.57 84.68 L 49.57 84.63 L 49.59 84.60 L 49.64 84.60 L 49.69 84.60 L 49.74 84.60 L 49.79 84.60 L 49.85 84.60 L 49.90 84.60 L 49.95 84.60 L 50.00 84.60 L 50.05 84.60 L 50.10 84.60 L 50.15 84.60 L 50.20 84.60 L 50.26 84.60 L 50.31 84.60 L 50.36 84.60 L 50.41 84.60 L 50.46 84.60 L 50.51 84.60 L 50.56 84.60 L 50.61 84.60 L 50.67 84.60 L 50.72 84.60 L 50.77 84.60 L 50.82 84.60 L 50.87 84.60 L 50.92 84.60 L 50.97 84.60 L 51.02 84.60 L 51.05 84.63 L 51.05 84.68 L 51.05 84.73 L 51.05 84.78 L 51.05 84.83 L 51.05 84.88 L 51.05 84.93 L 51.05 84.99 L 51.05 85.04 L 51.05 85.09 L 51.05 85.14 L 51.05 85.19 L 51.05 85.24 L 51.05 85.29 L 51.05 85.34 Z" fill="#e5e5e5" stroke="#ffffff" stroke-width="0.3" data-segment="home_plate" />
  <text x="50" y="98" text-anchor="middle" font-size="3" fill="#737373" font-family="monospace">LF 328' · CF 404' · RF 325'</text>
</svg>
