<?xml version="1.0" encoding="UTF-8"?>
<svg xmlns="http://www.w3.org/2000/svg" viewBox="0 0 100 100" role="img" aria-label="rockies ballpark">
  <title>rockies</title>
  <rect width="100" height="100" fill="#1a2e1a" />
    <path d="M 96.99 37.98 L 95.89 35.68 L 93.79 33.93 L 91.68 32.17 L 89.57 30.43 L 87.46 28.68 L 85.35 26.92 L 83.26 25.15 L 81.17 23.38 L 79.06 21.62 L 76.96 19.87 L 74.85 18.11 L 72.75 16.35 L 70.65 14.59 L 68.55 12.83 L 66.44 11.07 L 64.34 9.32 L 62.23 7.56 L 59.99 6.02 L 57.30 5.99 L 54.57 6.23 L 51.84 6.48 L 49.11 6.71 L 46.38 6.95 L 43.65 7.18 L 40.92 7.41 L 38.19 7.65 L 35.45 7.88 L 32.72 8.12 L 29.99 8.36 L 27.62 9.53 L 25.85 11.63 L 24.10 13.73 L 22.35 15.85 L 20.61 17.96 L 18.84 20.06 L 17.08 22.16 L 15.34 24.28 L 13.58 26.38 L 11.83 28.49 L 10.06 30.58 L 8.30 32.68 L 6.55 34.80 L 4.81 36.92 L 3.08 39.04 L 3.00 41.17 L 4.98 43.07 L 6.96 44.97 L 8.94 46.87 L 10.92 48.76 L 12.42 50.99 L 13.56 53.49 L 14.69 55.99 L 15.82 58.49 L 16.95 60.98 L 18.08 63.48 L 19.49 65.80 L 21.30 67.86 L 23.10 69.92 L 24.91 71.99 L 26.71 74.05 L 28.51 76.11 L 30.32 78.18 L 32.12 80.24 L 33.93 82.31 L 35.73 84.37 L 37.54 86.43 L 39.34 88.50 L 41.03 90.32 L 42.53 91.72 L 44.60 93.10 L 47.71 94.01 L 51.92 93.88 L 55.25 92.39 L 57.34 90.53 L 58.19 89.42 L 59.67 87.69 L 61.46 85.62 L 63.26 83.54 L 65.05 81.47 L 66.84 79.39 L 68.63 77.32 L 70.42 75.24 L 72.22 73.17 L 74.01 71.09 L 75.80 69.02 L 77.59 66.94 L 79.38 64.87 L 80.98 62.65 L 82.43 60.33 L 83.89 58.00 L 85.34 55.67 L 86.79 53.35 L 88.24 51.02 L 88.59 48.44 L 90.43 46.41 L 92.26 44.37 L 94.10 42.34 L 95.94 40.30 L 97.00 37.98 Z" fill="#243524" stroke="#3d5c3d" stroke-width="0.5" data-segment="outfield_outer" />
    <path d="M 93.83 38.63 L 92.11 40.49 L 90.39 42.35 L 88.67 44.21 L 86.94 46.06 L 85.22 47.92 L 84.99 50.10 L 83.73 52.30 L 82.47 54.50 L 81.20 56.69 L 79.94 58.89 L 78.68 61.08 L 77.33 63.22 L 75.67 65.14 L 74.02 67.06 L 72.37 68.98 L 70.71 70.90 L 69.06 72.82 L 67.41 74.74 L 65.75 76.66 L 64.10 78.58 L 62.45 80.50 L 60.79 82.42 L 59.14 84.34 L 56.99 85.57 L 55.86 87.60 L 54.51 89.73 L 52.50 91.25 L 50.08 91.95 L 48.20 91.82 L 46.33 90.98 L 44.47 89.30 L 42.64 86.62 L 40.41 85.08 L 38.43 83.68 L 36.75 81.78 L 35.08 79.88 L 33.40 77.98 L 31.73 76.08 L 30.05 74.17 L 28.38 72.27 L 26.70 70.37 L 25.03 68.47 L 23.35 66.57 L 21.68 64.67 L 20.33 62.56 L 19.35 60.23 L 18.36 57.89 L 17.38 55.56 L 16.39 53.22 L 15.41 50.89 L 14.42 48.56 L 13.43 46.23 L 11.60 44.48 L 9.77 42.73 L 7.93 40.98 L 7.35 39.17 L 9.02 37.27 L 10.69 35.36 L 12.37 33.46 L 14.04 31.55 L 15.71 29.65 L 17.38 27.75 L 19.05 25.84 L 20.72 23.94 L 22.39 22.03 L 24.06 20.13 L 25.73 18.22 L 27.41 16.32 L 29.08 14.42 L 30.80 12.62 L 33.33 12.41 L 35.85 12.20 L 38.38 11.99 L 40.90 11.78 L 43.43 11.57 L 45.95 11.36 L 48.48 11.15 L 51.00 10.94 L 53.53 10.72 L 56.05 10.51 L 58.58 10.30 L 60.82 10.96 L 62.77 12.59 L 64.71 14.22 L 66.65 15.84 L 68.59 17.47 L 70.53 19.10 L 72.47 20.73 L 74.42 22.35 L 76.36 23.98 L 78.30 25.61 L 80.24 27.24 L 82.18 28.86 L 84.12 30.49 L 86.06 32.12 L 88.01 33.75 L 89.95 35.37 L 91.89 37.00 L 93.83 38.63" fill="none" stroke="#3d5c3d" stroke-width="0.25" opacity="0.4" data-segment="outfield_inner" />
    <path d="M 67.75 69.13 L 67.67 68.93 L 67.43 68.39 L 67.03 67.56 L 66.47 66.49 L 65.74 65.23 L 64.84 63.86 L 63.77 62.41 L 62.52 60.95 L 61.10 59.53 L 59.50 58.21 L 57.72 57.04 L 55.75 56.08 L 53.60 55.39 L 51.25 55.01 L 48.74 55.02 L 46.33 55.38 L 44.12 56.06 L 42.11 56.99 L 40.28 58.13 L 38.64 59.42 L 37.19 60.80 L 35.91 62.22 L 34.82 63.63 L 33.90 64.97 L 33.15 66.19 L 32.57 67.24 L 32.16 68.06 L 31.92 68.59 L 31.83 68.79 L 33.00 69.91 L 34.19 71.06 L 35.39 72.21 L 36.59 73.36 L 37.79 74.51 L 38.99 75.66 L 40.18 76.81 L 41.38 77.96 L 42.58 79.10 L 43.78 80.25 L 44.98 81.40 L 46.17 82.55 L 46.25 83.85 L 46.00 85.45 L 46.48 87.02 L 47.58 88.25 L 49.10 88.88 L 50.75 88.79 L 52.20 88.01 L 53.18 86.69 L 53.50 85.07 L 53.07 83.48 L 54.07 82.30 L 55.27 81.15 L 56.46 80.00 L 57.66 78.85 L 58.85 77.69 L 60.05 76.54 L 61.25 75.39 L 62.44 74.24 L 63.64 73.09 L 64.83 71.93 L 66.03 70.78 L 67.22 69.63 L 67.75 69.13 Z" fill="#2a3f2a" stroke="#4a6b4a" stroke-width="0.4" data-segment="infield_outer" />
    <path d="M 48.83 81.64 L 47.50 81.10 L 46.32 79.93 L 45.14 78.76 L 43.96 77.59 L 42.78 76.42 L 41.60 75.25 L 40.42 74.08 L 39.87 72.88 L 40.93 71.60 L 41.11 70.03 L 41.85 68.70 L 43.04 67.54 L 44.23 66.38 L 45.42 65.22 L 46.61 64.06 L 47.83 63.24 L 49.40 63.76 L 51.03 63.57 L 52.40 63.63 L 53.58 64.79 L 54.77 65.95 L 55.96 67.11 L 57.15 68.27 L 58.33 69.43 L 58.57 70.91 L 59.09 72.33 L 59.59 73.55 L 58.41 74.71 L 57.23 75.88 L 56.05 77.05 L 54.87 78.21 L 53.69 79.38 L 52.50 80.55 L 51.32 81.71 L 48.83 81.64" fill="none" stroke="#4a6b4a" stroke-width="0.25" opacity="0.5" data-segment="infield_inner" />
    <path d="M 49.76 85.68 L 47.86 83.78 L 45.96 81.88 L 44.06 79.98 L 42.16 78.07 L 40.26 76.17 L 38.36 74.27 L 36.46 72.37 L 34.56 70.47 L 32.66 68.57 L 30.76 66.67 L 28.86 64.77 L 26.96 62.86 L 25.06 60.96 L 23.16 59.06 L 21.26 57.16 L 19.36 55.26 L 17.45 53.36 L 15.55 51.46 L 13.65 49.56 L 11.75 47.65 L 9.85 45.75 L 7.95 43.85 L 6.05 41.95 L 4.15 40.05 L 4.18 39.10 L 6.08 41.00 L 7.98 42.90 L 9.88 44.80 L 11.78 46.71 L 13.68 48.61 L 15.58 50.51 L 17.48 52.41 L 19.38 54.31 L 21.28 56.21 L 23.18 58.11 L 25.08 60.01 L 26.98 61.92 L 28.88 63.82 L 30.78 65.72 L 32.68 67.62 L 34.58 69.52 L 36.48 71.42 L 38.39 73.32 L 40.29 75.22 L 42.19 77.13 L 44.09 79.03 L 45.99 80.93 L 47.89 82.83 L 49.79 84.68 L 51.69 82.78 L 53.59 80.88 L 55.49 78.98 L 57.40 77.08 L 59.30 75.18 L 61.20 73.28 L 63.10 71.38 L 65.01 69.48 L 66.91 67.58 L 68.81 65.69 L 70.71 63.79 L 72.61 61.89 L 74.52 59.99 L 76.42 58.09 L 78.32 56.19 L 80.22 54.29 L 82.13 52.39 L 84.03 50.49 L 85.93 48.59 L 87.83 46.69 L 89.74 44.79 L 91.64 42.89 L 93.54 40.99 L 95.44 39.09 L 97.00 38.07 L 95.42 40.09 L 93.52 41.99 L 91.61 43.89 L 89.71 45.79 L 87.81 47.69 L 85.91 49.59 L 84.00 51.49 L 82.10 53.39 L 80.20 55.29 L 78.30 57.19 L 76.40 59.09 L 74.49 60.99 L 72.59 62.89 L 70.69 64.79 L 68.79 66.69 L 66.88 68.58 L 64.98 70.48 L 63.08 72.38 L 61.18 74.28 L 59.27 76.18 L 57.37 78.08 L 55.47 79.98 L 53.57 81.88 L 51.67 83.78 L 49.76 85.68" fill="none" stroke="#4a6b4a" stroke-width="0.3" opacity="0.6" data-segment="foul_lines" />
    <path d="M 50.46 84.46 L 50.43 84.50 L 50.39 84.53 L 50.36 84.56 L 50.32 84.60 L 50.29 84.63 L 50.26 84.67 L 50.22 84.70 L 50.19 84.73 L 50.15 84.77 L 50.12 84.80 L 50.08 84.84 L 50.05 84.87 L 50.02 84.90 L 49.98 84.94 L 49.95 84.97 L 49.91 85.01 L 49.88 85.04 L 49.84 85.07 L 49.81 85.11 L 49.78 85.14 L 49.74 85.15 L 49.71 85.12 L 49.67 85.08 L 49.64 85.05 L 49.61 85.01 L 49.57 84.98 L 49.54 84.95 L 49.50 84.91 L 49.47 84.88 L 49.44 84.84 L 49.40 84.81 L 49.37 84.77 L 49.33 84.74 L 49.30 84.71 L 49.27 84.67 L 49.23 84.64 L 49.20 84.60 L 49.17 84.57 L 49.13 84.53 L 49.10 84.50 L 49.06 84.46 L 49.06 84.42 L 49.06 84.37 L 49.06 84.32 L 49.06 84.27 L 49.06 84.22 L 49.06 84.18 L 49.06 84.13 L 49.06 84.08 L 49.06 84.03 L 49.06 83.98 L 49.06 83.93 L 49.06 83.89 L 49.06 83.84 L 49.06 83.79 L 49.08 83.76 L 49.13 83.76 L 49.18 83.76 L 49.23 83.76 L 49.28 83.76 L 49.32 83.76 L 49.37 83.76 L 49.42 83.76 L 49.47 83.76 L 49.52 83.76 L 49.57 83.76 L 49.61 83.76 L 49.66 83.76 L 49.71 83.76 L 49.76 83.76 L 49.81 83.76 L 49.86 83.76 L 49.90 83.76 L 49.95 83.76 L 50.00 83.76 L 50.05 83.76 L 50.10 83.76 L 50.15 83.76 L 50.19 83.76 L 50.24 83.76 L 50.29 83.76 L 50.34 83.76 L 50.39 83.76 L 50.43 83.76 L 50.46 83.79 L 50.46 83.83 L 50.46 83.88 L 50.46 83.93 L 50.46 83.98 L 50.46 84.03 L 50.46 84.08 L 50.46 84.12 L 50.46 84.17 L 50.46 84.22 L 50.46 84.27 L 50.46 84.32 L 50.46 84.37 L 50.46 84.41 L 50.46 84.46 Z" fill="#e5e5e5" stroke="#ffffff" stroke-width="0.3" data-segment="home_plate" />
  <text x="50" y="98" text-anchor="middle" font-size="3" fill="#737373" font-family="monospace">LF 347' · CF 415' · RF 350'</text>
</svg>
