<?xml version="1.0" encoding="UTF-8"?>
<svg xmlns="http://www.w3.org/2000/svg" viewBox="0 0 100 100" role="img" aria-label="royals ballpark">
  <title>royals</title>
  <rect width="100" height="100" fill="#1a2e1a" />
    <path d="M 96.32 38.25 L 97.00 35.47 L 96.84 32.60 L 95.88 29.88 L 94.31 27.48 L 92.27 25.45 L 90.25 23.40 L 88.21 21.37 L 86.18 19.33 L 84.12 17.32 L 81.93 15.45 L 79.70 13.63 L 77.36 11.95 L 74.95 10.38 L 72.48 8.89 L 69.92 7.58 L 67.28 6.43 L 64.56 5.51 L 61.79 4.72 L 58.98 4.10 L 56.14 3.60 L 53.28 3.30 L 50.41 3.19 L 47.53 3.31 L 44.66 3.49 L 41.81 3.91 L 38.98 4.46 L 36.20 5.20 L 33.48 6.13 L 30.80 7.18 L 28.20 8.41 L 25.69 9.82 L 23.31 11.44 L 21.03 13.20 L 18.80 15.03 L 16.58 16.85 L 14.43 18.76 L 12.30 20.71 L 10.27 22.74 L 8.25 24.79 L 6.21 26.83 L 4.50 29.13 L 3.39 31.78 L 3.00 34.62 L 3.38 37.46 L 4.39 40.15 L 5.55 42.78 L 6.82 45.36 L 8.26 47.85 L 9.70 50.35 L 11.14 52.84 L 12.58 55.33 L 14.02 57.83 L 15.46 60.32 L 16.90 62.81 L 18.36 65.30 L 19.82 67.78 L 21.28 70.26 L 22.74 72.74 L 24.19 75.23 L 25.65 77.71 L 27.11 80.19 L 29.61 80.92 L 31.45 83.13 L 33.30 85.34 L 35.15 87.55 L 36.99 89.75 L 37.26 91.80 L 38.12 92.57 L 40.03 93.92 L 42.95 95.39 L 46.84 96.51 L 50.63 96.81 L 52.57 96.03 L 56.16 94.59 L 60.07 93.03 L 62.93 91.88 L 63.56 90.66 L 64.65 88.20 L 66.54 86.03 L 68.43 83.86 L 70.32 81.68 L 72.17 80.77 L 73.49 80.08 L 74.57 78.43 L 76.24 75.85 L 78.28 72.67 L 80.46 69.22 L 82.55 65.83 L 84.32 62.82 L 85.56 60.53 L 86.02 59.42 L 86.57 58.51 L 87.73 56.55 L 89.30 53.81 L 91.09 50.54 L 92.90 47.02 L 94.41 43.68 L 95.36 40.96 L 96.32 38.25 Z" fill="#243524" stroke="#3d5c3d" stroke-width="0.5" data-segment="outfield_outer" />
    <path d="M 50.04 91.67 L 45.86 91.20 L 42.51 90.09 L 40.05 88.74 L 38.52 87.59 L 37.94 87.06 L 37.39 84.82 L 35.72 82.82 L 34.04 80.82 L 32.37 78.81 L 30.62 76.96 L 28.51 76.10 L 27.18 73.85 L 25.86 71.60 L 24.54 69.35 L 23.21 67.10 L 21.89 64.84 L 20.57 62.59 L 19.24 60.34 L 17.91 58.10 L 16.58 55.85 L 15.26 53.60 L 13.93 51.35 L 12.60 49.11 L 11.27 46.86 L 9.94 44.61 L 8.72 42.31 L 8.18 40.83 L 7.60 39.00 L 7.15 36.08 L 7.60 32.83 L 9.21 30.38 L 10.21 29.39 L 11.47 28.19 L 12.98 26.79 L 14.70 25.24 L 16.61 23.57 L 18.70 21.83 L 20.94 20.04 L 23.30 18.24 L 25.78 16.47 L 28.33 14.77 L 30.95 13.17 L 33.61 11.71 L 36.28 10.42 L 38.95 9.34 L 41.59 8.51 L 44.28 7.94 L 47.41 7.56 L 50.42 7.43 L 53.33 7.52 L 56.13 7.82 L 58.81 8.29 L 61.38 8.92 L 63.84 9.69 L 66.19 10.57 L 68.42 11.55 L 70.54 12.59 L 72.55 13.68 L 74.44 14.79 L 76.39 16.02 L 78.88 17.89 L 81.32 20.03 L 83.64 22.31 L 85.78 24.59 L 87.69 26.75 L 89.29 28.66 L 90.54 30.17 L 91.37 31.15 L 92.32 32.39 L 93.05 34.27 L 93.28 36.56 L 93.01 39.25 L 92.23 42.31 L 90.99 45.62 L 89.40 48.49 L 87.54 51.03 L 85.65 53.23 L 83.96 55.12 L 82.72 56.68 L 82.15 57.91 L 81.50 59.39 L 80.30 61.68 L 78.70 64.50 L 76.89 67.56 L 75.03 70.60 L 73.29 73.32 L 71.83 75.44 L 70.83 76.69 L 68.93 76.93 L 67.38 78.61 L 65.67 80.58 L 63.95 82.55 L 62.24 84.52 L 61.87 86.93 L 61.38 87.44 L 59.93 88.61 L 57.56 90.01 L 54.25 91.18 L 50.04 91.67" fill="none" stroke="#3d5c3d" stroke-width="0.25" opacity="0.4" data-segment="outfield_inner" />
    <path d="M 69.19 67.63 L 69.12 67.44 L 68.95 66.88 L 68.64 66.01 L 68.18 64.89 L 67.55 63.57 L 66.73 62.13 L 65.70 60.61 L 64.44 59.08 L 62.94 57.61 L 61.17 56.25 L 59.12 55.06 L 56.76 54.10 L 54.08 53.43 L 51.05 53.12 L 47.73 53.21 L 44.71 53.63 L 42.08 54.34 L 39.80 55.29 L 37.86 56.44 L 36.22 57.72 L 34.85 59.10 L 33.74 60.53 L 32.86 61.95 L 32.17 63.33 L 31.66 64.60 L 31.30 65.73 L 31.07 66.67 L 30.93 67.35 L 30.99 67.86 L 32.26 69.15 L 33.53 70.45 L 34.80 71.74 L 35.96 73.09 L 36.43 74.74 L 37.76 75.97 L 39.41 76.46 L 40.76 77.67 L 42.10 78.89 L 43.45 80.10 L 44.80 81.32 L 46.14 82.53 L 47.39 83.76 L 46.89 85.47 L 47.44 87.17 L 48.85 88.28 L 50.63 88.49 L 52.26 87.76 L 53.24 86.26 L 53.30 84.47 L 53.86 83.11 L 55.15 81.83 L 56.44 80.56 L 57.73 79.29 L 59.03 78.01 L 60.32 76.74 L 61.93 76.04 L 63.28 74.87 L 64.11 73.34 L 65.02 71.85 L 66.30 70.57 L 67.59 69.29 L 68.87 68.01 L 69.19 67.63 Z" fill="#2a3f2a" stroke="#4a6b4a" stroke-width="0.4" data-segment="infield_outer" />
    <path d="M 51.62 82.46 L 49.59 82.46 L 47.79 82.44 L 46.49 81.17 L 45.18 79.91 L 43.88 78.65 L 42.58 77.39 L 41.28 76.12 L 39.98 74.86 L 38.67 73.60 L 39.56 72.33 L 40.71 70.60 L 40.43 69.25 L 41.74 68.00 L 43.05 66.74 L 44.35 65.48 L 45.66 64.22 L 46.97 62.96 L 48.27 61.70 L 49.86 61.15 L 51.59 61.36 L 52.87 62.64 L 54.15 63.93 L 55.43 65.22 L 56.70 66.51 L 57.98 67.79 L 59.26 69.08 L 59.29 70.01 L 60.43 72.14 L 61.56 73.40 L 60.30 74.70 L 59.03 76.00 L 57.77 77.30 L 56.51 78.60 L 55.24 79.91 L 53.98 81.21 L 51.62 82.46" fill="none" stroke="#4a6b4a" stroke-width="0.25" opacity="0.5" data-segment="infield_inner" />
    <path d="M 50.06 85.00 L 48.17 83.10 L 46.27 81.21 L 44.38 79.31 L 42.48 77.42 L 40.59 75.52 L 38.70 73.63 L 36.80 71.73 L 34.91 69.84 L 33.01 67.94 L 31.12 66.05 L 29.23 64.15 L 27.33 62.26 L 25.44 60.36 L 23.54 58.47 L 21.65 56.57 L 19.75 54.68 L 17.86 52.78 L 15.97 50.89 L 14.07 48.99 L 12.18 47.10 L 10.28 45.20 L 8.39 43.31 L 6.49 41.41 L 4.60 39.52 L 3.34 37.26 L 5.20 39.11 L 7.10 41.01 L 8.99 42.90 L 10.89 44.80 L 12.78 46.69 L 14.67 48.59 L 16.57 50.48 L 18.46 52.38 L 20.36 54.27 L 22.25 56.17 L 24.15 58.06 L 26.04 59.96 L 27.93 61.85 L 29.83 63.75 L 31.72 65.64 L 33.62 67.54 L 35.51 69.43 L 37.40 71.33 L 39.30 73.22 L 41.19 75.12 L 43.09 77.01 L 44.98 78.91 L 46.88 80.80 L 48.77 82.70 L 50.66 83.39 L 52.56 81.50 L 54.46 79.60 L 56.35 77.71 L 58.25 75.82 L 60.14 73.92 L 62.04 72.03 L 63.94 70.14 L 65.83 68.24 L 67.73 66.35 L 69.63 64.46 L 71.52 62.56 L 73.42 60.67 L 75.31 58.78 L 77.21 56.88 L 79.11 54.99 L 81.00 53.10 L 82.90 51.21 L 84.79 49.31 L 86.69 47.42 L 88.59 45.53 L 90.48 43.63 L 92.38 41.74 L 94.27 39.85 L 96.17 37.95 L 95.57 39.56 L 93.67 41.46 L 91.78 43.35 L 89.88 45.24 L 87.98 47.14 L 86.09 49.03 L 84.19 50.92 L 82.30 52.82 L 80.40 54.71 L 78.50 56.60 L 76.61 58.49 L 74.71 60.39 L 72.81 62.28 L 70.92 64.17 L 69.02 66.07 L 67.13 67.96 L 65.23 69.85 L 63.33 71.75 L 61.44 73.64 L 59.54 75.53 L 57.65 77.43 L 55.75 79.32 L 53.85 81.21 L 51.96 83.11 L 50.06 85.00" fill="none" stroke="#4a6b4a" stroke-width="0.3" opacity="0.6" data-segment="foul_lines" />
    <path d="M 50.78 83.74 L 50.75 83.77 L 50.71 83.81 L 50.68 83.84 L 50.64 83.88 L 50.61 83.92 L 50.57 83.95 L 50.54 83.99 L 50.50 84.02 L 50.47 84.06 L 50.43 84.09 L 50.39 84.13 L 50.36 84.16 L 50.32 84.20 L 50.29 84.23 L 50.25 84.27 L 50.22 84.30 L 50.18 84.34 L 50.15 84.37 L 50.11 84.41 L 50.08 84.44 L 50.04 84.45 L 50.00 84.42 L 49.97 84.38 L 49.93 84.35 L 49.90 84.31 L 49.86 84.28 L 49.83 84.24 L 49.79 84.20 L 49.76 84.17 L 49.72 84.13 L 49.69 84.10 L 49.65 84.06 L 49.62 84.03 L 49.58 83.99 L 49.55 83.96 L 49.51 83.92 L 49.48 83.88 L 49.44 83.85 L 49.41 83.81 L 49.37 83.78 L 49.34 83.74 L 49.33 83.69 L 49.33 83.64 L 49.33 83.59 L 49.33 83.54 L 49.33 83.49 L 49.33 83.44 L 49.33 83.39 L 49.33 83.34 L 49.33 83.29 L 49.33 83.24 L 49.33 83.19 L 49.33 83.14 L 49.33 83.09 L 49.33 83.04 L 49.36 83.02 L 49.41 83.02 L 49.46 83.02 L 49.51 83.02 L 49.56 83.02 L 49.61 83.02 L 49.66 83.02 L 49.71 83.02 L 49.76 83.02 L 49.81 83.02 L 49.86 83.02 L 49.91 83.02 L 49.96 83.02 L 50.01 83.02 L 50.06 83.02 L 50.11 83.02 L 50.16 83.02 L 50.21 83.02 L 50.26 83.02 L 50.31 83.02 L 50.36 83.02 L 50.41 83.02 L 50.46 83.02 L 50.51 83.02 L 50.56 83.02 L 50.61 83.02 L 50.66 83.02 L 50.71 83.02 L 50.76 83.02 L 50.78 83.04 L 50.78 83.09 L 50.78 83.14 L 50.78 83.19 L 50.78 83.24 L 50.78 83.29 L 50.78 83.34 L 50.78 83.39 L 50.78 83.44 L 50.78 83.49 L 50.78 83.54 L 50.78 83.59 L 50.78 83.64 L 50.78 83.69 L 50.78 83.74 Z" fill="#e5e5e5" stroke="#ffffff" stroke-width="0.3" data-segment="home_plate" />
  <text x="50" y="98" text-anchor="middle" font-size="3" fill="#737373" font-family="monospace">LF 330' · CF 410' · RF 330'</text>
</svg>
