<?xml version="1.0" encoding="UTF-8"?>
<svg xmlns="http://www.w3.org/2000/svg" viewBox="0 0 100 100" role="img" aria-label="tigers ballpark">
  <title>tigers</title>
  <rect width="100" height="100" fill="#1a2e1a" />
    <path d="M 73.56 78.69 L 75.87 77.67 L 77.48 75.32 L 79.09 72.97 L 80.70 70.62 L 82.31 68.28 L 83.92 65.93 L 85.53 63.58 L 87.14 61.23 L 87.88 58.61 L 87.88 55.77 L 88.13 53.02 L 90.13 50.99 L 92.12 48.96 L 94.12 46.93 L 96.11 44.90 L 96.72 42.20 L 97.00 39.37 L 95.51 37.10 L 93.51 35.08 L 91.48 33.08 L 89.47 31.07 L 87.46 29.05 L 85.45 27.03 L 83.44 25.02 L 81.43 23.00 L 79.42 20.98 L 78.34 18.41 L 77.49 15.72 L 75.67 13.56 L 73.66 11.55 L 71.65 9.53 L 69.64 7.52 L 67.62 5.51 L 65.59 3.53 L 62.78 3.24 L 59.94 3.33 L 57.09 3.41 L 54.25 3.50 L 51.40 3.59 L 48.56 3.67 L 45.71 3.76 L 42.86 3.86 L 40.02 3.94 L 37.42 4.70 L 35.39 6.69 L 33.37 8.71 L 31.35 10.71 L 29.34 12.73 L 27.31 14.73 L 25.30 16.73 L 23.28 18.74 L 21.26 20.75 L 19.25 22.76 L 17.21 24.75 L 15.20 26.76 L 13.17 28.76 L 11.14 30.76 L 9.13 32.77 L 7.11 34.77 L 5.07 36.76 L 3.16 38.83 L 3.19 41.42 L 5.20 43.43 L 7.22 45.44 L 9.23 47.46 L 11.24 49.47 L 12.28 51.88 L 13.01 54.52 L 14.49 56.95 L 15.97 59.38 L 17.45 61.81 L 18.93 64.24 L 20.41 66.68 L 21.89 69.11 L 23.37 71.54 L 24.85 73.97 L 26.33 76.40 L 26.96 77.20 L 28.30 78.58 L 30.36 80.70 L 32.87 83.28 L 35.59 86.06 L 38.25 88.78 L 40.61 91.15 L 42.40 92.93 L 43.89 94.23 L 45.80 95.45 L 48.08 96.36 L 50.65 96.76 L 53.47 96.45 L 56.47 95.24 L 59.59 92.93 L 62.76 89.73 L 65.71 86.70 L 68.34 83.98 L 70.55 81.69 L 72.24 79.93 L 73.33 78.79 L 73.71 78.39 Z" fill="#243524" stroke="#3d5c3d" stroke-width="0.5" data-segment="outfield_outer" />
    <path d="M 83.83 51.64 L 85.56 49.70 L 87.29 47.75 L 89.02 45.80 L 90.74 43.85 L 92.47 41.90 L 93.03 40.00 L 91.14 38.21 L 89.25 36.42 L 87.35 34.64 L 85.46 32.85 L 83.57 31.06 L 81.68 29.27 L 79.78 27.48 L 77.89 25.69 L 76.30 23.72 L 75.63 21.20 L 74.64 18.87 L 72.88 16.95 L 71.12 15.03 L 69.36 13.11 L 67.60 11.19 L 65.84 9.27 L 64.08 7.34 L 61.49 7.42 L 58.88 7.51 L 56.28 7.59 L 53.68 7.68 L 51.07 7.77 L 48.47 7.85 L 45.87 7.94 L 43.26 8.03 L 40.66 8.11 L 38.22 8.57 L 36.36 10.39 L 34.50 12.21 L 32.64 14.04 L 30.78 15.86 L 28.92 17.69 L 27.06 19.51 L 25.20 21.33 L 23.34 23.16 L 21.49 24.98 L 19.63 26.81 L 17.77 28.63 L 15.91 30.45 L 14.05 32.28 L 12.19 34.10 L 10.33 35.93 L 8.47 37.75 L 6.61 39.58 L 8.27 41.39 L 10.14 43.21 L 12.01 45.02 L 13.88 46.84 L 15.75 48.65 L 16.00 51.19 L 16.61 53.63 L 17.98 55.85 L 19.35 58.06 L 20.72 60.28 L 22.09 62.49 L 23.46 64.71 L 24.84 66.92 L 26.21 69.14 L 27.58 71.35 L 28.95 73.56 L 30.32 75.78 L 32.13 77.64 L 33.97 79.48 L 35.82 81.33 L 37.66 83.17 L 39.50 85.01 L 41.34 86.85 L 43.18 88.69 L 44.90 90.41 L 46.53 91.72 L 48.57 92.80 L 50.94 93.29 L 53.57 92.86 L 56.38 91.16 L 59.08 88.52 L 61.69 85.87 L 64.19 83.32 L 66.49 80.97 L 68.48 78.91 L 70.07 77.26 L 71.17 76.12 L 71.67 75.60 L 73.12 74.28 L 74.61 72.14 L 76.09 70.00 L 77.58 67.86 L 79.07 65.73 L 80.56 63.59 L 82.05 61.45 L 83.54 59.32 L 83.94 56.85 L 83.89 54.25 L 83.83 51.64" fill="none" stroke="#3d5c3d" stroke-width="0.25" opacity="0.4" data-segment="outfield_inner" />
    <path d="M 69.50 71.33 L 69.13 70.05 L 68.86 69.44 L 68.40 68.49 L 67.75 67.27 L 66.90 65.86 L 65.85 64.31 L 64.60 62.71 L 63.15 61.12 L 61.48 59.61 L 59.61 58.25 L 57.51 57.11 L 55.20 56.26 L 52.67 55.78 L 49.88 55.72 L 47.13 56.12 L 44.62 56.92 L 42.35 58.04 L 40.33 59.39 L 38.54 60.92 L 36.98 62.53 L 35.65 64.15 L 34.55 65.71 L 33.67 67.13 L 33.00 68.34 L 32.54 69.25 L 32.30 69.80 L 32.12 70.45 L 32.91 71.92 L 34.32 73.18 L 35.73 74.45 L 37.14 75.72 L 38.56 76.99 L 39.97 78.26 L 41.30 78.60 L 42.67 79.92 L 44.04 81.23 L 45.41 82.55 L 46.78 83.86 L 47.35 85.52 L 47.35 87.42 L 47.71 89.12 L 49.27 90.21 L 50.83 91.17 L 52.39 90.08 L 53.94 88.99 L 54.13 87.19 L 54.13 85.29 L 55.16 83.83 L 56.52 82.51 L 57.88 81.19 L 59.25 79.87 L 60.61 78.55 L 61.93 78.64 L 63.30 77.32 L 64.66 76.00 L 66.03 74.68 L 67.39 73.36 L 68.76 72.04 L 69.50 71.33 Z" fill="#2a3f2a" stroke="#4a6b4a" stroke-width="0.4" data-segment="infield_outer" />
    <path d="M 51.53 83.15 L 51.19 81.58 L 51.19 79.68 L 51.19 77.78 L 51.19 75.89 L 50.29 75.50 L 50.29 77.40 L 50.29 79.30 L 50.29 81.20 L 50.29 83.10 L 48.55 82.78 L 47.19 81.46 L 45.83 80.13 L 44.48 78.80 L 43.12 77.47 L 41.76 76.15 L 40.40 74.82 L 41.02 73.40 L 41.57 71.68 L 42.15 70.20 L 43.51 68.87 L 44.87 67.55 L 46.23 66.22 L 47.59 64.89 L 49.06 64.43 L 50.90 64.77 L 52.70 64.22 L 54.09 65.33 L 55.45 66.65 L 56.81 67.97 L 58.17 69.29 L 59.54 70.62 L 59.65 72.30 L 60.56 73.80 L 60.54 75.18 L 59.18 76.50 L 57.83 77.83 L 56.47 79.16 L 55.11 80.49 L 53.76 81.82 L 51.53 83.15" fill="none" stroke="#4a6b4a" stroke-width="0.25" opacity="0.5" data-segment="infield_inner" />
    <path d="M 50.67 87.31 L 48.77 85.40 L 46.86 83.49 L 44.95 81.58 L 43.04 79.68 L 41.13 77.77 L 39.23 75.86 L 37.32 73.95 L 35.41 72.04 L 33.50 70.13 L 31.59 68.22 L 29.69 66.31 L 27.78 64.40 L 25.87 62.50 L 23.96 60.59 L 22.05 58.68 L 20.14 56.77 L 18.24 54.86 L 16.33 52.95 L 14.42 51.04 L 12.51 49.13 L 10.60 47.22 L 8.70 45.32 L 6.79 43.41 L 4.88 41.50 L 3.00 39.58 L 4.51 40.13 L 6.42 42.04 L 8.33 43.95 L 10.24 45.86 L 12.15 47.77 L 14.06 49.68 L 15.96 51.58 L 17.87 53.49 L 19.78 55.40 L 21.69 57.31 L 23.60 59.22 L 25.50 61.13 L 27.41 63.04 L 29.32 64.95 L 31.23 66.86 L 33.14 68.76 L 35.04 70.67 L 36.95 72.58 L 38.86 74.49 L 40.77 76.40 L 42.68 78.31 L 44.59 80.22 L 46.49 82.13 L 48.40 84.03 L 50.31 85.94 L 52.22 84.77 L 54.13 82.86 L 56.04 80.95 L 57.95 79.05 L 59.86 77.14 L 61.77 75.23 L 63.68 73.32 L 65.59 71.42 L 67.50 69.51 L 69.41 67.60 L 71.32 65.70 L 73.23 63.79 L 75.14 61.88 L 77.05 59.97 L 78.96 58.07 L 80.87 56.16 L 82.78 54.25 L 84.69 52.35 L 86.60 50.44 L 88.51 48.53 L 90.42 46.62 L 92.33 44.72 L 94.24 42.81 L 96.15 40.90 L 96.51 41.54 L 94.60 43.45 L 92.69 45.36 L 90.78 47.26 L 88.87 49.17 L 86.96 51.08 L 85.05 52.98 L 83.14 54.89 L 81.23 56.80 L 79.32 58.71 L 77.41 60.61 L 75.50 62.52 L 73.59 64.43 L 71.68 66.33 L 69.77 68.24 L 67.86 70.15 L 65.95 72.06 L 64.04 73.96 L 62.13 75.87 L 60.22 77.78 L 58.31 79.68 L 56.40 81.59 L 54.49 83.50 L 52.58 85.40 L 50.67 87.31" fill="none" stroke="#4a6b4a" stroke-width="0.3" opacity="0.6" data-segment="foul_lines" />
    <path d="M 51.39 86.06 L 51.36 86.09 L 51.32 86.13 L 51.29 86.16 L 51.25 86.20 L 51.22 86.23 L 51.18 86.27 L 51.15 86.30 L 51.11 86.34 L 51.08 86.37 L 51.04 86.41 L 51.01 86.44 L 50.97 86.48 L 50.93 86.51 L 50.90 86.55 L 50.86 86.58 L 50.83 86.62 L 50.79 86.65 L 50.76 86.69 L 50.72 86.72 L 50.69 86.76 L 50.65 86.77 L 50.62 86.73 L 50.58 86.70 L 50.55 86.66 L 50.51 86.63 L 50.48 86.59 L 50.44 86.56 L 50.41 86.52 L 50.37 86.49 L 50.34 86.45 L 50.30 86.42 L 50.27 86.38 L 50.23 86.34 L 50.20 86.31 L 50.16 86.27 L 50.13 86.24 L 50.09 86.20 L 50.06 86.17 L 50.02 86.13 L 49.99 86.10 L 49.95 86.06 L 49.95 86.01 L 49.95 85.96 L 49.95 85.91 L 49.95 85.86 L 49.95 85.81 L 49.95 85.76 L 49.95 85.71 L 49.95 85.66 L 49.95 85.62 L 49.95 85.57 L 49.95 85.52 L 49.95 85.47 L 49.95 85.42 L 49.95 85.37 L 49.97 85.34 L 50.02 85.34 L 50.07 85.34 L 50.12 85.34 L 50.17 85.34 L 50.22 85.34 L 50.27 85.34 L 50.32 85.34 L 50.37 85.34 L 50.42 85.34 L 50.47 85.34 L 50.52 85.34 L 50.57 85.34 L 50.62 85.34 L 50.67 85.34 L 50.72 85.34 L 50.77 85.34 L 50.82 85.34 L 50.87 85.34 L 50.92 85.34 L 50.97 85.34 L 51.02 85.34 L 51.07 85.34 L 51.12 85.34 L 51.17 85.34 L 51.22 85.34 L 51.27 85.34 L 51.32 85.34 L 51.37 85.34 L 51.39 85.36 L 51.39 85.41 L 51.39 85.46 L 51.39 85.51 L 51.39 85.56 L 51.39 85.61 L 51.39 85.66 L 51.39 85.71 L 51.39 85.76 L 51.39 85.81 L 51.39 85.86 L 51.39 85.91 L 51.39 85.96 L 51.39 86.01 L 51.39 86.06 Z" fill="#e5e5e5" stroke="#ffffff" stroke-width="0.3" data-segment="home_plate" />
  <text x="50" y="98" text-anchor="middle" font-size="3" fill="#737373" font-family="monospace">LF 345' · CF 420' · RF 330'</text>
</svg>
