<?xml version="1.0" encoding="UTF-8"?>
<svg xmlns="http://www.w3.org/2000/svg" viewBox="0 0 100 100" role="img" aria-label="twins ballpark">
  <title>twins</title>
  <rect width="100" height="100" fill="#1a2e1a" />
    <path d="M 95.74 39.71 L 93.96 37.65 L 92.18 35.59 L 90.05 33.94 L 88.12 32.02 L 86.20 30.08 L 84.26 28.16 L 82.32 26.25 L 81.12 24.02 L 80.44 21.55 L 78.48 19.70 L 76.22 18.18 L 73.93 16.71 L 71.66 15.20 L 69.38 13.70 L 67.11 12.20 L 64.83 10.71 L 62.55 9.22 L 60.27 7.71 L 57.79 6.78 L 55.07 6.58 L 52.36 6.39 L 49.64 6.17 L 46.92 5.98 L 44.20 5.77 L 41.52 5.90 L 39.13 7.19 L 36.79 8.58 L 34.46 9.99 L 32.12 11.38 L 29.78 12.79 L 27.46 14.21 L 25.12 15.61 L 22.83 17.07 L 20.93 19.02 L 19.14 21.07 L 17.35 23.13 L 15.54 25.17 L 13.74 27.21 L 11.95 29.26 L 10.17 31.33 L 8.37 33.38 L 6.58 35.43 L 4.79 37.48 L 3.00 39.54 L 4.57 41.51 L 6.46 43.46 L 8.36 45.42 L 10.12 47.47 L 11.21 49.96 L 12.31 52.46 L 13.40 54.96 L 14.49 57.45 L 15.58 59.95 L 16.67 62.45 L 17.76 64.95 L 19.41 67.06 L 21.33 69.00 L 23.24 70.94 L 25.16 72.88 L 27.07 74.82 L 28.99 76.76 L 30.90 78.70 L 32.82 80.64 L 34.73 82.58 L 36.64 84.52 L 38.56 86.46 L 40.47 88.40 L 42.28 90.22 L 42.73 90.69 L 43.94 91.71 L 45.80 92.90 L 48.25 93.87 L 51.19 94.23 L 54.53 93.58 L 58.19 91.55 L 60.73 89.27 L 61.79 88.19 L 63.77 86.18 L 66.35 83.56 L 69.20 80.67 L 71.96 77.86 L 74.33 75.47 L 75.94 73.82 L 76.59 73.09 L 77.95 70.73 L 79.31 68.37 L 80.67 66.00 L 81.96 63.61 L 82.86 61.04 L 83.75 58.46 L 84.64 55.89 L 85.54 53.31 L 87.24 51.25 L 89.19 49.35 L 91.14 47.45 L 93.10 45.55 L 95.05 43.65 L 97.00 41.74 L 95.74 39.71 Z" fill="#243524" stroke="#3d5c3d" stroke-width="0.5" data-segment="outfield_outer" />
    <path d="M 6.71 40.50 L 8.38 38.61 L 10.05 36.72 L 11.72 34.82 L 13.39 32.93 L 15.06 31.04 L 16.73 29.15 L 18.39 27.26 L 20.06 25.37 L 21.73 23.48 L 23.40 21.59 L 25.19 19.84 L 27.36 18.56 L 29.54 17.28 L 31.71 16.00 L 33.89 14.72 L 36.06 13.45 L 38.24 12.17 L 40.41 10.89 L 42.59 9.61 L 45.00 9.38 L 47.51 9.59 L 50.02 9.81 L 52.54 10.02 L 55.05 10.24 L 57.56 10.46 L 59.84 11.43 L 62.03 12.68 L 64.23 13.92 L 66.42 15.17 L 68.62 16.41 L 70.81 17.65 L 73.00 18.90 L 74.86 20.60 L 76.73 22.30 L 77.50 24.49 L 77.50 27.01 L 79.12 28.83 L 80.96 30.56 L 82.79 32.29 L 84.63 34.02 L 86.46 35.75 L 88.30 37.49 L 90.39 38.65 L 92.09 40.51 L 93.20 42.36 L 91.42 44.15 L 89.64 45.93 L 87.86 47.72 L 86.09 49.51 L 84.31 51.30 L 83.01 53.40 L 82.10 55.75 L 81.19 58.10 L 80.28 60.46 L 79.37 62.81 L 78.24 65.05 L 76.82 67.13 L 75.40 69.21 L 73.94 71.27 L 72.20 73.09 L 70.46 74.92 L 68.72 76.74 L 66.98 78.57 L 65.23 80.39 L 63.49 82.22 L 61.75 84.04 L 60.01 85.87 L 58.27 87.69 L 57.58 88.47 L 56.57 89.54 L 54.85 90.84 L 52.53 91.78 L 49.69 91.78 L 46.43 90.24 L 44.11 88.12 L 43.45 87.47 L 42.14 86.17 L 40.30 84.35 L 38.07 82.13 L 35.55 79.64 L 32.90 77.01 L 30.22 74.36 L 27.66 71.82 L 25.33 69.51 L 23.36 67.57 L 21.89 66.11 L 21.03 65.26 L 20.48 64.28 L 19.40 62.00 L 18.32 59.72 L 17.24 57.44 L 16.16 55.16 L 15.08 52.88 L 14.00 50.60 L 12.92 48.32 L 11.84 46.04 L 10.18 44.16 L 8.45 42.33 L 6.71 40.50" fill="none" stroke="#3d5c3d" stroke-width="0.25" opacity="0.4" data-segment="outfield_inner" />
    <path d="M 69.19 68.33 L 69.11 68.14 L 68.86 67.58 L 68.45 66.72 L 67.87 65.63 L 67.12 64.34 L 66.20 62.93 L 65.10 61.44 L 63.82 59.94 L 62.36 58.49 L 60.72 57.13 L 58.89 55.93 L 56.87 54.95 L 54.66 54.24 L 52.25 53.87 L 49.67 53.87 L 47.20 54.25 L 44.94 54.95 L 42.88 55.91 L 41.01 57.08 L 39.33 58.40 L 37.84 59.82 L 36.53 61.28 L 35.41 62.72 L 34.47 64.10 L 33.71 65.35 L 33.12 66.42 L 32.70 67.25 L 32.45 67.80 L 32.37 67.99 L 33.59 69.16 L 34.82 70.34 L 36.04 71.52 L 37.27 72.70 L 38.50 73.88 L 39.73 75.06 L 40.96 76.24 L 42.19 77.42 L 43.42 78.60 L 44.65 79.78 L 45.88 80.96 L 47.11 82.14 L 47.13 83.48 L 46.90 85.12 L 47.41 86.73 L 48.56 87.97 L 50.13 88.59 L 51.82 88.48 L 53.29 87.66 L 54.28 86.29 L 54.57 84.62 L 54.11 83.00 L 55.21 81.80 L 56.44 80.62 L 57.66 79.43 L 58.89 78.25 L 60.12 77.07 L 61.35 75.89 L 62.57 74.71 L 63.80 73.53 L 65.03 72.34 L 66.25 71.16 L 67.48 69.98 L 68.71 68.80 L 69.19 68.33 Z" fill="#2a3f2a" stroke="#4a6b4a" stroke-width="0.4" data-segment="infield_outer" />
    <path d="M 49.71 81.18 L 48.37 80.55 L 47.16 79.35 L 45.95 78.15 L 44.74 76.95 L 43.53 75.75 L 42.32 74.55 L 41.11 73.35 L 40.45 72.37 L 41.74 70.81 L 41.87 69.00 L 42.71 67.83 L 43.93 66.64 L 45.15 65.45 L 46.37 64.27 L 47.59 63.08 L 48.86 62.35 L 50.47 62.84 L 52.15 62.61 L 53.52 62.77 L 54.74 63.96 L 55.96 65.15 L 57.18 66.34 L 58.39 67.53 L 59.61 68.72 L 59.49 70.23 L 60.31 71.61 L 60.83 72.86 L 59.62 74.06 L 58.41 75.26 L 57.20 76.45 L 55.98 77.65 L 54.77 78.85 L 53.56 80.04 L 52.35 81.24 L 49.71 81.18" fill="none" stroke="#4a6b4a" stroke-width="0.25" opacity="0.5" data-segment="infield_inner" />
    <path d="M 50.75 85.30 L 48.89 83.44 L 47.03 81.58 L 45.17 79.72 L 43.30 77.86 L 41.44 75.99 L 39.58 74.13 L 37.72 72.27 L 35.86 70.41 L 34.00 68.55 L 32.14 66.69 L 30.28 64.82 L 28.42 62.96 L 26.55 61.10 L 24.69 59.24 L 22.83 57.38 L 20.97 55.51 L 19.11 53.65 L 17.25 51.79 L 15.39 49.93 L 13.53 48.07 L 11.66 46.20 L 9.80 44.34 L 7.94 42.48 L 6.08 40.62 L 4.22 38.76 L 5.44 38.98 L 7.31 40.84 L 9.17 42.71 L 11.03 44.57 L 12.89 46.43 L 14.75 48.29 L 16.61 50.15 L 18.47 52.02 L 20.33 53.88 L 22.19 55.74 L 24.06 57.60 L 25.92 59.46 L 27.78 61.33 L 29.64 63.19 L 31.50 65.05 L 33.36 66.91 L 35.22 68.77 L 37.08 70.64 L 38.95 72.50 L 40.81 74.36 L 42.67 76.22 L 44.53 78.08 L 46.39 79.94 L 48.25 81.81 L 50.11 83.67 L 51.97 83.08 L 53.84 81.22 L 55.70 79.36 L 57.56 77.50 L 59.43 75.64 L 61.29 73.78 L 63.15 71.92 L 65.01 70.06 L 66.88 68.20 L 68.74 66.34 L 70.60 64.48 L 72.47 62.62 L 74.33 60.76 L 76.19 58.90 L 78.06 57.04 L 79.92 55.18 L 81.78 53.32 L 83.64 51.46 L 85.51 49.60 L 87.37 47.74 L 89.23 45.88 L 91.10 44.02 L 92.96 42.16 L 94.82 40.30 L 95.46 40.66 L 93.60 42.52 L 91.73 44.38 L 89.87 46.24 L 88.01 48.10 L 86.14 49.96 L 84.28 51.82 L 82.42 53.68 L 80.56 55.54 L 78.69 57.40 L 76.83 59.26 L 74.97 61.12 L 73.10 62.98 L 71.24 64.84 L 69.38 66.70 L 67.52 68.56 L 65.65 70.42 L 63.79 72.28 L 61.93 74.14 L 60.06 76.00 L 58.20 77.86 L 56.34 79.72 L 54.47 81.58 L 52.61 83.44 L 50.75 85.30" fill="none" stroke="#4a6b4a" stroke-width="0.3" opacity="0.6" data-segment="foul_lines" />
    <path d="M 51.46 84.06 L 51.43 84.09 L 51.39 84.13 L 51.36 84.16 L 51.32 84.20 L 51.29 84.23 L 51.25 84.27 L 51.22 84.30 L 51.18 84.34 L 51.15 84.37 L 51.11 84.41 L 51.08 84.44 L 51.04 84.48 L 51.01 84.51 L 50.97 84.55 L 50.94 84.58 L 50.90 84.61 L 50.87 84.65 L 50.83 84.68 L 50.80 84.72 L 50.76 84.75 L 50.73 84.76 L 50.69 84.73 L 50.66 84.69 L 50.62 84.66 L 50.59 84.62 L 50.55 84.59 L 50.52 84.55 L 50.48 84.52 L 50.45 84.48 L 50.41 84.45 L 50.38 84.41 L 50.34 84.38 L 50.31 84.34 L 50.28 84.31 L 50.24 84.27 L 50.21 84.24 L 50.17 84.20 L 50.14 84.17 L 50.10 84.13 L 50.07 84.09 L 50.03 84.06 L 50.03 84.01 L 50.03 83.96 L 50.03 83.91 L 50.03 83.86 L 50.03 83.81 L 50.03 83.76 L 50.03 83.71 L 50.03 83.66 L 50.03 83.62 L 50.03 83.57 L 50.03 83.52 L 50.03 83.47 L 50.03 83.42 L 50.03 83.37 L 50.05 83.34 L 50.10 83.34 L 50.15 83.34 L 50.20 83.34 L 50.25 83.34 L 50.30 83.34 L 50.35 83.34 L 50.40 83.34 L 50.45 83.34 L 50.50 83.34 L 50.55 83.34 L 50.60 83.34 L 50.65 83.34 L 50.70 83.34 L 50.74 83.34 L 50.79 83.34 L 50.84 83.34 L 50.89 83.34 L 50.94 83.34 L 50.99 83.34 L 51.04 83.34 L 51.09 83.34 L 51.14 83.34 L 51.19 83.34 L 51.24 83.34 L 51.29 83.34 L 51.34 83.34 L 51.39 83.34 L 51.44 83.34 L 51.46 83.36 L 51.46 83.41 L 51.46 83.46 L 51.46 83.51 L 51.46 83.56 L 51.46 83.61 L 51.46 83.66 L 51.46 83.71 L 51.46 83.76 L 51.46 83.81 L 51.46 83.86 L 51.46 83.91 L 51.46 83.96 L 51.46 84.01 L 51.46 84.06 Z" fill="#e5e5e5" stroke="#ffffff" stroke-width="0.3" data-segment="home_plate" />
  <text x="50" y="98" text-anchor="middle" font-size="3" fill="#737373" font-family="monospace">LF 339' · CF 404' · RF 328'</text>
</svg>
