<?xml version="1.0" encoding="UTF-8"?>
<svg xmlns="http://www.w3.org/2000/svg" viewBox="0 0 100 100" role="img" aria-label="white_sox ballpark">
  <title>white_sox</title>
  <rect width="100" height="100" fill="#1a2e1a" />
    <path d="M 96.59 37.83 L 94.77 35.81 L 92.95 33.79 L 91.12 31.78 L 89.32 29.74 L 87.50 27.72 L 85.71 25.67 L 83.89 23.65 L 82.04 21.66 L 80.22 19.63 L 78.40 17.62 L 76.42 15.76 L 74.30 14.05 L 72.05 12.53 L 69.73 11.11 L 67.23 10.04 L 64.71 9.02 L 62.18 8.02 L 59.76 6.79 L 57.30 5.75 L 54.58 5.68 L 51.86 5.68 L 49.14 5.68 L 46.42 5.68 L 43.70 5.68 L 41.10 6.28 L 38.77 7.68 L 36.36 8.92 L 33.84 9.95 L 31.35 11.04 L 29.02 12.43 L 26.75 13.94 L 24.59 15.59 L 22.61 17.45 L 20.68 19.36 L 18.73 21.26 L 16.78 23.16 L 14.83 25.06 L 12.89 26.96 L 11.11 29.01 L 9.50 31.20 L 7.87 33.38 L 6.25 35.56 L 4.65 37.76 L 3.00 39.92 L 4.35 41.78 L 6.39 43.59 L 8.23 45.57 L 9.86 47.75 L 11.49 49.93 L 13.12 52.10 L 14.76 54.28 L 16.39 56.45 L 18.02 58.63 L 19.65 60.80 L 21.28 62.98 L 22.92 65.15 L 24.55 67.33 L 26.16 69.52 L 27.77 71.71 L 29.37 73.91 L 30.98 76.11 L 32.58 78.30 L 34.18 80.50 L 35.79 82.69 L 37.39 84.89 L 39.00 87.09 L 40.27 88.82 L 41.24 89.88 L 43.34 91.72 L 46.29 93.48 L 49.82 94.32 L 51.36 93.73 L 54.40 92.11 L 57.91 90.23 L 60.42 88.89 L 61.60 87.63 L 63.20 85.43 L 64.80 83.23 L 66.40 81.03 L 68.00 78.83 L 69.60 76.63 L 71.20 74.43 L 72.45 72.04 L 73.42 69.50 L 74.48 67.01 L 76.19 64.90 L 77.89 62.78 L 79.60 60.66 L 81.30 58.54 L 83.01 56.42 L 84.71 54.30 L 86.42 52.18 L 88.12 50.06 L 89.83 47.94 L 91.53 45.82 L 93.26 43.73 L 95.13 41.75 L 97.00 39.78 L 96.59 37.83 Z" fill="#243524" stroke="#3d5c3d" stroke-width="0.5" data-segment="outfield_outer" />
    <path d="M 91.81 41.38 L 91.58 38.96 L 90.44 36.80 L 88.84 34.95 L 87.23 33.09 L 85.63 31.23 L 84.03 29.37 L 82.43 27.52 L 80.82 25.66 L 79.22 23.80 L 77.62 21.94 L 76.01 20.09 L 75.43 19.40 L 75.06 18.97 L 74.35 18.25 L 73.26 17.31 L 71.77 16.24 L 69.86 15.09 L 67.48 13.95 L 64.63 12.89 L 61.25 11.98 L 57.34 11.29 L 52.86 10.90 L 48.12 10.89 L 43.91 11.25 L 40.11 11.92 L 36.72 12.83 L 33.72 13.92 L 31.12 15.11 L 28.91 16.33 L 27.08 17.51 L 25.64 18.59 L 24.57 19.49 L 23.88 20.14 L 23.55 20.48 L 22.61 21.69 L 21.10 23.62 L 19.60 25.56 L 18.09 27.50 L 16.58 29.43 L 15.07 31.37 L 13.57 33.31 L 12.06 35.24 L 10.55 37.18 L 9.39 38.71 L 9.13 40.86 L 10.49 43.76 L 11.85 45.81 L 13.26 47.82 L 14.71 49.79 L 16.17 51.76 L 17.63 53.74 L 19.08 55.71 L 20.54 57.69 L 22.00 59.66 L 23.45 61.64 L 24.91 63.61 L 26.36 65.59 L 27.82 67.56 L 29.28 69.53 L 30.73 71.51 L 32.19 73.48 L 33.65 75.46 L 35.10 77.43 L 36.56 79.40 L 38.09 81.33 L 39.61 83.25 L 41.13 85.17 L 42.20 86.54 L 43.09 87.81 L 44.92 89.76 L 47.53 91.48 L 50.22 92.01 L 51.95 91.05 L 55.00 89.35 L 57.83 87.78 L 59.06 86.96 L 60.41 84.92 L 61.76 82.87 L 63.12 80.83 L 64.47 78.78 L 65.83 76.74 L 67.18 74.69 L 68.20 72.46 L 69.23 70.23 L 70.25 68.00 L 71.27 65.77 L 72.75 63.83 L 74.34 61.96 L 75.93 60.09 L 77.52 58.22 L 79.10 56.35 L 80.69 54.48 L 82.28 52.61 L 83.87 50.74 L 85.46 48.87 L 87.04 47.00 L 88.63 45.13 L 90.22 43.25 L 91.81 41.38" fill="none" stroke="#3d5c3d" stroke-width="0.25" opacity="0.4" data-segment="outfield_inner" />
    <path d="M 68.79 68.09 L 68.72 67.91 L 68.52 67.37 L 68.18 66.53 L 67.68 65.44 L 67.01 64.18 L 66.16 62.79 L 65.09 61.34 L 63.81 59.88 L 62.29 58.48 L 60.52 57.20 L 58.48 56.09 L 56.16 55.21 L 53.54 54.63 L 50.61 54.41 L 47.54 54.56 L 44.82 55.03 L 42.42 55.77 L 40.33 56.74 L 38.52 57.88 L 36.99 59.16 L 35.70 60.51 L 34.63 61.91 L 33.77 63.29 L 33.10 64.61 L 32.58 65.82 L 32.22 66.88 L 31.97 67.74 L 31.83 68.34 L 31.81 69.00 L 33.05 70.23 L 34.28 71.47 L 35.52 72.70 L 36.75 73.94 L 37.99 75.17 L 39.23 75.79 L 40.47 77.01 L 41.72 78.24 L 42.96 79.47 L 44.20 80.69 L 45.45 81.92 L 46.69 83.15 L 47.07 84.52 L 46.97 86.24 L 47.84 87.72 L 49.39 88.46 L 51.10 88.23 L 52.40 87.09 L 52.86 85.43 L 52.33 83.79 L 53.46 82.58 L 54.73 81.38 L 56.00 80.18 L 57.27 78.98 L 58.54 77.77 L 59.81 76.57 L 61.08 75.37 L 62.32 74.62 L 63.55 73.39 L 64.79 72.15 L 66.02 70.92 L 67.26 69.68 L 68.50 68.45 L 68.79 68.09 Z" fill="#2a3f2a" stroke="#4a6b4a" stroke-width="0.4" data-segment="infield_outer" />
    <path d="M 50.52 82.59 L 48.81 82.73 L 47.44 82.51 L 46.23 81.26 L 45.01 80.00 L 43.80 78.75 L 42.58 77.50 L 41.36 76.24 L 40.15 74.99 L 40.07 74.21 L 40.70 72.58 L 40.24 70.40 L 41.47 69.16 L 42.71 67.93 L 43.95 66.69 L 45.18 65.46 L 46.42 64.22 L 47.65 62.98 L 48.89 61.75 L 50.46 61.31 L 51.79 62.40 L 53.01 63.66 L 54.22 64.92 L 55.43 66.18 L 56.64 67.44 L 57.85 68.70 L 59.06 69.96 L 59.95 71.12 L 59.52 72.64 L 60.01 74.54 L 59.20 75.81 L 57.94 77.03 L 56.68 78.24 L 55.42 79.45 L 54.16 80.66 L 52.90 81.87 L 50.52 82.59" fill="none" stroke="#4a6b4a" stroke-width="0.25" opacity="0.5" data-segment="infield_inner" />
    <path d="M 49.98 84.96 L 48.10 83.08 L 46.22 81.20 L 44.34 79.32 L 42.46 77.44 L 40.59 75.56 L 38.71 73.68 L 36.83 71.80 L 34.95 69.92 L 33.07 68.04 L 31.19 66.16 L 29.31 64.28 L 27.43 62.40 L 25.55 60.52 L 23.67 58.64 L 21.79 56.76 L 19.92 54.88 L 18.04 53.00 L 16.16 51.12 L 14.28 49.24 L 12.40 47.36 L 10.52 45.48 L 8.64 43.60 L 6.76 41.72 L 4.88 39.84 L 4.65 38.61 L 6.53 40.49 L 8.41 42.37 L 10.29 44.25 L 12.17 46.13 L 14.05 48.01 L 15.93 49.89 L 17.81 51.77 L 19.69 53.65 L 21.57 55.53 L 23.45 57.41 L 25.32 59.29 L 27.20 61.17 L 29.08 63.05 L 30.96 64.93 L 32.84 66.81 L 34.72 68.69 L 36.60 70.57 L 38.48 72.45 L 40.36 74.33 L 42.24 76.21 L 44.12 78.09 L 45.99 79.97 L 47.87 81.85 L 49.75 83.73 L 51.63 82.31 L 53.51 80.43 L 55.40 78.55 L 57.28 76.68 L 59.16 74.80 L 61.04 72.92 L 62.92 71.04 L 64.80 69.16 L 66.68 67.29 L 68.56 65.41 L 70.44 63.53 L 72.32 61.65 L 74.20 59.77 L 76.08 57.90 L 77.97 56.02 L 79.85 54.14 L 81.73 52.26 L 83.61 50.38 L 85.49 48.51 L 87.37 46.63 L 89.25 44.75 L 91.13 42.87 L 93.01 40.99 L 94.89 39.12 L 96.77 38.00 L 95.12 39.89 L 93.24 41.76 L 91.36 43.64 L 89.48 45.52 L 87.60 47.40 L 85.72 49.28 L 83.84 51.15 L 81.96 53.03 L 80.08 54.91 L 78.19 56.79 L 76.31 58.67 L 74.43 60.54 L 72.55 62.42 L 70.67 64.30 L 68.79 66.18 L 66.91 68.06 L 65.03 69.93 L 63.15 71.81 L 61.27 73.69 L 59.39 75.57 L 57.50 77.45 L 55.62 79.32 L 53.74 81.20 L 51.86 83.08 L 49.98 84.96" fill="none" stroke="#4a6b4a" stroke-width="0.3" opacity="0.6" data-segment="foul_lines" />
    <path d="M 50.70 83.71 L 50.66 83.75 L 50.63 83.78 L 50.59 83.82 L 50.56 83.85 L 50.52 83.88 L 50.49 83.92 L 50.45 83.95 L 50.42 83.99 L 50.38 84.02 L 50.35 84.06 L 50.31 84.09 L 50.28 84.13 L 50.24 84.16 L 50.20 84.20 L 50.17 84.23 L 50.13 84.27 L 50.10 84.30 L 50.06 84.34 L 50.03 84.37 L 49.99 84.41 L 49.96 84.42 L 49.92 84.38 L 49.89 84.35 L 49.85 84.31 L 49.82 84.28 L 49.79 84.24 L 49.75 84.21 L 49.72 84.17 L 49.68 84.14 L 49.65 84.10 L 49.61 84.07 L 49.58 84.03 L 49.54 84.00 L 49.51 83.96 L 49.47 83.92 L 49.44 83.89 L 49.40 83.85 L 49.37 83.82 L 49.33 83.78 L 49.30 83.75 L 49.26 83.71 L 49.26 83.67 L 49.26 83.62 L 49.26 83.57 L 49.26 83.52 L 49.26 83.47 L 49.26 83.42 L 49.26 83.37 L 49.26 83.32 L 49.26 83.27 L 49.26 83.22 L 49.26 83.17 L 49.26 83.12 L 49.26 83.07 L 49.26 83.02 L 49.28 82.99 L 49.33 82.99 L 49.38 82.99 L 49.43 82.99 L 49.48 82.99 L 49.53 82.99 L 49.58 82.99 L 49.63 82.99 L 49.68 82.99 L 49.73 82.99 L 49.78 82.99 L 49.83 82.99 L 49.88 82.99 L 49.93 82.99 L 49.98 82.99 L 50.03 82.99 L 50.08 82.99 L 50.13 82.99 L 50.17 82.99 L 50.22 82.99 L 50.27 82.99 L 50.32 82.99 L 50.37 82.99 L 50.42 82.99 L 50.47 82.99 L 50.52 82.99 L 50.57 82.99 L 50.62 82.99 L 50.67 82.99 L 50.70 83.02 L 50.70 83.07 L 50.70 83.12 L 50.70 83.17 L 50.70 83.22 L 50.70 83.26 L 50.70 83.31 L 50.70 83.36 L 50.70 83.41 L 50.70 83.46 L 50.70 83.51 L 50.70 83.56 L 50.70 83.61 L 50.70 83.66 L 50.70 83.71 Z" fill="#e5e5e5" stroke="#ffffff" stroke-width="0.3" data-segment="home_plate" />
  <text x="50" y="98" text-anchor="middle" font-size="3" fill="#737373" font-family="monospace">LF 330' · CF 400' · RF 335'</text>
</svg>
