<?xml version="1.0" encoding="UTF-8"?>
<svg xmlns="http://www.w3.org/2000/svg" viewBox="0 0 100 100" role="img" aria-label="yankees ballpark">
  <title>yankees</title>
  <rect width="100" height="100" fill="#1a2e1a" />
    <path d="M 94.58 42.31 L 94.24 39.60 L 93.23 37.07 L 91.70 34.77 L 89.85 32.74 L 87.92 30.79 L 85.98 28.85 L 84.05 26.90 L 82.11 24.95 L 80.16 23.01 L 78.24 21.09 L 76.37 19.15 L 74.49 17.15 L 72.57 15.13 L 70.61 13.14 L 68.58 11.23 L 66.47 9.43 L 64.27 7.81 L 61.95 6.39 L 59.51 5.23 L 56.92 4.34 L 54.25 3.66 L 51.55 3.22 L 48.81 3.00 L 46.07 3.01 L 43.33 3.22 L 40.61 3.64 L 37.95 4.28 L 35.34 5.15 L 32.82 6.24 L 30.41 7.55 L 28.13 9.08 L 25.96 10.75 L 23.89 12.55 L 21.89 14.43 L 19.93 16.37 L 18.01 18.33 L 16.08 20.29 L 14.15 22.21 L 12.19 24.15 L 10.33 26.19 L 8.69 28.38 L 7.39 30.79 L 6.44 33.36 L 5.79 36.03 L 5.46 38.75 L 5.61 40.55 L 6.86 43.32 L 9.00 45.89 L 11.01 47.77 L 13.02 49.64 L 14.93 51.58 L 16.05 54.09 L 17.17 56.60 L 18.29 59.10 L 19.41 61.61 L 20.53 64.12 L 21.65 66.62 L 22.77 69.13 L 23.97 71.59 L 25.67 73.75 L 27.37 75.90 L 29.07 78.06 L 30.77 80.22 L 32.47 82.37 L 34.17 84.53 L 35.86 86.69 L 37.56 88.84 L 39.26 91.00 L 40.10 92.04 L 41.48 93.37 L 43.89 95.11 L 47.22 96.55 L 51.31 97.00 L 55.08 96.00 L 57.88 94.20 L 59.62 92.48 L 60.24 91.69 L 61.91 89.52 L 63.59 87.34 L 65.26 85.17 L 66.94 82.99 L 68.61 80.82 L 70.29 78.64 L 71.96 76.46 L 73.64 74.29 L 75.31 72.11 L 76.98 69.93 L 78.29 67.52 L 79.61 65.11 L 80.93 62.70 L 82.24 60.29 L 83.56 57.88 L 84.88 55.47 L 86.19 53.07 L 87.51 50.66 L 89.08 48.42 L 90.88 46.35 L 92.68 44.28 L 94.59 42.31 Z" fill="#243524" stroke="#3d5c3d" stroke-width="0.5" data-segment="outfield_outer" />
    <path d="M 50.48 93.48 L 46.81 92.73 L 44.23 91.20 L 42.80 89.82 L 42.31 89.17 L 41.23 87.77 L 39.63 85.75 L 37.66 83.31 L 35.47 80.64 L 33.23 77.92 L 31.10 75.33 L 29.22 73.06 L 27.75 71.29 L 26.86 70.21 L 26.33 69.32 L 25.22 67.08 L 24.11 64.83 L 22.99 62.59 L 21.88 60.34 L 20.76 58.10 L 19.65 55.85 L 18.54 53.61 L 17.42 51.37 L 16.31 49.12 L 16.04 48.48 L 14.73 46.57 L 11.71 43.22 L 10.24 41.16 L 9.33 38.89 L 9.08 36.43 L 9.57 33.92 L 10.65 31.70 L 12.13 29.70 L 13.82 27.84 L 15.56 26.02 L 17.31 24.22 L 19.08 22.44 L 20.85 20.67 L 22.64 18.92 L 24.44 17.18 L 26.27 15.48 L 28.19 13.86 L 30.23 12.42 L 32.39 11.14 L 34.64 10.04 L 36.97 9.12 L 39.36 8.38 L 41.81 7.84 L 44.29 7.50 L 46.79 7.35 L 49.25 7.41 L 51.73 7.68 L 54.22 8.19 L 56.67 8.92 L 59.01 9.90 L 61.18 11.13 L 63.13 12.60 L 65.02 14.24 L 66.93 15.88 L 68.83 17.51 L 70.73 19.14 L 72.63 20.77 L 74.52 22.42 L 76.40 24.08 L 78.26 25.75 L 80.11 27.45 L 81.92 29.17 L 83.72 30.91 L 85.47 32.71 L 87.15 34.57 L 88.70 36.53 L 90.07 38.63 L 90.57 41.05 L 89.53 42.87 L 87.49 44.84 L 85.37 46.87 L 83.98 48.41 L 83.52 49.20 L 82.51 51.02 L 81.09 53.61 L 79.40 56.67 L 77.63 59.91 L 75.92 63.02 L 74.45 65.71 L 73.37 67.69 L 72.84 68.65 L 72.62 68.98 L 71.79 70.17 L 70.45 72.09 L 68.72 74.55 L 66.76 77.35 L 64.70 80.27 L 62.67 83.13 L 60.81 85.71 L 59.27 87.82 L 58.18 89.24 L 57.71 89.84 L 56.63 91.11 L 54.27 92.70 L 50.48 93.48" fill="none" stroke="#3d5c3d" stroke-width="0.25" opacity="0.4" data-segment="outfield_inner" />
    <path d="M 68.55 68.09 L 68.47 67.90 L 68.23 67.35 L 67.82 66.50 L 67.25 65.41 L 66.51 64.14 L 65.59 62.74 L 64.50 61.26 L 63.24 59.78 L 61.79 58.34 L 60.16 56.99 L 58.35 55.81 L 56.35 54.84 L 54.16 54.13 L 51.78 53.76 L 49.22 53.76 L 46.78 54.14 L 44.53 54.83 L 42.49 55.78 L 40.63 56.94 L 38.97 58.25 L 37.49 59.65 L 36.20 61.10 L 35.09 62.53 L 34.16 63.89 L 33.40 65.13 L 32.82 66.19 L 32.40 67.02 L 32.16 67.55 L 32.07 67.75 L 33.28 68.91 L 34.50 70.07 L 35.72 71.24 L 36.93 72.41 L 38.15 73.58 L 39.37 74.75 L 40.59 75.92 L 41.80 77.09 L 43.02 78.25 L 44.24 79.42 L 45.46 80.59 L 46.67 81.76 L 46.71 83.09 L 46.47 84.71 L 46.97 86.31 L 48.11 87.54 L 49.66 88.16 L 51.33 88.06 L 52.80 87.25 L 53.78 85.89 L 54.08 84.25 L 53.63 82.64 L 54.70 81.44 L 55.91 80.27 L 57.13 79.10 L 58.34 77.93 L 59.56 76.76 L 60.77 75.59 L 61.99 74.42 L 63.20 73.25 L 64.42 72.08 L 65.63 70.90 L 66.85 69.73 L 68.06 68.56 L 68.55 68.09 Z" fill="#2a3f2a" stroke="#4a6b4a" stroke-width="0.4" data-segment="infield_outer" />
    <path d="M 49.27 80.82 L 47.94 80.20 L 46.74 79.01 L 45.54 77.83 L 44.34 76.64 L 43.15 75.45 L 41.95 74.26 L 40.75 73.08 L 40.08 72.10 L 41.35 70.55 L 41.49 68.77 L 42.31 67.61 L 43.52 66.43 L 44.73 65.25 L 45.94 64.07 L 47.14 62.89 L 48.40 62.16 L 50.00 62.65 L 51.66 62.42 L 53.02 62.57 L 54.23 63.75 L 55.44 64.93 L 56.65 66.11 L 57.85 67.29 L 59.06 68.46 L 58.94 69.95 L 59.74 71.32 L 60.27 72.56 L 59.07 73.75 L 57.87 74.94 L 56.67 76.12 L 55.47 77.31 L 54.27 78.49 L 53.07 79.68 L 51.87 80.86 L 49.27 80.82" fill="none" stroke="#4a6b4a" stroke-width="0.25" opacity="0.5" data-segment="infield_inner" />
    <path d="M 50.28 84.90 L 48.47 83.09 L 46.66 81.27 L 44.85 79.46 L 43.04 77.65 L 41.23 75.84 L 39.41 74.02 L 37.60 72.21 L 35.79 70.40 L 33.98 68.59 L 32.17 66.77 L 30.35 64.96 L 28.54 63.15 L 26.73 61.34 L 24.92 59.52 L 23.11 57.71 L 21.29 55.90 L 19.48 54.09 L 17.67 52.27 L 15.86 50.46 L 14.05 48.65 L 12.23 46.84 L 10.42 45.02 L 8.61 43.21 L 6.81 41.39 L 5.41 39.40 L 6.98 40.59 L 8.79 42.40 L 10.60 44.21 L 12.41 46.02 L 14.23 47.84 L 16.04 49.65 L 17.85 51.46 L 19.66 53.27 L 21.47 55.09 L 23.29 56.90 L 25.10 58.71 L 26.91 60.52 L 28.72 62.34 L 30.53 64.15 L 32.34 65.96 L 34.16 67.78 L 35.97 69.59 L 37.78 71.40 L 39.59 73.21 L 41.40 75.03 L 43.22 76.84 L 45.03 78.65 L 46.84 80.46 L 48.65 82.28 L 50.46 83.73 L 52.28 81.92 L 54.09 80.11 L 55.90 78.30 L 57.72 76.49 L 59.53 74.68 L 61.34 72.87 L 63.16 71.06 L 64.97 69.25 L 66.78 67.44 L 68.60 65.62 L 70.41 63.81 L 72.23 62.00 L 74.04 60.19 L 75.85 58.38 L 77.67 56.57 L 79.48 54.76 L 81.29 52.95 L 83.11 51.14 L 84.92 49.33 L 86.73 47.52 L 88.55 45.71 L 90.36 43.90 L 92.17 42.08 L 93.99 40.28 L 93.80 41.43 L 92.00 43.25 L 90.18 45.06 L 88.37 46.87 L 86.56 48.68 L 84.74 50.49 L 82.93 52.30 L 81.12 54.12 L 79.30 55.93 L 77.49 57.74 L 75.67 59.55 L 73.86 61.36 L 72.05 63.17 L 70.23 64.98 L 68.42 66.79 L 66.61 68.60 L 64.79 70.41 L 62.98 72.22 L 61.17 74.03 L 59.35 75.85 L 57.54 77.66 L 55.73 79.47 L 53.91 81.28 L 52.10 83.09 L 50.28 84.90" fill="none" stroke="#4a6b4a" stroke-width="0.3" opacity="0.6" data-segment="foul_lines" />
    <path d="M 50.99 83.67 L 50.96 83.70 L 50.92 83.74 L 50.89 83.77 L 50.85 83.81 L 50.82 83.84 L 50.78 83.87 L 50.75 83.91 L 50.71 83.94 L 50.68 83.98 L 50.64 84.01 L 50.61 84.05 L 50.58 84.08 L 50.54 84.12 L 50.51 84.15 L 50.47 84.18 L 50.44 84.22 L 50.40 84.25 L 50.37 84.29 L 50.33 84.32 L 50.30 84.36 L 50.26 84.36 L 50.23 84.33 L 50.19 84.29 L 50.16 84.26 L 50.12 84.22 L 50.09 84.19 L 50.05 84.15 L 50.02 84.12 L 49.99 84.09 L 49.95 84.05 L 49.92 84.02 L 49.88 83.98 L 49.85 83.95 L 49.81 83.91 L 49.78 83.88 L 49.74 83.84 L 49.71 83.81 L 49.67 83.77 L 49.64 83.74 L 49.61 83.70 L 49.57 83.67 L 49.57 83.62 L 49.57 83.57 L 49.57 83.52 L 49.57 83.47 L 49.57 83.42 L 49.57 83.37 L 49.57 83.33 L 49.57 83.28 L 49.57 83.23 L 49.57 83.18 L 49.57 83.13 L 49.57 83.08 L 49.57 83.03 L 49.57 82.98 L 49.60 82.96 L 49.65 82.96 L 49.69 82.96 L 49.74 82.96 L 49.79 82.96 L 49.84 82.96 L 49.89 82.96 L 49.94 82.96 L 49.99 82.96 L 50.04 82.96 L 50.09 82.96 L 50.14 82.96 L 50.18 82.96 L 50.23 82.96 L 50.28 82.96 L 50.33 82.96 L 50.38 82.96 L 50.43 82.96 L 50.48 82.96 L 50.53 82.96 L 50.58 82.96 L 50.62 82.96 L 50.67 82.96 L 50.72 82.96 L 50.77 82.96 L 50.82 82.96 L 50.87 82.96 L 50.92 82.96 L 50.97 82.96 L 50.99 82.98 L 50.99 83.03 L 50.99 83.08 L 50.99 83.13 L 50.99 83.18 L 50.99 83.23 L 50.99 83.28 L 50.99 83.33 L 50.99 83.37 L 50.99 83.42 L 50.99 83.47 L 50.99 83.52 L 50.99 83.57 L 50.99 83.62 L 50.99 83.67 Z" fill="#e5e5e5" stroke="#ffffff" stroke-width="0.3" data-segment="home_plate" />
  <text x="50" y="98" text-anchor="middle" font-size="3" fill="#737373" font-family="monospace">LF 318' · CF 408' · RF 314'</text>
</svg>
